<svg width="79" height="79" viewBox="0 0 79 79" fill="none" xmlns="http://www.w3.org/2000/svg">
<path d="M45.1061 33.7293H60.3609C60.5872 33.7293 60.7621 33.9145 60.7621 34.1305V44.9415C60.7621 45.1678 60.577 45.3427 60.3609 45.3427H45.1061C44.8798 45.3427 44.7049 45.5279 44.7049 45.7439V63.0971C44.7049 63.3234 44.5198 63.4983 44.3038 63.4983H32.8652C32.6389 63.4983 32.4641 63.3132 32.4641 63.0971V45.7542C32.4641 45.5279 32.2789 45.353 32.0629 45.353H16.7566C16.5303 45.353 16.3555 45.1678 16.3555 44.9518V34.1305C16.3555 33.9042 16.5406 33.7293 16.7566 33.7293H32.0629C32.2892 33.7293 32.4641 33.5441 32.4641 33.3281V16.7361C32.4641 16.5098 32.6492 16.3349 32.8652 16.3349H44.2935C44.5198 16.3349 44.6947 16.5201 44.6947 16.7361V33.3281C44.7049 33.5441 44.8901 33.7293 45.1061 33.7293Z" fill="#F28500"/>
<path opacity="0.7" d="M42.4623 13.1667C45.2397 13.0638 47.0192 14.2982 47.9039 32.8447C48.8091 52.07 45.0031 53.0678 40.5182 49.2413C36.2082 44.2215 38.4609 41.1355 38.1009 31.2503C37.7306 21.365 39.685 13.2695 42.4623 13.1667Z" fill="url(#paint0_radial_26_54)"/>
<path opacity="0.7" d="M26.2101 41.475C26.2513 38.6977 27.5679 36.9798 46.135 37.0415C65.3809 37.1033 66.1833 40.9607 62.1407 45.2501C56.9049 49.303 53.9321 46.896 44.0468 46.752C34.1513 46.608 26.169 44.2524 26.2101 41.475Z" fill="url(#paint1_radial_26_54)"/>
<path opacity="0.7" d="M41.7735 27.0225C44.5406 26.8477 46.3613 28.0203 47.7602 46.5359C49.2106 65.7305 45.4252 66.8311 40.8374 63.1383C36.3937 58.2419 38.5538 55.0943 37.9161 45.2193C37.2783 35.3546 39.0064 27.2077 41.7735 27.0225Z" fill="url(#paint2_radial_26_54)"/>
<path d="M45.9601 32.8961H61.2149C61.4412 32.8961 61.6161 33.0812 61.6161 33.2973V44.1083C61.6161 44.3346 61.431 44.5095 61.2149 44.5095H45.9601C45.7338 44.5095 45.559 44.6947 45.559 44.9107V62.2639C45.559 62.4902 45.3738 62.6651 45.1578 62.6651H33.7192C33.4929 62.6651 33.3181 62.4799 33.3181 62.2639V44.921C33.3181 44.6947 33.1329 44.5198 32.9169 44.5198H17.6106C17.3843 44.5198 17.2095 44.3346 17.2095 44.1186V33.2973C17.2095 33.071 17.3946 32.8961 17.6106 32.8961H32.9169C33.1432 32.8961 33.3181 32.7109 33.3181 32.4949V15.9029C33.3181 15.6766 33.5032 15.5017 33.7192 15.5017H45.1578C45.3841 15.5017 45.559 15.6869 45.559 15.9029V32.4949C45.559 32.7212 45.7338 32.8961 45.9601 32.8961Z" fill="url(#paint3_linear_26_54)"/>
<defs>
<radialGradient id="paint0_radial_26_54" cx="0" cy="0" r="1" gradientUnits="userSpaceOnUse" gradientTransform="translate(42.6677 32.1177) rotate(-92.1014) scale(18.7546 5.26446)">
<stop stop-color="#23354A"/>
<stop offset="0.1826" stop-color="#2A415C" stop-opacity="0.8174"/>
<stop offset="0.5486" stop-color="#3D618B" stop-opacity="0.4514"/>
<stop offset="1" stop-color="#588DCC" stop-opacity="0"/>
</radialGradient>
<radialGradient id="paint1_radial_26_54" cx="0" cy="0" r="1" gradientUnits="userSpaceOnUse" gradientTransform="translate(45.1444 42.2282) rotate(-179.199) scale(18.7566 5.26463)">
<stop stop-color="#23354A"/>
<stop offset="0.1826" stop-color="#2A415C" stop-opacity="0.8174"/>
<stop offset="0.5486" stop-color="#3D618B" stop-opacity="0.4514"/>
<stop offset="1" stop-color="#588DCC" stop-opacity="0"/>
</radialGradient>
<radialGradient id="paint2_radial_26_54" cx="0" cy="0" r="1" gradientUnits="userSpaceOnUse" gradientTransform="translate(42.5127 45.9654) rotate(-93.7062) scale(18.7557 5.26554)">
<stop stop-color="#23354A"/>
<stop offset="0.1826" stop-color="#2A415C" stop-opacity="0.8174"/>
<stop offset="0.5486" stop-color="#3D618B" stop-opacity="0.4514"/>
<stop offset="1" stop-color="#588DCC" stop-opacity="0"/>
</radialGradient>
<linearGradient id="paint3_linear_26_54" x1="17.2067" y1="39.0835" x2="61.6242" y2="39.0835" gradientUnits="userSpaceOnUse">
<stop stop-color="#FBCF0A"/>
<stop offset="1" stop-color="#FBA505"/>
</linearGradient>
</defs>
</svg>
