<svg width="23" height="20" viewBox="0 0 23 20" fill="none" xmlns="http://www.w3.org/2000/svg">
<path d="M22.2812 15.7143H7.1875V15C7.1875 14.6071 6.86406 14.2857 6.46875 14.2857H5.03125C4.63594 14.2857 4.3125 14.6071 4.3125 15V15.7143H0.71875C0.323437 15.7143 0 16.0357 0 16.4286V17.8571C0 18.25 0.323437 18.5714 0.71875 18.5714H4.3125V19.2857C4.3125 19.6786 4.63594 20 5.03125 20H6.46875C6.86406 20 7.1875 19.6786 7.1875 19.2857V18.5714H22.2812C22.6766 18.5714 23 18.25 23 17.8571V16.4286C23 16.0357 22.6766 15.7143 22.2812 15.7143ZM22.2812 8.57143H18.6875V7.85714C18.6875 7.46429 18.3641 7.14286 17.9688 7.14286H16.5312C16.1359 7.14286 15.8125 7.46429 15.8125 7.85714V8.57143H0.71875C0.323437 8.57143 0 8.89286 0 9.28571V10.7143C0 11.1071 0.323437 11.4286 0.71875 11.4286H15.8125V12.1429C15.8125 12.5357 16.1359 12.8571 16.5312 12.8571H17.9688C18.3641 12.8571 18.6875 12.5357 18.6875 12.1429V11.4286H22.2812C22.6766 11.4286 23 11.1071 23 10.7143V9.28571C23 8.89286 22.6766 8.57143 22.2812 8.57143ZM22.2812 1.42857H12.9375V0.714286C12.9375 0.321429 12.6141 0 12.2188 0H10.7812C10.3859 0 10.0625 0.321429 10.0625 0.714286V1.42857H0.71875C0.323437 1.42857 0 1.75 0 2.14286V3.57143C0 3.96429 0.323437 4.28571 0.71875 4.28571H10.0625V5C10.0625 5.39286 10.3859 5.71429 10.7812 5.71429H12.2188C12.6141 5.71429 12.9375 5.39286 12.9375 5V4.28571H22.2812C22.6766 4.28571 23 3.96429 23 3.57143V2.14286C23 1.75 22.6766 1.42857 22.2812 1.42857Z" fill="#808082"/>
</svg>
