<svg width="25" height="20" viewBox="0 0 25 20" fill="none" xmlns="http://www.w3.org/2000/svg">
<path d="M4.6875 2.30769C4.6875 3.58221 3.63818 4.61538 2.34375 4.61538C1.04932 4.61538 0 3.58221 0 2.30769C0 1.03317 1.04932 0 2.34375 0C3.63818 0 4.6875 1.03317 4.6875 2.30769ZM2.34375 7.69231C1.04932 7.69231 0 8.72548 0 10C0 11.2745 1.04932 12.3077 2.34375 12.3077C3.63818 12.3077 4.6875 11.2745 4.6875 10C4.6875 8.72548 3.63818 7.69231 2.34375 7.69231ZM2.34375 15.3846C1.04932 15.3846 0 16.4178 0 17.6923C0 18.9668 1.04932 20 2.34375 20C3.63818 20 4.6875 18.9668 4.6875 17.6923C4.6875 16.4178 3.63818 15.3846 2.34375 15.3846ZM7.03125 4.03846H24.2188C24.6502 4.03846 25 3.69409 25 3.26923V1.34615C25 0.921298 24.6502 0.576923 24.2188 0.576923H7.03125C6.59976 0.576923 6.25 0.921298 6.25 1.34615V3.26923C6.25 3.69409 6.59976 4.03846 7.03125 4.03846ZM7.03125 11.7308H24.2188C24.6502 11.7308 25 11.3864 25 10.9615V9.03846C25 8.61361 24.6502 8.26923 24.2188 8.26923H7.03125C6.59976 8.26923 6.25 8.61361 6.25 9.03846V10.9615C6.25 11.3864 6.59976 11.7308 7.03125 11.7308ZM7.03125 19.4231H24.2188C24.6502 19.4231 25 19.0787 25 18.6538V16.7308C25 16.3059 24.6502 15.9615 24.2188 15.9615H7.03125C6.59976 15.9615 6.25 16.3059 6.25 16.7308V18.6538C6.25 19.0787 6.59976 19.4231 7.03125 19.4231Z" fill="#293072"/>
</svg>
