<svg width="67" height="67" viewBox="0 0 67 67" fill="none" xmlns="http://www.w3.org/2000/svg">
<path opacity="0.7" d="M33.3106 45.0558C30.6333 45.0278 28.9678 43.7611 28.9678 25.8526C28.9678 7.29062 29.5628 12.9481 34.6986 12.2423C37.3481 11.8785 38.4412 18.295 38.3409 27.8338C38.2397 37.3734 35.988 45.0837 33.3106 45.0558Z" fill="url(#paint0_radial_24_4144)"/>
<path d="M46.8426 36.3641C45.4764 34.9979 43.2614 34.9979 41.8961 36.3641L39.2841 38.976C38.8837 39.3765 38.1997 39.0929 38.1997 38.5267V18.0979C38.1997 16.1655 36.6338 14.5995 34.7023 14.5995C32.7699 14.5995 31.204 16.1655 31.204 18.0979L31.204 38.5259C31.204 39.0921 30.52 39.3747 30.1196 38.9752L27.5077 36.3632C26.1415 34.997 23.9265 34.997 22.5612 36.3632C21.195 37.7294 21.195 39.9444 22.5612 41.3106L32.6775 51.426C33.795 52.5444 35.6087 52.5444 36.7263 51.426L46.8426 41.3106C48.2087 39.9444 48.2087 37.7302 46.8426 36.3641Z" fill="#F28500"/>
<path d="M46.3304 35.852C44.9642 34.4858 42.7492 34.4858 41.3839 35.852L38.7719 38.4639C38.3715 38.8644 37.6875 38.5808 37.6875 38.0146V17.5857C37.6875 15.6534 36.1216 14.0874 34.1901 14.0874C32.2577 14.0874 30.6918 15.6534 30.6918 17.5857L30.6918 38.0146C30.6918 38.5808 30.0078 38.8635 29.6074 38.4639L26.9954 35.852C25.6293 34.4858 23.4143 34.4858 22.049 35.852C20.6828 37.2181 20.6828 39.4332 22.049 40.7993L32.1653 50.9148C33.2828 52.0332 35.0965 52.0332 36.214 50.9148L46.3304 40.7993C47.6965 39.4332 47.6965 37.2181 46.3304 35.852Z" fill="url(#paint1_linear_24_4144)"/>
<defs>
<radialGradient id="paint0_radial_24_4144" cx="0" cy="0" r="1" gradientUnits="userSpaceOnUse" gradientTransform="translate(33.6184 28.5196) rotate(90.6034) scale(16.6586 4.67574)">
<stop stop-color="#23354A"/>
<stop offset="0.1826" stop-color="#2A415C" stop-opacity="0.8174"/>
<stop offset="0.5486" stop-color="#3D618B" stop-opacity="0.4514"/>
<stop offset="1" stop-color="#588DCC" stop-opacity="0"/>
</radialGradient>
<linearGradient id="paint1_linear_24_4144" x1="47.3554" y1="32.9202" x2="21.0248" y2="32.9202" gradientUnits="userSpaceOnUse">
<stop stop-color="#FBCF0A"/>
<stop offset="1" stop-color="#FBA505"/>
</linearGradient>
</defs>
</svg>
