<svg xmlns="http://www.w3.org/2000/svg" fill="none" viewBox="348.44 179.87 540.31 463.48">
<path d="M433.619 180.26L348.787 198.602L373.864 314.79L458.696 296.448L433.619 180.26Z" fill="white"/>
<path d="M458.664 296.47L458.526 295.903C458.435 295.52 458.312 294.968 458.159 294.264C457.822 292.732 457.348 290.679 456.736 287.936C455.526 282.375 453.751 274.302 451.501 264.083C447.046 243.646 440.786 214.661 433.255 180.359L433.684 180.635L348.87 199.019L349.176 198.544C358.513 241.946 367.161 282.13 374.171 314.746L373.789 314.486L435.429 301.341L452.587 297.711L457.179 296.776L458.71 296.47C458.71 296.47 458.22 296.608 457.179 296.837L452.725 297.833L435.674 301.602L373.911 315.129H373.59V314.823C366.533 282.207 357.839 242.038 348.441 198.651V198.253H348.824L433.653 179.869H434.005L434.082 180.222C441.429 214.661 447.643 243.754 452.021 264.252C454.179 274.455 455.894 282.513 457.057 288.059C457.639 290.786 458.067 292.9 458.373 294.34L458.695 295.949C458.693 296.123 458.683 296.297 458.664 296.47Z" fill="#263238"/>
<path d="M405.627 210.754C405.627 210.984 396.443 213.144 385.101 215.611C373.758 218.077 364.452 219.885 364.406 219.671C364.36 219.456 373.59 217.296 384.932 214.83C396.274 212.363 405.627 210.54 405.627 210.754Z" fill="#263238"/>
<path d="M430.117 216.039C430.117 216.254 415.974 219.502 398.448 223.286C380.922 227.07 366.641 229.981 366.595 229.766C366.549 229.552 380.738 226.304 398.279 222.52C415.821 218.736 430.117 215.825 430.117 216.039Z" fill="#263238"/>
<path d="M432.429 226.564C432.429 226.779 418.301 230.027 400.759 233.826C383.218 237.625 368.967 240.46 368.891 240.306C368.814 240.153 383.019 236.844 400.56 233.045C418.102 229.245 432.383 226.35 432.429 226.564Z" fill="#263238"/>
<path d="M434.709 237.105C434.709 237.319 420.566 240.567 403.04 244.351C385.514 248.135 371.233 251.046 371.187 250.832C371.141 250.617 385.315 247.369 402.871 243.585C420.428 239.801 434.709 236.89 434.709 237.105Z" fill="#263238"/>
<path d="M436.975 247.629C436.975 247.844 422.847 251.092 405.305 254.891C387.764 258.69 373.483 261.586 373.483 261.371C373.483 261.157 387.611 257.909 405.152 254.11C422.694 250.31 436.929 247.415 436.975 247.629Z" fill="#263238"/>
<path d="M439.301 258.169C439.301 258.384 425.158 261.632 407.632 265.416C390.106 269.2 375.825 272.111 375.779 271.896C375.733 271.682 389.907 268.434 407.463 264.634C425.02 260.835 439.209 257.955 439.301 258.169Z" fill="#263238"/>
<path d="M441.521 268.694C441.521 268.909 427.393 272.157 409.851 275.956C392.31 279.755 378.075 282.651 378.075 282.436C378.075 282.222 392.203 278.974 409.744 275.175C427.286 271.375 441.475 268.48 441.521 268.694Z" fill="#263238"/>
<path d="M414.428 285.577C414.428 285.792 406.866 287.63 397.438 289.668C388.009 291.705 380.325 293.176 380.279 292.961C380.233 292.747 387.84 290.924 397.269 288.886C406.698 286.849 414.382 285.363 414.428 285.577Z" fill="#263238"/>
<path d="M830.494 477.69L852.199 533.47L861.26 518.839L873.796 535.324L888.751 521.091L874.5 507.334L887.649 498.433L830.494 477.69Z" fill="#FBB206"/>
<path d="M822.32 485.932C819.838 487.98 817.191 489.82 814.407 491.432C811.766 493.267 808.975 494.876 806.064 496.242C808.553 494.207 811.199 492.373 813.978 490.758C816.621 488.922 819.411 487.308 822.32 485.932V485.932Z" fill="white"/>
<path d="M824.004 474.687C822.807 474.527 821.634 474.218 820.514 473.768C818.402 473.094 815.493 472.067 812.355 470.704C809.218 469.34 806.401 468.176 804.396 467.226C803.276 466.784 802.208 466.218 801.212 465.541C802.385 465.802 803.524 466.192 804.61 466.705L812.646 469.968L820.713 473.17C821.861 473.556 822.965 474.065 824.004 474.687V474.687Z" fill="white"/>
<path d="M830.555 449.363C830.953 450.345 831.221 451.376 831.351 452.427C831.719 454.342 832.162 457.023 832.53 459.98C832.897 462.937 833.142 465.648 833.249 467.64C833.39 468.698 833.39 469.769 833.249 470.827C832.556 467.281 832.045 463.701 831.719 460.103C831.14 456.546 830.752 452.961 830.555 449.363V449.363Z" fill="white"/>
<path d="M860.602 461.849C860.694 462.064 856.683 463.795 852.153 466.706C847.622 469.616 844.04 472.144 843.902 471.945C843.765 471.746 844.652 471.118 846.061 470.03C847.879 468.602 849.77 467.267 851.724 466.031C854.429 464.15 857.43 462.736 860.602 461.849V461.849Z" fill="white"/>
<path d="M751.176 577.056C750.992 577.163 731.767 547.412 708.241 510.582C684.714 473.753 665.78 443.787 665.964 443.68C666.147 443.573 685.357 473.355 708.838 510.123C732.318 546.891 751.283 576.933 751.176 577.056Z" fill="white"/>
<path d="M759.838 642.013C784.481 642.013 804.457 622.019 804.457 597.355C804.457 572.691 784.481 552.697 759.838 552.697C735.196 552.697 715.219 572.691 715.219 597.355C715.219 622.019 735.196 642.013 759.838 642.013Z" fill="white"/>
<path d="M715.219 597.416C715.219 597.416 715.219 597.171 715.219 596.696C715.219 596.221 715.219 595.471 715.296 594.567C715.296 594.092 715.296 593.571 715.296 593.035C715.296 592.498 715.449 591.84 715.541 591.166C715.723 589.615 716.015 588.079 716.413 586.57C717.412 582.35 719.054 578.309 721.281 574.589C724.512 569.065 728.884 564.295 734.105 560.599C739.327 556.903 745.277 554.366 751.557 553.157C753.433 552.806 755.33 552.581 757.236 552.483C758.2 552.483 759.18 552.345 760.16 552.36L763.144 552.513C764.172 552.542 765.195 552.65 766.206 552.835C767.201 552.988 768.226 553.111 769.267 553.31C773.387 554.246 777.372 555.697 781.13 557.63C782.079 558.151 782.997 558.749 783.946 559.3C784.893 559.858 785.798 560.482 786.655 561.169C790.338 563.803 793.556 567.034 796.176 570.729C798.985 574.481 801.162 578.667 802.62 583.123C805.712 592.348 805.712 602.331 802.62 611.557C801.153 616.017 798.977 620.213 796.176 623.981C794.818 625.813 793.34 627.553 791.753 629.19C790.15 630.751 788.442 632.199 786.64 633.525C785.783 634.212 784.877 634.837 783.931 635.394C782.982 635.961 782.063 636.559 781.114 637.064C779.222 638.057 777.263 638.917 775.252 639.638C773.287 640.351 771.277 640.934 769.236 641.385C768.241 641.599 767.216 641.706 766.175 641.875C765.164 642.06 764.141 642.167 763.114 642.197L760.129 642.334C759.149 642.334 758.17 642.258 757.205 642.212C755.294 642.12 753.391 641.895 751.511 641.538C745.261 640.334 739.336 637.817 734.13 634.151C728.924 630.485 724.555 625.755 721.311 620.274C719.089 616.551 717.448 612.511 716.444 608.293C716.048 606.783 715.756 605.248 715.571 603.697C715.479 603.008 715.372 602.395 715.326 601.813C715.28 601.231 715.326 600.725 715.326 600.281C715.326 599.377 715.326 598.672 715.25 598.152C715.173 597.631 715.25 597.432 715.25 597.432C715.25 597.432 715.25 597.677 715.326 598.152C715.403 598.626 715.403 599.362 715.464 600.266L715.571 601.798C715.571 602.365 715.755 602.993 715.847 603.667C716.059 605.218 716.376 606.754 716.796 608.263C717.836 612.433 719.503 616.421 721.74 620.09C724.981 625.48 729.323 630.125 734.483 633.718C739.643 637.311 745.503 639.773 751.68 640.94C753.531 641.28 755.402 641.495 757.282 641.584C758.246 641.584 759.195 641.706 760.175 641.691L763.098 641.538C764.09 641.507 765.078 641.4 766.053 641.216C767.048 641.048 768.043 640.94 769.037 640.726C771.036 640.273 773.004 639.695 774.93 638.995C776.909 638.278 778.837 637.428 780.701 636.452C781.635 635.946 782.538 635.348 783.456 634.797C784.392 634.25 785.288 633.635 786.135 632.959C787.902 631.653 789.574 630.225 791.14 628.684C792.706 627.077 794.159 625.362 795.487 623.552C798.241 619.835 800.376 615.696 801.809 611.296C804.839 602.234 804.839 592.43 801.809 583.368C800.376 578.968 798.241 574.829 795.487 571.112C794.164 569.302 792.717 567.588 791.156 565.98C789.582 564.447 787.91 563.02 786.15 561.705C785.303 561.029 784.408 560.414 783.472 559.867C782.553 559.315 781.65 558.733 780.716 558.212C778.855 557.235 776.927 556.39 774.946 555.685C773.022 554.972 771.054 554.389 769.053 553.938C768.058 553.739 767.063 553.616 766.068 553.463C765.093 553.274 764.106 553.162 763.114 553.126L760.19 552.973C759.226 552.973 758.262 553.065 757.297 553.095C755.422 553.176 753.555 553.391 751.71 553.739C745.526 554.892 739.658 557.347 734.493 560.941C729.329 564.536 724.987 569.188 721.755 574.589C719.516 578.257 717.849 582.245 716.811 586.416C716.388 587.925 716.071 589.46 715.862 591.012C715.77 591.687 715.648 592.299 715.587 592.881C715.525 593.464 715.51 593.969 715.479 594.413C715.479 595.317 715.372 595.945 715.342 596.543C715.311 597.14 715.219 597.416 715.219 597.416Z" fill="#263238"/>
<path d="M747.669 580.947L741.562 615.877L759.838 613.364L778.114 615.877L770.752 580.947H747.669Z" fill="#FBB206"/>
<path d="M767.553 581.407C767.415 581.407 767.048 580.15 766.022 578.343C765.473 577.271 764.731 576.31 763.833 575.508C763.289 575.078 762.686 574.727 762.042 574.467C761.338 574.224 760.598 574.1 759.854 574.099C758.399 574.028 756.955 574.373 755.69 575.095C754.703 575.767 753.915 576.693 753.409 577.776C752.491 579.645 752.185 580.947 752.047 580.916C752.093 579.74 752.385 578.587 752.904 577.531C753.385 576.298 754.215 575.233 755.292 574.467C756.666 573.611 758.269 573.199 759.884 573.287C760.72 573.292 761.549 573.443 762.333 573.731C763.059 574.021 763.732 574.43 764.323 574.942C765.269 575.826 766.024 576.895 766.543 578.082C767.098 579.111 767.442 580.242 767.553 581.407V581.407Z" fill="#FBB206"/>
<path d="M581.41 580.043C581.18 580.043 581.012 549.296 581.012 511.364C581.012 473.431 581.18 442.684 581.41 442.684C581.639 442.684 581.808 473.416 581.808 511.364C581.808 549.311 581.624 580.043 581.41 580.043Z" fill="white"/>
<path d="M580.873 643.008C605.515 643.008 625.492 623.014 625.492 598.351C625.492 573.687 605.515 553.693 580.873 553.693C556.23 553.693 536.254 573.687 536.254 598.351C536.254 623.014 556.23 643.008 580.873 643.008Z" fill="white"/>
<path d="M536.254 598.351C536.254 598.351 536.254 598.106 536.254 597.631C536.254 597.156 536.254 596.405 536.254 595.501C536.254 595.026 536.254 594.505 536.254 593.969C536.254 593.433 536.422 592.774 536.514 592.1C536.683 590.547 536.975 589.011 537.386 587.504C538.384 583.284 540.025 579.243 542.254 575.524C545.488 570.033 549.855 565.295 555.062 561.626C560.27 557.957 566.198 555.44 572.454 554.244C574.33 553.895 576.227 553.669 578.133 553.57C579.112 553.57 580.092 553.448 581.072 553.448L584.041 553.601C585.068 553.628 586.092 553.736 587.102 553.923C588.113 554.076 589.123 554.198 590.164 554.398C592.208 554.817 594.223 555.369 596.195 556.052C598.21 556.77 600.173 557.625 602.072 558.611C603.021 559.132 603.94 559.729 604.874 560.281C605.849 560.85 606.784 561.485 607.675 562.18C609.466 563.519 611.174 564.967 612.787 566.516C614.37 568.158 615.843 569.903 617.195 571.74C619.993 575.505 622.169 579.694 623.639 584.149C626.741 593.373 626.741 603.359 623.639 612.583C622.181 617.043 620.004 621.235 617.195 624.992C615.847 626.827 614.374 628.568 612.787 630.201C611.178 631.755 609.47 633.203 607.675 634.537C606.812 635.224 605.901 635.848 604.95 636.406C604.016 636.972 603.098 637.57 602.149 638.075C600.25 639.066 598.286 639.926 596.271 640.649C594.311 641.362 592.307 641.945 590.271 642.396C589.261 642.61 588.25 642.717 587.21 642.886C586.199 643.073 585.176 643.18 584.148 643.208L581.179 643.346C580.184 643.346 579.219 643.269 578.24 643.223C576.333 643.132 574.436 642.907 572.561 642.549C566.308 641.351 560.382 638.836 555.175 635.169C549.968 631.503 545.6 626.77 542.361 621.285C540.133 617.566 538.491 613.525 537.493 609.305C537.083 607.798 536.791 606.261 536.621 604.709C536.529 604.019 536.422 603.406 536.361 602.824C536.3 602.242 536.361 601.736 536.361 601.292C536.361 600.388 536.361 599.684 536.361 599.163C536.361 598.642 536.361 598.443 536.361 598.443C536.399 598.681 536.425 598.921 536.437 599.163C536.437 599.668 536.529 600.373 536.59 601.277C536.59 601.747 536.621 602.257 536.682 602.809C536.682 603.376 536.866 604.004 536.973 604.678C537.18 606.229 537.492 607.765 537.907 609.274C538.96 613.442 540.632 617.429 542.866 621.101C546.107 626.46 550.437 631.076 555.577 634.65C560.717 638.224 566.551 640.675 572.699 641.844C574.55 642.184 576.421 642.399 578.301 642.488C579.25 642.488 580.214 642.61 581.179 642.595L584.118 642.442C585.109 642.41 586.097 642.302 587.072 642.12C588.051 641.951 589.062 641.844 590.041 641.63C592.047 641.184 594.021 640.606 595.95 639.899C597.928 639.181 599.856 638.332 601.72 637.355C602.654 636.85 603.542 636.252 604.476 635.716C605.403 635.158 606.293 634.539 607.139 633.862C608.907 632.558 610.584 631.135 612.159 629.604C613.717 627.986 615.164 626.267 616.491 624.456C619.248 620.74 621.383 616.601 622.813 612.2C625.853 603.139 625.853 593.332 622.813 584.272C621.38 579.872 619.245 575.733 616.491 572.016C615.16 570.213 613.713 568.499 612.159 566.883C610.58 565.351 608.903 563.923 607.139 562.609C606.297 561.933 605.407 561.318 604.476 560.771C603.542 560.219 602.654 559.637 601.72 559.132C599.862 558.142 597.933 557.292 595.95 556.588C594.021 555.876 592.047 555.292 590.041 554.842C589.062 554.643 588.051 554.52 587.072 554.367C586.098 554.177 585.11 554.069 584.118 554.045L581.194 553.892C580.214 553.892 579.25 553.969 578.301 553.999C576.421 554.081 574.549 554.296 572.699 554.643C566.522 555.81 560.662 558.272 555.502 561.865C550.342 565.458 546 570.103 542.759 575.493C540.523 579.165 538.851 583.151 537.8 587.32C537.382 588.829 537.07 590.364 536.866 591.916C536.759 592.59 536.636 593.203 536.575 593.785C536.514 594.368 536.575 594.873 536.483 595.317C536.483 596.221 536.376 596.926 536.33 597.447C536.325 597.749 536.3 598.051 536.254 598.351V598.351Z" fill="#263238"/>
<path d="M580.873 578.343L561.525 595.945V618.267H576.587V604.892H586.184V618.267H600.236V595.945L580.873 578.343Z" fill="#FBB206"/>
<path d="M408.689 578.603C408.506 578.496 427.715 548.086 451.548 510.72C475.38 473.355 494.942 443.129 495.126 443.312C495.31 443.496 476.1 473.814 452.267 511.211C428.435 548.607 408.873 578.726 408.689 578.603Z" fill="white"/>
<path d="M401.846 642.442C426.488 642.442 446.465 622.448 446.465 597.784C446.465 573.12 426.488 553.126 401.846 553.126C377.204 553.126 357.227 573.12 357.227 597.784C357.227 622.448 377.204 642.442 401.846 642.442Z" fill="white"/>
<path d="M446.465 597.784C446.426 597.545 446.401 597.305 446.388 597.064C446.388 596.543 446.297 595.838 446.235 594.934C446.235 594.475 446.235 593.954 446.144 593.402C446.052 592.851 445.96 592.207 445.853 591.533C445.656 589.98 445.344 588.444 444.919 586.937C443.875 582.766 442.203 578.778 439.96 575.11C436.719 569.719 432.376 565.075 427.216 561.482C422.057 557.888 416.196 555.427 410.02 554.26C408.17 553.912 406.298 553.697 404.418 553.616C403.469 553.616 402.504 553.494 401.54 553.509L398.601 553.662C397.609 553.687 396.621 553.794 395.647 553.984C394.667 554.137 393.657 554.26 392.677 554.459C390.671 554.909 388.698 555.493 386.769 556.205C384.788 556.915 382.859 557.765 380.998 558.748C380.065 559.254 379.177 559.836 378.243 560.388C377.314 560.939 376.424 561.553 375.58 562.226C373.819 563.544 372.142 564.972 370.559 566.5C369.006 568.115 367.559 569.83 366.227 571.632C363.473 575.35 361.339 579.489 359.906 583.888C356.865 592.949 356.865 602.756 359.906 611.817C361.336 616.218 363.471 620.357 366.227 624.073C367.555 625.883 369.002 627.603 370.559 629.22C372.135 630.752 373.812 632.175 375.58 633.479C376.422 634.161 377.312 634.78 378.243 635.333C379.177 635.869 380.065 636.467 380.998 636.972C382.865 637.943 384.793 638.793 386.769 639.515C388.696 640.23 390.67 640.808 392.677 641.247C393.657 641.461 394.667 641.568 395.647 641.737C396.622 641.919 397.61 642.026 398.601 642.059L401.54 642.212C402.504 642.212 403.469 642.212 404.418 642.104C406.297 642.017 408.169 641.802 410.02 641.461C416.199 640.3 422.062 637.841 427.222 634.247C432.383 630.653 436.724 626.006 439.96 620.611C442.2 616.942 443.873 612.954 444.919 608.783C445.342 607.276 445.654 605.74 445.853 604.187C445.96 603.513 446.082 602.885 446.144 602.318L446.235 600.786C446.235 599.883 446.358 599.254 446.388 598.672C446.401 598.431 446.426 598.191 446.465 597.952C446.465 597.952 446.465 598.197 446.465 598.672C446.465 599.147 446.465 599.898 446.465 600.802C446.465 601.277 446.465 601.798 446.465 602.334C446.465 602.87 446.297 603.544 446.205 604.218C446.033 605.769 445.746 607.305 445.348 608.814C444.344 613.035 442.697 617.076 440.465 620.794C437.211 626.268 432.832 630.986 427.617 634.637C422.402 638.287 416.472 640.785 410.219 641.967C408.344 642.325 406.446 642.55 404.54 642.641C403.576 642.641 402.596 642.779 401.601 642.763L398.632 642.625C397.604 642.598 396.581 642.49 395.57 642.304C394.56 642.135 393.55 642.028 392.509 641.813C390.473 641.363 388.469 640.78 386.509 640.067C384.493 639.343 382.53 638.483 380.631 637.493C379.682 636.988 378.764 636.39 377.83 635.823C376.878 635.266 375.968 634.641 375.105 633.954C373.31 632.62 371.602 631.172 369.993 629.619C368.406 627.985 366.933 626.245 365.585 624.41C362.787 620.645 360.611 616.455 359.14 612.001C356.038 602.777 356.038 592.79 359.14 583.567C360.611 579.112 362.787 574.922 365.585 571.157C366.942 569.32 368.42 567.575 370.008 565.933C371.613 564.381 373.315 562.933 375.105 561.598C375.972 560.916 376.882 560.292 377.83 559.729C378.779 559.177 379.682 558.58 380.631 558.059C382.53 557.073 384.494 556.219 386.509 555.5C388.466 554.781 390.471 554.197 392.509 553.754C393.519 553.54 394.529 553.417 395.57 553.264C396.581 553.077 397.604 552.969 398.632 552.942L401.601 552.789C402.596 552.789 403.56 552.881 404.54 552.911C406.446 553.01 408.343 553.235 410.219 553.585C416.474 554.781 422.403 557.298 427.611 560.967C432.818 564.636 437.185 569.374 440.419 574.865C442.651 578.584 444.298 582.625 445.302 586.845C445.702 588.354 445.988 589.89 446.159 591.441C446.251 592.115 446.373 592.743 446.419 593.31C446.465 593.877 446.419 594.413 446.419 594.842C446.419 595.746 446.419 596.451 446.419 596.972C446.419 597.493 446.465 597.784 446.465 597.784Z" fill="#263238"/>
<path d="M419.112 574.528H384.075V621.024H419.112V574.528Z" fill="#FBB206"/>
<path d="M403.285 581.958C399.471 582.489 395.603 582.489 391.79 581.958C395.603 581.427 399.471 581.427 403.285 581.958V581.958Z" fill="#455A64"/>
<path d="M413.433 588.5C409.61 588.894 405.764 589.027 401.923 588.898C398.086 589.027 394.246 588.894 390.427 588.5C394.246 588.105 398.086 587.972 401.923 588.101C405.764 587.973 409.61 588.106 413.433 588.5Z" fill="#455A64"/>
<path d="M413.433 592.483C409.61 592.877 405.764 593.01 401.923 592.881C398.086 593.011 394.246 592.877 390.427 592.483C394.244 592.069 398.086 591.931 401.923 592.069C405.764 591.931 409.611 592.07 413.433 592.483V592.483Z" fill="#455A64"/>
<path d="M413.433 596.451C409.61 596.845 405.764 596.978 401.923 596.849C398.086 596.978 394.246 596.845 390.427 596.451C394.246 596.057 398.086 595.923 401.923 596.053C405.764 595.924 409.61 596.057 413.433 596.451Z" fill="#455A64"/>
<path d="M413.433 600.48C409.61 600.874 405.764 601.007 401.923 600.879C398.086 601.008 394.246 600.875 390.427 600.48C394.244 600.066 398.086 599.928 401.923 600.067C405.764 599.929 409.611 600.067 413.433 600.48V600.48Z" fill="#455A64"/>
<path d="M413.433 604.402C409.61 604.796 405.764 604.929 401.923 604.801C398.086 604.93 394.246 604.797 390.427 604.402C394.246 604.008 398.086 603.875 401.923 604.004C405.764 603.875 409.61 604.008 413.433 604.402V604.402Z" fill="#455A64"/>
<path d="M413.433 608.37C409.611 608.783 405.764 608.921 401.923 608.783C398.086 608.922 394.244 608.783 390.427 608.37C394.246 607.975 398.086 607.842 401.923 607.972C405.764 607.843 409.61 607.976 413.433 608.37V608.37Z" fill="#455A64"/>
<path d="M413.433 612.353C409.61 612.747 405.764 612.88 401.923 612.751C398.086 612.88 394.246 612.747 390.427 612.353C394.246 611.959 398.086 611.826 401.923 611.955C405.764 611.826 409.61 611.959 413.433 612.353V612.353Z" fill="#455A64"/>
<path d="M787.038 367.463H392.019C371.908 367.463 355.604 383.78 355.604 403.909V407.908C355.604 428.036 371.908 444.354 392.019 444.354H787.038C807.149 444.354 823.453 428.036 823.453 407.908V403.909C823.453 383.78 807.149 367.463 787.038 367.463Z" fill="white"/>
<path d="M719.796 366.773V444.354H785.232C795.512 444.354 805.372 440.268 812.642 432.993C819.913 425.719 824 415.853 824.004 405.564V405.564C824.004 400.468 823.001 395.423 821.052 390.716C819.103 386.009 816.247 381.732 812.647 378.129C809.046 374.527 804.772 371.67 800.068 369.722C795.364 367.773 790.323 366.771 785.232 366.773H719.796Z" fill="#FBB206"/>
<path d="M780.64 403.404C780.495 402.075 780.275 400.755 779.982 399.451C779.035 395.92 776.933 392.808 774.012 390.611C771.871 388.996 769.358 387.944 766.705 387.553C764.052 387.163 761.344 387.445 758.828 388.375C757.369 388.901 756.001 389.65 754.772 390.596C753.478 391.551 752.337 392.698 751.389 393.997C749.379 396.738 748.296 400.05 748.296 403.45C748.296 406.85 749.379 410.161 751.389 412.902C752.325 414.212 753.467 415.36 754.772 416.303C755.999 417.236 757.362 417.975 758.813 418.494C760.922 419.258 763.167 419.575 765.405 419.425C767.643 419.275 769.826 418.662 771.815 417.623C773.803 416.585 775.555 415.144 776.958 413.393C778.361 411.641 779.386 409.617 779.966 407.448C780.261 406.139 780.48 404.814 780.625 403.48C780.718 404.839 780.594 406.205 780.257 407.525C779.398 411.18 777.306 414.426 774.334 416.717C772.129 418.429 769.526 419.554 766.77 419.988C764.013 420.422 761.191 420.15 758.568 419.199C757.039 418.671 755.603 417.905 754.312 416.931C752.949 415.942 751.75 414.742 750.761 413.377C748.643 410.507 747.5 407.033 747.5 403.465C747.5 399.897 748.643 396.423 750.761 393.553C752.727 390.879 755.445 388.852 758.568 387.731C761.379 386.727 764.407 386.494 767.338 387.057C770.454 387.658 773.329 389.145 775.621 391.341C777.912 393.536 779.522 396.347 780.257 399.436C780.592 400.73 780.721 402.069 780.64 403.404Z" fill="white"/>
<path d="M795.824 426.322C792.545 424.447 789.395 422.353 786.395 420.057C783.247 417.961 780.25 415.647 777.426 413.132C780.709 415.001 783.859 417.094 786.854 419.398C790.002 421.493 793 423.807 795.824 426.322Z" fill="white"/>
<path d="M686.091 398.7H400.086V415.154H686.091V398.7Z" fill="#EBEBEB"/>
<path d="M787.038 444.354C787.038 444.354 787.941 444.354 789.686 444.185C790.771 444.12 791.85 443.982 792.916 443.772C794.401 443.54 795.869 443.207 797.309 442.776C801.338 441.551 805.128 439.644 808.513 437.138L810.044 436.005C810.534 435.576 811.008 435.116 811.498 434.672C812.532 433.746 813.504 432.753 814.407 431.7C815.401 430.658 816.182 429.386 817.131 428.176L818.325 426.2L818.937 425.173L819.458 424.086C820.993 421.031 822.076 417.77 822.672 414.403C822.795 413.515 822.932 412.611 823.07 411.707C823.208 410.803 823.177 409.853 823.223 408.919C823.223 407.05 823.223 405.089 823.223 403.128C823.004 393.864 819.248 385.035 812.725 378.459C806.202 371.882 797.41 368.057 788.156 367.769C777.716 367.677 766.634 367.769 755.032 367.769L392.034 367.892C383.235 367.925 374.749 371.159 368.156 376.992C361.632 382.739 357.426 390.67 356.324 399.298C356.175 400.354 356.088 401.418 356.064 402.484C356.064 403.541 355.987 404.614 356.064 405.686C356.037 407.819 356.119 409.951 356.309 412.075C356.776 416.286 358.005 420.377 359.936 424.147C363.738 431.661 370.031 437.618 377.738 440.999C381.529 442.617 385.565 443.586 389.677 443.864C391.713 444.002 393.779 443.986 395.8 443.986H473.496L636.696 444.078L746.705 444.201L776.63 444.277H784.405H787.054H784.405H776.63L746.705 444.354L636.696 444.477L473.496 444.568H395.785C393.718 444.568 391.667 444.568 389.57 444.446C383.185 444.044 377.016 441.972 371.682 438.437C366.347 434.902 362.033 430.027 359.171 424.3C357.198 420.448 355.943 416.269 355.467 411.967C355.265 409.813 355.179 407.65 355.207 405.487C355.207 404.415 355.207 403.342 355.283 402.255C355.301 401.162 355.388 400.073 355.543 398.991C356.662 390.175 360.956 382.069 367.62 376.195C374.383 370.219 383.089 366.913 392.111 366.896L755.109 367.019C766.726 367.019 777.778 367.019 788.247 367.095C797.616 367.395 806.513 371.28 813.105 377.949C819.698 384.619 823.483 393.564 823.682 402.944C823.682 404.936 823.682 406.866 823.682 408.766C823.682 409.715 823.575 410.65 823.514 411.569C823.453 412.488 823.238 413.408 823.101 414.296C822.492 417.692 821.388 420.98 819.825 424.055L819.305 425.158L818.677 426.169C818.264 426.858 817.866 427.517 817.453 428.176C816.595 429.397 815.675 430.573 814.697 431.7C813.797 432.766 812.82 433.764 811.774 434.687C811.269 435.147 810.779 435.606 810.243 436.02L808.712 437.169C805.297 439.67 801.475 441.562 797.416 442.761C795.965 443.183 794.487 443.506 792.993 443.726C791.921 443.925 790.836 444.048 789.748 444.094C787.941 444.339 787.038 444.354 787.038 444.354Z" fill="#263238"/>
<path d="M584.332 396.556C582.939 394.932 582.801 393.492 585.939 393.277C592.842 392.649 597.924 389.631 598.736 387.885C599.547 386.138 597.343 384.438 595.475 385.479C593.33 386.411 591.07 387.05 588.756 387.379C586.896 387.694 584.997 387.694 583.138 387.379C581.531 387.134 580.077 386.858 578.852 386.598C578.852 386.598 571.551 385.066 568.398 382.553L552.938 399.083L560.193 407.28C561.279 408.809 562.739 410.034 564.432 410.839C566.126 411.643 567.997 412 569.867 411.876C576.082 411.263 584.454 406.805 584.454 406.805C585.587 405.058 595.598 411.248 598.827 413.561C602.057 415.874 604.43 415.292 604.307 413.071C604.231 411.539 594.526 404.216 591.281 401.994C588.772 400.426 586.441 398.586 584.332 396.51" fill="#FFBE9D"/>
<path d="M575.255 410.91C575.255 411.018 574.811 411.201 574 411.186C572.957 411.119 571.957 410.746 571.124 410.114C570.291 409.482 569.662 408.619 569.316 407.632C569.071 406.881 569.148 406.376 569.24 406.36C569.83 407.523 570.635 408.562 571.612 409.424C572.718 410.152 573.956 410.657 575.255 410.91Z" fill="#EB996E"/>
<path d="M581.378 408.505C581.378 408.597 580.934 408.766 580.169 408.72C579.173 408.622 578.226 408.243 577.438 407.627C576.649 407.012 576.052 406.184 575.714 405.242C575.485 404.522 575.531 404.047 575.623 404.032C575.714 404.017 576.266 405.732 577.934 407.004C578.997 407.681 580.159 408.187 581.378 408.505V408.505Z" fill="#EB996E"/>
<path d="M598.047 236.523C598.69 250.096 615.236 268.695 627.543 271.759C634.002 273.291 641.441 272.602 646.569 276.952C655.37 284.413 650.227 299.932 656.151 309.89C659.794 316.018 667.034 319.082 671.136 324.889C677.948 334.602 673.371 349.278 664.08 356.509C654.789 363.74 642.39 365.119 630.742 364.813C605.103 364.154 578.852 356.004 560.331 337.819C551.622 329.27 517.564 302.905 529.442 240.384" fill="#1A55B5"/>
<path d="M690.56 333.651L593.103 304.697C588.561 302.709 583.797 301.274 578.913 300.422L546.004 300.637C541.658 300.651 537.362 301.553 533.376 303.287L444.674 332.778C438.107 334.862 433.577 341.603 433.577 349.278C433.577 358.73 440.388 366.406 448.791 366.406H489.813L489.645 367.003L632.119 367.539L686.504 367.647C694.907 367.647 701.719 359.91 701.719 350.35C701.658 342.568 697.127 335.75 690.56 333.651Z" fill="#FBB206"/>
<path d="M671.029 344.207C670.734 344.237 670.436 344.237 670.141 344.207L667.631 343.916C665.457 343.64 662.304 343.288 658.447 342.92C648.273 341.938 638.054 341.508 627.834 341.633C617.63 341.783 607.442 342.479 597.312 343.717C593.424 344.192 590.271 344.621 588.128 344.958L585.618 345.31C585.33 345.363 585.038 345.389 584.745 345.387C585.013 345.269 585.297 345.191 585.587 345.157L588.067 344.651C590.225 344.222 593.363 343.701 597.251 343.119C607.398 341.718 617.622 340.946 627.864 340.806C638.091 340.679 648.315 341.191 658.478 342.338C662.381 342.782 665.534 343.226 667.662 343.594L670.157 344.023C670.455 344.043 670.748 344.105 671.029 344.207V344.207Z" fill="#263238"/>
<g opacity="0.6">
<path opacity="0.6" d="M648.161 320.507C648.087 320.629 647.994 320.737 647.885 320.829L647.028 321.733C646.263 322.514 645.13 323.679 643.584 325.088C641.719 326.808 639.74 328.399 637.66 329.853C634.901 331.823 631.819 333.295 628.553 334.203C624.546 335.198 620.348 335.113 616.384 333.958C611.905 332.57 607.6 330.668 603.557 328.29C599.159 325.66 594.508 323.479 589.674 321.779C584.476 319.994 578.79 320.284 573.801 322.591C568.673 324.904 564.311 328.428 559.551 330.971C558.372 331.63 557.117 332.135 555.908 332.687C554.68 333.165 553.428 333.579 552.158 333.928C549.711 334.627 547.196 335.063 544.657 335.23C535.805 335.873 527.001 333.45 519.723 328.367C517.051 326.324 514.534 324.086 512.192 321.672C510.417 319.887 508.463 318.29 506.36 316.907C504.544 315.761 502.512 315 500.39 314.67C500.951 314.68 501.51 314.741 502.059 314.854C503.638 315.192 505.148 315.793 506.528 316.631C508.677 317.992 510.678 319.573 512.498 321.35C514.852 323.715 517.374 325.906 520.044 327.907C527.243 332.842 535.911 335.166 544.611 334.495C547.099 334.324 549.561 333.893 551.959 333.208C553.199 332.858 554.42 332.444 555.617 331.967C556.795 331.431 558.02 330.94 559.168 330.282C563.867 327.784 568.214 324.245 573.48 321.856C578.646 319.484 584.525 319.187 589.904 321.028C594.783 322.756 599.476 324.974 603.909 327.646C607.894 330.011 612.136 331.913 616.553 333.315C620.408 334.474 624.501 334.591 628.415 333.652C631.631 332.787 634.675 331.378 637.416 329.485C639.499 328.086 641.488 326.55 643.37 324.889C644.901 323.525 646.11 322.407 646.921 321.672L647.824 320.814C648.038 320.584 648.146 320.492 648.161 320.507Z" fill="white"/>
</g>
<g opacity="0.2">
<path opacity="0.2" d="M496.717 344.008L558.326 355.636L551.209 367.233L549.326 367.264L496.717 344.008Z" fill="black"/>
</g>
<g opacity="0.6">
<path opacity="0.6" d="M683.198 331.829C683.231 332.139 683.231 332.453 683.198 332.763C683.164 333.667 683.072 334.568 682.922 335.46C681.941 341.063 678.97 346.123 674.558 349.709C670.145 353.295 664.587 355.166 658.906 354.977C655.789 354.782 652.706 354.216 649.722 353.292C646.661 352.419 643.676 351.454 640.752 350.872C637.96 350.248 635.084 350.098 632.242 350.427C628.188 350.914 624.293 352.296 620.839 354.474C617.384 356.652 614.456 359.571 612.267 363.02L611.471 364.353C611.277 364.741 611.109 365.078 610.966 365.364C610.84 365.657 610.681 365.935 610.491 366.191C610.575 365.887 610.683 365.59 610.813 365.303C610.95 364.997 611.088 364.644 611.257 364.246L612.007 362.867C613.665 359.96 615.881 357.409 618.527 355.36C622.469 352.257 627.187 350.296 632.165 349.692C635.087 349.344 638.045 349.483 640.921 350.106C643.906 350.688 646.891 351.637 649.967 352.526C652.906 353.437 655.943 353.998 659.013 354.196C662.868 354.323 666.695 353.493 670.151 351.779C673.607 350.066 676.585 347.522 678.82 344.376C680.695 341.689 682.007 338.651 682.678 335.444C683.121 333.131 683.106 331.813 683.198 331.829Z" fill="white"/>
</g>
<path d="M444.75 364.43C444.75 364.43 556.122 413.576 555.632 412.488C555.142 411.401 573.311 379.121 573.311 379.121L483.078 334.479L444.75 364.43Z" fill="#FBB206"/>
<path d="M495.936 340.852C496.725 341.115 497.492 341.437 498.232 341.817L504.355 344.713C509.528 347.179 516.6 350.642 524.452 354.517C532.305 358.393 539.346 361.932 544.443 364.537L550.458 367.601C551.211 367.954 551.933 368.369 552.617 368.842C551.824 368.595 551.056 368.277 550.321 367.892L544.198 364.996C539.04 362.53 531.953 359.068 524.1 355.192C516.248 351.316 509.207 347.777 504.11 345.172L498.094 342.108C497.344 341.746 496.622 341.326 495.936 340.852V340.852Z" fill="#263238"/>
<g opacity="0.6">
<path opacity="0.6" d="M520.335 355.774C520.191 356.931 519.839 358.052 519.294 359.083C517.816 361.93 515.496 364.252 512.651 365.732C510.739 366.787 508.673 367.531 506.528 367.938C504.033 368.322 501.493 368.322 498.997 367.938C493.338 366.957 487.862 365.118 482.757 362.484C477.673 359.907 472.346 357.844 466.853 356.325C464.472 355.726 462.022 355.442 459.567 355.483C457.425 355.54 455.302 355.902 453.261 356.555C450.274 357.44 447.586 359.125 445.485 361.427C444.769 362.31 444.099 363.23 443.48 364.184C443.899 363.105 444.5 362.105 445.256 361.228C447.32 358.781 450.039 356.974 453.093 356.019C455.172 355.313 457.342 354.91 459.537 354.824C462.056 354.751 464.574 355.019 467.022 355.62C472.545 357.131 477.896 359.216 482.986 361.84C488.027 364.436 493.422 366.274 498.997 367.294C501.422 367.67 503.889 367.67 506.314 367.294C508.419 366.93 510.454 366.237 512.345 365.241C515.127 363.851 517.433 361.664 518.972 358.96C519.498 357.93 519.953 356.865 520.335 355.774V355.774Z" fill="white"/>
</g>
<g opacity="0.6">
<path opacity="0.6" d="M567.617 389.493C567.617 389.631 565.153 389.233 561.173 389.156C558.846 389.134 556.52 389.256 554.209 389.524C551.381 389.869 548.582 390.422 545.836 391.178C543.104 391.975 540.434 392.968 537.846 394.15C535.738 395.142 533.693 396.263 531.723 397.505C528.371 399.65 526.503 401.289 526.412 401.167C526.772 400.708 527.188 400.296 527.651 399.941C528.843 398.896 530.101 397.929 531.417 397.046C533.365 395.707 535.412 394.519 537.54 393.492C542.745 390.972 548.349 389.38 554.101 388.788C556.451 388.551 558.815 388.49 561.173 388.605C562.759 388.659 564.339 388.822 565.903 389.095C566.49 389.149 567.066 389.283 567.617 389.493Z" fill="white"/>
</g>
<g opacity="0.2">
<path opacity="0.2" d="M581.347 300.208C579.51 305.356 582.266 310.932 584.96 315.681C586.676 319.091 588.849 322.251 591.419 325.072C592.707 326.484 594.268 327.619 596.007 328.409C597.746 329.199 599.627 329.627 601.537 329.668C606.542 329.5 611.011 325.808 616.017 326.099C619.415 326.298 622.384 328.305 625.201 330.205C629.978 333.675 635.159 336.55 640.63 338.768C646.151 340.979 652.234 341.36 657.988 339.856C660.84 339.066 663.442 337.556 665.546 335.472C667.65 333.388 669.184 330.799 670.003 327.953" fill="black"/>
</g>
<path d="M581.761 298.799C582.021 292.793 582.342 287.37 582.342 287.37C582.342 287.37 595.751 285.67 596.317 272.05C596.884 258.431 595.537 226.841 595.537 226.841L570.939 214.922L544.412 236.37L548.56 299.182C548.852 303.537 550.838 307.605 554.091 310.512C557.345 313.419 561.607 314.934 565.964 314.732V314.732C570.108 314.525 574.025 312.777 576.947 309.829C579.87 306.882 581.586 302.948 581.761 298.799Z" fill="#FFBE9D"/>
<path d="M593.225 251.521C593.222 251.855 593.121 252.181 592.933 252.458C592.746 252.735 592.482 252.951 592.173 253.078C591.864 253.205 591.524 253.239 591.196 253.174C590.869 253.109 590.567 252.949 590.33 252.713C590.093 252.478 589.93 252.178 589.862 251.85C589.795 251.523 589.825 251.183 589.949 250.872C590.074 250.562 590.287 250.295 590.562 250.105C590.837 249.916 591.161 249.811 591.495 249.805C591.952 249.805 592.389 249.985 592.713 250.307C593.037 250.628 593.221 251.065 593.225 251.521V251.521Z" fill="#263238"/>
<path d="M594.878 247.875C594.664 248.105 593.348 247.017 591.557 246.956C589.766 246.895 588.358 247.814 588.159 247.569C587.96 247.324 588.281 247.032 588.878 246.603C589.672 246.04 590.631 245.76 591.603 245.807C592.572 245.86 593.499 246.22 594.251 246.833C594.802 247.324 594.986 247.768 594.878 247.875Z" fill="#263238"/>
<path d="M572.898 251.521C572.898 251.859 572.798 252.19 572.611 252.471C572.424 252.753 572.158 252.972 571.847 253.103C571.535 253.234 571.192 253.27 570.86 253.206C570.529 253.142 570.223 252.982 569.982 252.745C569.741 252.508 569.576 252.205 569.506 251.874C569.436 251.543 569.466 251.199 569.591 250.885C569.716 250.571 569.931 250.301 570.209 250.109C570.487 249.917 570.815 249.811 571.153 249.805C571.38 249.803 571.605 249.846 571.816 249.931C572.027 250.016 572.219 250.142 572.381 250.301C572.543 250.461 572.672 250.65 572.76 250.86C572.849 251.069 572.896 251.294 572.898 251.521Z" fill="#263238"/>
<path d="M574.551 248.227C574.337 248.457 573.02 247.369 571.214 247.308C569.408 247.247 568.015 248.166 567.831 247.921C567.648 247.676 567.954 247.385 568.551 246.956C569.34 246.395 570.293 246.114 571.26 246.159C572.234 246.203 573.165 246.569 573.908 247.201C574.474 247.676 574.658 248.12 574.551 248.227Z" fill="#263238"/>
<path d="M581.439 264.022C582.435 263.737 583.464 263.582 584.5 263.563C584.96 263.563 585.419 263.455 585.495 263.118C585.551 262.59 585.45 262.057 585.205 261.586C584.791 260.345 584.347 259.059 583.873 257.695C582.641 254.391 581.654 251.002 580.919 247.553C582.402 250.748 583.64 254.052 584.623 257.435C585.067 258.798 585.495 260.1 585.893 261.341C586.182 261.958 586.258 262.653 586.108 263.317C586.041 263.487 585.936 263.639 585.8 263.762C585.665 263.884 585.503 263.973 585.327 264.022C585.067 264.086 584.799 264.117 584.531 264.114C583.501 264.223 582.461 264.192 581.439 264.022V264.022Z" fill="#263238"/>
<path d="M575.408 265.906C573.541 264.681 580.597 268.97 584.332 268.894C583.694 269.855 582.744 270.567 581.643 270.91C580.542 271.254 579.357 271.207 578.286 270.778C574.337 269.139 575.408 265.906 575.408 265.906Z" fill="white"/>
<path d="M582.342 287.37C575.989 287.195 569.825 285.172 564.602 281.548C564.602 281.548 568.781 291.522 582.113 290.74L582.342 287.37Z" fill="#EB996E"/>
<path d="M529.948 249.805C529.948 261.648 526.81 292.977 548.316 297.297L547.596 254.248C547.596 254.248 568.49 244.382 572.087 223.838L572.209 223.96C573.541 227.024 575.929 233.719 574.475 239.143L594.052 243.968L596.302 246.021C596.302 246.021 603.266 230.701 589.827 216.913C576.388 203.125 564.893 213.099 557.683 212.317C552.892 211.735 536.254 211.842 529.504 240.491L529.948 249.805Z" fill="#1A55B5"/>
<path d="M548.132 254.662C546.31 253.528 543.815 254.463 542.376 256.04C541.222 257.293 540.506 258.888 540.336 260.584C540.166 262.28 540.551 263.985 541.434 265.442C542.317 266.9 543.649 268.031 545.23 268.664C546.811 269.298 548.554 269.4 550.198 268.955" fill="#FFBE9D"/>
<path d="M547.719 264.865C547.719 264.957 547.106 265.064 546.188 264.865C545.542 264.702 544.944 264.386 544.446 263.944C543.948 263.501 543.564 262.945 543.326 262.322C543.073 261.591 543.106 260.793 543.417 260.085C543.67 259.531 544.073 259.059 544.581 258.722C545.438 258.17 546.111 258.216 546.111 258.308C546.111 258.4 545.576 258.599 544.933 259.181C544.521 259.522 544.221 259.979 544.074 260.493C543.926 261.007 543.938 261.554 544.106 262.062C544.313 262.577 544.623 263.044 545.018 263.434C545.413 263.825 545.884 264.129 546.402 264.329C547.152 264.635 547.719 264.742 547.719 264.865Z" fill="#EB996E"/>
<path d="M545.928 267.561C545.555 267.635 545.223 267.845 544.997 268.151C544.77 268.456 544.665 268.835 544.703 269.214C544.74 269.592 544.916 269.943 545.198 270.199C545.48 270.454 545.846 270.596 546.226 270.596C546.606 270.596 546.972 270.454 547.254 270.199C547.536 269.943 547.712 269.592 547.749 269.214C547.787 268.835 547.682 268.456 547.455 268.151C547.229 267.845 546.897 267.635 546.524 267.561" fill="#FBB206"/>
<path d="M585.572 367.616V345.111C585.572 345.111 552.188 352.035 551.576 367.34L585.572 367.616Z" fill="#FFBE9D"/>
<path d="M582.097 296.424C582.658 303.355 585.772 309.831 590.836 314.593C595.899 319.355 602.55 322.063 609.496 322.193C614.425 322.269 619.614 321.105 624.114 323.112C628.033 324.874 630.558 328.658 633.635 331.645C637.306 335.11 641.838 337.526 646.759 338.642C651.681 339.758 656.811 339.532 661.615 337.987C665.672 336.624 672.085 333.713 672.835 329.515C673.417 326.314 669.498 323.127 667.202 320.844C664.777 318.67 661.997 316.929 658.983 315.697C635.196 304.513 609.68 296.394 583.444 295" fill="#1A55B5"/>
</svg>