<svg width="50" height="50" viewBox="0 0 50 50" fill="none" xmlns="http://www.w3.org/2000/svg">
<path d="M44.7874 24.9922L49.2781 20.5972C50.6168 19.3299 49.9926 17.0778 48.2367 16.6578L42.1185 15.0963L43.8433 9.04017C44.3307 7.29818 42.6881 5.65512 40.9467 6.14261L34.8926 7.86791L33.3316 1.7477C32.9185 0.0192817 30.6412 -0.612847 29.3936 0.705902L25 5.23148L20.6066 0.706C19.3732 -0.597808 17.0864 -0.000444985 16.6686 1.7478L15.1076 7.868L9.05343 6.14271C7.31154 5.65502 5.66954 7.29867 6.15685 9.04027L7.88156 15.0964L1.76338 16.6579C0.00673497 17.078 -0.616215 19.3305 0.721873 20.5972L5.21261 24.9922L0.721873 29.3871C-0.616801 30.6544 0.00741874 32.9066 1.76328 33.3265L7.88146 34.888L6.15675 40.9441C5.66934 42.6861 7.31193 44.3292 9.05334 43.8417L15.1074 42.1164L16.6684 48.2366C17.1019 50.0506 19.3731 50.5821 20.6064 49.2784L25 44.7861L29.3935 49.2784C30.6142 50.5956 32.9079 50.0095 33.3315 48.2366L34.8925 42.1164L40.9466 43.8417C42.6884 44.3294 44.3305 42.6857 43.8432 40.9441L42.1184 34.888L48.2366 33.3265C49.9932 32.9064 50.6161 30.6539 49.278 29.3871L44.7874 24.9922V24.9922Z" fill="#293072"/>
<path d="M21.6444 33.6189L14.1081 26.0827C13.6554 25.6299 13.6554 24.8958 14.1081 24.443L15.7478 22.8033C16.2005 22.3505 16.9347 22.3505 17.3874 22.8033L22.4642 27.88L33.3381 17.0062C33.7908 16.5534 34.525 16.5534 34.9778 17.0062L36.6174 18.6459C37.0702 19.0986 37.0702 19.8327 36.6174 20.2855L23.284 33.6189C22.8312 34.0717 22.0971 34.0717 21.6444 33.6189V33.6189Z" fill="#EAEAF1"/>
<path d="M21.6444 33.619L14.1081 26.0828C13.6554 25.63 13.6554 24.8959 14.1081 24.4431L15.7478 22.8034C16.2005 22.3506 16.9347 22.3506 17.3874 22.8034L22.4642 27.8802L33.3381 17.0063C33.7908 16.5536 34.525 16.5536 34.9778 17.0063L36.6174 18.646C37.0702 19.0988 37.0702 19.8329 36.6174 20.2857L23.284 33.6191C22.8312 34.0718 22.0971 34.0718 21.6444 33.619V33.619Z" fill="#EAEAF1"/>
</svg>
