<svg width="32" height="29" viewBox="0 0 32 29" fill="none" xmlns="http://www.w3.org/2000/svg">
<path d="M22.3667 4.61667L27.3778 9.62778C27.5889 9.83889 27.5889 10.1833 27.3778 10.3944L15.2444 22.5278L10.0889 23.1C9.4 23.1778 8.81667 22.5944 8.89444 21.9056L9.46667 16.75L21.6 4.61667C21.8111 4.40556 22.1556 4.40556 22.3667 4.61667ZM31.3667 3.34444L28.6556 0.633333C27.8111 -0.211111 26.4389 -0.211111 25.5889 0.633333L23.6222 2.6C23.4111 2.81111 23.4111 3.15556 23.6222 3.36667L28.6333 8.37778C28.8444 8.58889 29.1889 8.58889 29.4 8.37778L31.3667 6.41111C32.2111 5.56111 32.2111 4.18889 31.3667 3.34444ZM21.3333 19.2278V24.8833H3.55556V7.10556H16.3222C16.5 7.10556 16.6667 7.03333 16.7944 6.91111L19.0167 4.68889C19.4389 4.26667 19.1389 3.55 18.5444 3.55H2.66667C1.19444 3.55 0 4.74444 0 6.21667V25.7722C0 27.2444 1.19444 28.4389 2.66667 28.4389H22.2222C23.6944 28.4389 24.8889 27.2444 24.8889 25.7722V17.0056C24.8889 16.4111 24.1722 16.1167 23.75 16.5333L21.5278 18.7556C21.4056 18.8833 21.3333 19.05 21.3333 19.2278Z" fill="#293072"/>
</svg>
