<svg width="735" height="460" viewBox="0 0 735 460" fill="none" xmlns="http://www.w3.org/2000/svg">
<path d="M619.206 413.43C618.43 430.184 600.125 459.505 583.37 458.729C566.616 457.953 557.618 427.237 558.549 410.483C559.324 393.728 577.32 309.801 594.074 310.577C610.674 311.352 619.982 396.676 619.206 413.43Z" fill="#527EE9"/>
<path d="M593.144 321.436L584.611 457.333" stroke="#F3F4F6" stroke-width="0.8675" stroke-miterlimit="10" stroke-linecap="round" stroke-linejoin="round"/>
<path d="M580.733 409.862C576.855 418.239 574.062 427.082 572.201 436.235C571.27 440.889 570.804 445.853 572.821 450.197C575.148 454.851 580.268 457.488 585.387 458.419C597.798 460.435 610.363 452.834 617.655 442.595C624.946 432.356 628.204 419.635 630.996 407.38C633.323 397.762 635.495 387.833 639.839 378.835C641.7 374.957 652.56 360.064 647.44 356.186C640.459 350.756 620.137 356.651 607.261 370.768C596.557 382.403 587.249 395.59 580.733 409.862Z" fill="#FBB206"/>
<path d="M585.387 458.419C585.387 458.419 600.435 399.778 636.736 366.27" stroke="#F3F4F6" stroke-width="0.8675" stroke-miterlimit="10" stroke-linecap="round" stroke-linejoin="round"/>
<path d="M669.004 396.055C667.763 398.382 665.281 399.933 663.109 401.175C660.471 402.726 657.524 403.967 654.731 405.363C651.163 407.07 647.44 408.776 644.027 410.948C641.545 412.499 639.373 414.206 637.512 416.223C640.459 409.552 643.872 403.812 647.906 398.537C653.18 391.711 658.61 388.299 664.039 388.299C664.195 388.299 664.35 388.299 664.35 388.299C666.056 388.299 667.297 388.764 668.228 389.54C670.09 390.936 670.09 394.038 669.004 396.055Z" fill="#527EE9"/>
<path d="M675.054 434.063C672.882 435.614 670.09 435.924 667.608 436.235C664.505 436.39 661.402 436.39 658.3 436.39C654.421 436.39 650.233 436.39 646.354 436.855C643.407 437.165 640.614 437.786 638.132 438.717C643.562 433.908 649.147 430.184 655.042 427.237C662.799 423.359 669.159 422.583 674.123 424.91C674.278 424.91 674.278 425.065 674.433 425.065C675.985 425.841 676.916 426.772 677.381 427.858C678.312 429.874 676.916 432.667 675.054 434.063Z" fill="#527EE9"/>
<path d="M660.627 452.679C658.765 452.369 657.214 451.283 655.973 450.197C654.266 448.8 652.715 447.404 651.319 445.853C649.302 443.991 647.285 442.13 645.113 440.423C643.562 439.182 641.856 438.251 640.149 437.631C645.113 437.786 649.612 438.562 653.956 439.803C659.696 441.509 663.109 444.146 664.505 447.559C664.505 447.715 664.505 447.715 664.66 447.87C665.126 448.956 665.125 449.886 664.815 450.662C664.195 452.058 662.178 452.834 660.627 452.679Z" fill="#527EE9"/>
<path d="M619.827 458.729C619.827 458.729 619.982 422.893 663.729 392.487" stroke="#2A294F" stroke-width="0.7798" stroke-miterlimit="10" stroke-linecap="round" stroke-linejoin="round"/>
<path d="M619.827 458.729C619.827 458.729 633.323 429.874 669.779 429.874" stroke="#2A294F" stroke-width="0.7798" stroke-miterlimit="10" stroke-linecap="round" stroke-linejoin="round"/>
<path d="M639.684 437.941C639.684 437.941 646.665 437.476 661.402 448.49" stroke="#2A294F" stroke-width="0.7798" stroke-miterlimit="10" stroke-linecap="round" stroke-linejoin="round"/>
<path d="M153.186 406.294C146.825 399.003 138.913 392.642 136.276 383.489C134.415 376.819 135.811 369.683 136.586 362.702C137.362 355.721 137.052 348.119 132.553 342.689C128.83 338.346 123.09 336.329 117.35 335.243C111.765 334.002 105.87 333.226 100.906 330.434C92.8388 325.78 94.3902 317.868 90.0464 311.042C85.2373 303.286 73.7574 293.357 64.1392 298.476C53.9004 303.906 55.4517 320.505 62.2776 327.797C66.7764 332.606 72.6715 337.26 73.292 343.93C74.2228 353.859 62.8981 362.857 66.0008 372.32C68.3278 379.301 77.1704 381.783 81.5141 387.678C85.8578 393.573 84.927 401.795 82.4449 408.776C79.9628 415.602 75.9293 421.962 74.378 429.099C71.1202 443.681 82.6 453.765 95.6312 457.023C107.576 459.97 133.484 458.574 133.484 458.574C142.792 455.316 153.031 447.249 157.995 438.407C161.873 431.736 162.339 423.204 159.391 416.067C158.15 412.499 155.823 409.241 153.186 406.294Z" fill="#FBB206"/>
<path d="M75.7742 314.145C75.7742 314.145 119.987 382.403 124.796 458.264" stroke="#F3F4F6" stroke-miterlimit="10" stroke-linecap="round" stroke-linejoin="round"/>
<path d="M36.3705 406.294C36.991 405.673 38.0769 405.363 39.318 405.363C39.4731 405.363 39.4731 405.363 39.6283 405.363C43.8169 405.363 47.8503 408 51.8838 413.12C54.9864 416.998 57.4686 421.497 59.7956 426.461C58.3994 425.065 56.6929 423.669 54.8313 422.583C52.194 421.032 49.4017 419.635 46.7644 418.394C44.5925 417.464 42.4207 416.378 40.4039 415.292C38.6975 414.361 36.991 413.12 35.9051 411.413C34.9743 409.862 34.9743 407.535 36.3705 406.294Z" fill="#527EE9"/>
<path d="M29.5445 435.304C29.8548 434.528 30.6305 433.753 31.8715 433.132C32.0267 433.132 32.0267 432.977 32.1818 432.977C35.905 431.27 40.7141 431.891 46.6092 434.838C51.1081 437.01 55.2967 439.958 59.4853 443.526C57.6237 442.905 55.4518 442.285 53.2799 442.13C50.3324 441.819 47.2297 441.819 44.1271 441.819C41.8001 441.819 39.4731 441.819 36.9909 441.664C35.1293 441.509 32.9575 441.199 31.251 440.113C29.8548 439.027 28.7689 436.855 29.5445 435.304Z" fill="#527EE9"/>
<path d="M39.0077 452.524C38.8525 451.903 38.8525 451.283 39.1628 450.352V450.197C40.2487 447.559 42.886 445.543 47.2297 444.302C50.4875 443.371 53.9005 442.75 57.6237 442.595C56.3826 443.061 55.1415 443.836 53.9005 444.767C52.194 446.008 50.6427 447.404 49.2465 448.801C48.1605 449.886 46.9195 450.972 45.6784 452.058C44.7476 452.834 43.5065 453.765 42.1103 453.92C40.8693 454.23 39.4731 453.765 39.0077 452.524Z" fill="#527EE9"/>
<path d="M72.9818 458.729C72.9818 458.729 72.8267 431.581 39.7833 408.621" stroke="#2A294F" stroke-width="0.7798" stroke-miterlimit="10" stroke-linecap="round" stroke-linejoin="round"/>
<path d="M72.9818 458.729C72.9818 458.729 62.743 437.01 35.2844 437.01" stroke="#2A294F" stroke-width="0.7798" stroke-miterlimit="10" stroke-linecap="round" stroke-linejoin="round"/>
<path d="M57.934 443.061C57.934 443.061 52.6595 442.595 41.4899 451.128" stroke="#2A294F" stroke-width="0.7798" stroke-miterlimit="10" stroke-linecap="round" stroke-linejoin="round"/>
<path d="M428.082 458.729H136.276C128.209 458.729 121.694 452.213 121.694 444.146V48.2464C121.694 40.1795 128.209 33.6639 136.276 33.6639H428.237C436.304 33.6639 442.82 40.1795 442.82 48.2464V443.991C442.82 452.213 436.304 458.729 428.082 458.729Z" fill="#4C84F0"/>
<path d="M121.539 137.138V443.991C121.539 452.058 128.054 458.574 136.121 458.574H428.082C436.149 458.574 442.664 452.058 442.664 443.991V383.489L121.539 137.138Z" fill="#527EE9"/>
<path d="M418.153 439.182H146.205C142.947 439.182 140.155 436.545 140.155 433.132V59.2609C140.155 56.0031 142.792 53.2107 146.205 53.2107H418.153C421.411 53.2107 424.203 55.848 424.203 59.2609V433.132C424.203 436.39 421.411 439.182 418.153 439.182Z" fill="#F3F4F6"/>
<path d="M306.613 25.597C306.613 25.1316 306.613 24.8213 306.613 24.3559C306.613 10.8593 295.753 0 282.257 0C268.76 0 257.901 10.8593 257.901 24.3559C257.901 24.8213 257.901 25.1316 257.901 25.597H222.065V62.8289H342.603V25.597H306.613Z" fill="#2C6BC6"/>
<path d="M221.91 25.597V62.8289H342.448L221.91 25.597Z" fill="#2C6BC6"/>
<path d="M287.51 36.9149C294.469 34.0137 297.758 26.0203 294.857 19.0612C291.956 12.1021 283.962 8.8126 277.003 11.7139C270.044 14.6151 266.755 22.6085 269.656 29.5676C272.557 36.5267 280.55 39.8162 287.51 36.9149Z" fill="#4C84F0"/>
<path d="M272.483 14.5825C267.054 20.0122 267.054 28.5445 272.483 33.9742C277.913 39.4038 286.445 39.4038 291.875 33.9742L272.483 14.5825Z" fill="#4C84F0"/>
<path d="M342.448 62.8289H221.91V65.4662H342.448V62.8289Z" fill="#CDE1F9"/>
<path d="M218.807 114.333H173.043V160.098H218.807V114.333Z" stroke="#1A55B5" stroke-miterlimit="10"/>
<path d="M186.384 139.465L200.346 150.479L228.736 123.021" stroke="#F3F4F6" stroke-width="4" stroke-miterlimit="10"/>
<path d="M183.281 136.362L197.243 147.377L225.633 119.918" stroke="#FF746F" stroke-width="4" stroke-miterlimit="10"/>
<path d="M389.609 127.209H240.681C239.75 127.209 238.974 126.434 238.974 125.503C238.974 124.572 239.75 123.796 240.681 123.796H389.609C390.54 123.796 391.315 124.572 391.315 125.503C391.315 126.434 390.54 127.209 389.609 127.209Z" fill="#6AA5FE"/>
<path d="M389.609 134.966H240.681C239.75 134.966 238.974 134.19 238.974 133.259C238.974 132.329 239.75 131.553 240.681 131.553H389.609C390.54 131.553 391.315 132.329 391.315 133.259C391.315 134.19 390.54 134.966 389.609 134.966Z" fill="#6AA5FE"/>
<path d="M389.609 142.723H240.681C239.75 142.723 238.974 141.947 238.974 141.016C238.974 140.085 239.75 139.31 240.681 139.31H389.609C390.54 139.31 391.315 140.085 391.315 141.016C391.315 141.947 390.54 142.723 389.609 142.723Z" fill="#6AA5FE"/>
<path d="M389.609 150.479H240.681C239.75 150.479 238.974 149.704 238.974 148.773C238.974 147.842 239.75 147.066 240.681 147.066H389.609C390.54 147.066 391.315 147.842 391.315 148.773C391.315 149.704 390.54 150.479 389.609 150.479Z" fill="#6AA5FE"/>
<path d="M218.807 187.866H173.043V233.631H218.807V187.866Z" stroke="#1A55B5" stroke-miterlimit="10"/>
<path d="M186.384 212.998L200.346 224.012L228.736 196.709" stroke="#F3F4F6" stroke-width="4" stroke-miterlimit="10"/>
<path d="M183.281 209.895L197.243 220.91L225.633 193.606" stroke="#FF746F" stroke-width="4" stroke-miterlimit="10"/>
<path d="M389.609 200.898H240.681C239.75 200.898 238.974 200.122 238.974 199.191C238.974 198.26 239.75 197.485 240.681 197.485H389.609C390.54 197.485 391.315 198.26 391.315 199.191C391.315 200.122 390.54 200.898 389.609 200.898Z" fill="#6AA5FE"/>
<path d="M389.609 208.654H240.681C239.75 208.654 238.974 207.879 238.974 206.948C238.974 206.017 239.75 205.241 240.681 205.241H389.609C390.54 205.241 391.315 206.017 391.315 206.948C391.315 207.879 390.54 208.654 389.609 208.654Z" fill="#6AA5FE"/>
<path d="M389.609 216.411H240.681C239.75 216.411 238.974 215.635 238.974 214.704C238.974 213.774 239.75 212.998 240.681 212.998H389.609C390.54 212.998 391.315 213.774 391.315 214.704C391.315 215.635 390.54 216.411 389.609 216.411Z" fill="#6AA5FE"/>
<path d="M389.609 224.168H240.681C239.75 224.168 238.974 223.392 238.974 222.461C238.974 221.53 239.75 220.755 240.681 220.755H389.609C390.54 220.755 391.315 221.53 391.315 222.461C391.315 223.392 390.54 224.168 389.609 224.168Z" fill="#6AA5FE"/>
<path d="M218.807 261.4H173.043V307.164H218.807V261.4Z" stroke="#1A55B5" stroke-miterlimit="10"/>
<path d="M186.384 286.686L200.346 297.546L228.736 270.242" stroke="#F3F4F6" stroke-width="4" stroke-miterlimit="10"/>
<path d="M183.281 283.584L197.243 294.443L225.633 267.139" stroke="#FF746F" stroke-width="4" stroke-miterlimit="10"/>
<path d="M389.609 274.431H240.681C239.75 274.431 238.974 273.655 238.974 272.724C238.974 271.793 239.75 271.018 240.681 271.018H389.609C390.54 271.018 391.315 271.793 391.315 272.724C391.315 273.655 390.54 274.431 389.609 274.431Z" fill="#6AA5FE"/>
<path d="M389.609 282.187H240.681C239.75 282.187 238.974 281.412 238.974 280.481C238.974 279.55 239.75 278.774 240.681 278.774H389.609C390.54 278.774 391.315 279.55 391.315 280.481C391.315 281.412 390.54 282.187 389.609 282.187Z" fill="#6AA5FE"/>
<path d="M389.609 289.944H240.681C239.75 289.944 238.974 289.168 238.974 288.238C238.974 287.307 239.75 286.531 240.681 286.531H389.609C390.54 286.531 391.315 287.307 391.315 288.238C391.315 289.168 390.54 289.944 389.609 289.944Z" fill="#6AA5FE"/>
<path d="M389.609 297.701H240.681C239.75 297.701 238.974 296.925 238.974 295.994C238.974 295.063 239.75 294.288 240.681 294.288H389.609C390.54 294.288 391.315 295.063 391.315 295.994C391.315 296.925 390.54 297.701 389.609 297.701Z" fill="#6AA5FE"/>
<path d="M218.807 334.933H173.043V380.697H218.807V334.933Z" stroke="#1A55B5" stroke-miterlimit="10"/>
<path d="M186.384 360.219L200.346 371.079L228.736 343.775" stroke="#F3F4F6" stroke-width="4" stroke-miterlimit="10"/>
<path d="M183.281 357.117L197.243 367.976L225.633 340.673" stroke="#FF746F" stroke-width="4" stroke-miterlimit="10"/>
<path d="M389.609 347.964H240.681C239.75 347.964 238.974 347.188 238.974 346.257C238.974 345.327 239.75 344.551 240.681 344.551H389.609C390.54 344.551 391.315 345.327 391.315 346.257C391.315 347.188 390.54 347.964 389.609 347.964Z" fill="#6AA5FE"/>
<path d="M389.609 355.721H240.681C239.75 355.721 238.974 354.945 238.974 354.014C238.974 353.083 239.75 352.308 240.681 352.308H389.609C390.54 352.308 391.315 353.083 391.315 354.014C391.315 354.945 390.54 355.721 389.609 355.721Z" fill="#6AA5FE"/>
<path d="M389.609 363.477H240.681C239.75 363.477 238.974 362.702 238.974 361.771C238.974 360.84 239.75 360.064 240.681 360.064H389.609C390.54 360.064 391.315 360.84 391.315 361.771C391.315 362.702 390.54 363.477 389.609 363.477Z" fill="#6AA5FE"/>
<path d="M389.609 371.234H240.681C239.75 371.234 238.974 370.458 238.974 369.527C238.974 368.597 239.75 367.821 240.681 367.821H389.609C390.54 367.821 391.315 368.597 391.315 369.527C391.315 370.458 390.54 371.234 389.609 371.234Z" fill="#6AA5FE"/>
<path d="M1 458.729H752" stroke="#2A294F" stroke-width="0.7798" stroke-miterlimit="10" stroke-linecap="round" stroke-linejoin="round"/>
<path d="M481.448 444.922H474.312V453.61H481.448V444.922Z" fill="#FF746F"/>
<path d="M474.311 451.593L478.035 452.679L481.448 451.593L484.55 458.729H455.851L466.71 455.161L474.311 451.593Z" fill="#2A294F"/>
<path d="M548.465 453.61H555.601L552.964 444.922H545.828L548.465 453.61Z" fill="#FF746F"/>
<path d="M554.981 451.593L551.258 452.679L547.845 451.593L544.742 458.729H573.286L562.582 455.161L554.981 451.593Z" fill="#2A294F"/>
<path d="M458.333 150.014C457.402 150.79 448.714 155.909 448.714 155.909L442.509 147.997L444.371 138.999L457.712 139.775L460.039 146.446C460.505 148.152 459.574 149.083 458.333 150.014Z" fill="#FE9280"/>
<path d="M457.712 139.775L459.729 145.67L453.524 148.152C452.283 148.618 451.042 148.773 449.801 148.463C447.163 147.687 445.302 145.05 445.612 142.412L446.077 139.155L457.712 139.775Z" fill="#E86767"/>
<path d="M454.609 147.687L459.884 148.463L462.832 143.498C463.452 142.567 463.142 141.482 462.211 140.861C461.28 140.24 460.194 140.551 459.574 141.482L454.609 147.687Z" fill="#FFBE9D"/>
<path d="M445.146 169.25L434.132 171.888L430.254 203.69L442.975 204.31L445.146 169.25Z" fill="white"/>
<path d="M594.85 194.847L575.613 192.365L579.957 157.46L599.194 159.942C608.812 161.183 615.638 169.871 614.397 179.489C613.156 189.107 604.468 195.933 594.85 194.847Z" fill="#FE9280"/>
<path opacity="0.2" d="M595.781 186.78L576.544 184.298L575.613 192.21L594.85 194.692C604.468 195.933 613.311 189.107 614.397 179.489C614.552 178.093 614.552 176.852 614.397 175.456C611.759 183.057 604.003 187.866 595.781 186.78Z" fill="#777470"/>
<path d="M573.286 192.055L369.907 165.837L374.25 130.932L577.63 157.15L573.286 192.055Z" fill="#FBB206"/>
<path d="M333.761 143.653L369.907 165.837L374.251 130.932L333.761 143.653Z" fill="#FFF4DD"/>
<path opacity="0.2" d="M333.761 143.653L369.907 165.837L370.993 157.305L333.761 143.653Z" fill="#777470"/>
<path d="M345.861 139.775L333.761 143.653L344.465 150.169L345.861 139.775Z" fill="#2A294F"/>
<path d="M594.529 159.276L577.751 157.164L573.372 191.951L590.15 194.063L594.529 159.276Z" fill="#D3EAF5"/>
<path d="M594.594 157.811L588.899 157.094L584.133 194.959L589.828 195.676L594.594 157.811Z" fill="#D3EAF5"/>
<path opacity="0.2" d="M584.301 193.451L369.907 165.837L370.993 157.305L585.387 184.919L584.301 193.451Z" fill="#777470"/>
<path opacity="0.05" d="M587.714 167.079L373.165 139.465L374.25 130.932L588.8 158.546L587.714 167.079Z" fill="#777470"/>
<path opacity="0.15" d="M591.389 184.094L585.693 183.377L584.24 194.921L589.935 195.638L591.389 184.094Z" fill="#777470"/>
<path d="M518.99 278.464L521.782 271.018L531.401 270.242C533.107 270.087 534.813 271.173 534.969 272.569C535.124 274.12 533.883 275.517 532.021 275.672L518.99 278.464Z" fill="#FFBE9D"/>
<path d="M514.026 271.173L518.99 278.619L528.453 276.603L517.749 260.779L515.732 262.175C512.785 264.192 512.009 268.225 514.026 271.173Z" fill="#FFBE9D"/>
<path d="M521.782 268.691L554.05 234.872L537.14 230.838L517.904 260.779L521.782 268.691Z" fill="white"/>
<path d="M541.639 233.476C543.346 237.199 547.69 238.75 551.413 237.044C555.136 235.337 556.687 230.993 554.981 227.27C553.274 223.547 548.931 221.996 545.207 223.702C541.484 225.253 539.933 229.752 541.639 233.476Z" fill="white"/>
<path d="M544.121 236.423L554.05 225.874L519.3 184.609C516.353 180.575 510.457 180.11 506.889 183.678C503.321 187.246 503.632 199.656 507.665 202.759L544.121 236.423Z" fill="white"/>
<path d="M487.185 187.467L501.406 188.672L503.317 166.104L489.096 164.9L487.185 187.467Z" fill="#FFBE9D"/>
<path d="M435.994 198.881C432.426 199.191 429.788 202.139 429.943 205.707C430.254 209.275 433.201 211.912 436.769 211.757C440.337 211.447 442.975 208.499 442.819 204.931C442.509 201.363 439.407 198.726 435.994 198.881Z" fill="white"/>
<path d="M431.805 199.812L438.32 211.447L478.035 202.449C482.844 201.208 485.481 189.418 483.619 184.764C481.758 180.11 476.173 178.248 471.829 180.73L431.805 199.812Z" fill="white"/>
<path d="M514.026 265.278L518.369 189.573C519.455 185.539 516.663 181.506 512.474 180.885L476.949 179.644C472.76 179.024 469.192 182.282 469.037 186.47L461.746 278.464L514.026 265.278Z" fill="white"/>
<path d="M480.206 265.278L488.273 290.875L484.705 448.8H470.123L461.901 278.464L462.987 265.278H480.206Z" fill="#527EE9"/>
<path d="M480.207 265.278L488.118 296.615H493.858L545.363 448.8H557.308L521.007 286.066L514.026 265.278H480.207Z" fill="#527EE9"/>
<path d="M444.216 137.603L443.905 138.999C443.44 142.102 445.457 144.894 448.559 145.36L450.886 145.67C453.989 146.136 456.781 144.119 457.247 141.016L457.557 139.62L444.216 137.603Z" fill="#FFBE9D"/>
<path d="M485.947 179.955L496.34 180.42L492.152 186.78V237.044L485.947 249.92L480.362 234.406L488.118 186.315L485.947 179.955Z" fill="#1A55B5"/>
<path d="M514.181 147.532C513.87 144.119 512.629 140.706 510.457 138.224C508.441 135.742 505.803 134.035 502.701 133.104C501.305 132.639 499.908 132.329 498.357 132.484C496.495 132.639 494.634 132.949 492.772 132.174C490.29 131.088 488.429 128.916 486.257 127.52C485.791 127.209 485.171 126.899 484.55 126.744C482.223 125.813 479.121 126.123 476.794 127.675C475.708 128.45 474.777 129.536 474.156 130.777C473.536 132.018 473.07 133.259 473.07 134.656C472.915 137.293 473.536 140.085 474.932 142.412C476.328 144.429 478.035 146.291 480.206 147.532C480.051 148.152 480.051 148.618 480.051 149.238C479.586 158.701 486.877 166.613 496.34 167.078C503.011 167.389 509.216 163.821 512.319 157.926C514.026 154.513 514.646 150.945 514.181 147.532ZM478.5 144.274C477.724 143.343 476.949 142.412 476.328 141.326C474.932 139.31 474.156 136.828 474.156 134.345C474.311 131.863 475.397 129.381 477.259 127.83C478.035 127.209 478.81 126.899 479.741 126.589C479.276 126.744 478.81 127.054 478.5 127.364C476.638 128.916 475.863 131.398 475.708 133.725C475.397 138.379 477.104 142.878 480.517 145.98V146.136C479.896 145.67 479.121 145.05 478.5 144.274Z" fill="#1A55B5"/>
<path d="M506.269 157.926C505.959 159.632 507.2 161.339 508.906 161.649C510.613 161.959 512.319 160.718 512.629 159.012C512.94 157.305 511.699 155.599 509.992 155.288C508.286 154.978 506.579 156.219 506.269 157.926Z" fill="#FFBE9D"/>
<path d="M492.307 139.775C484.705 139.62 481.758 145.98 481.758 145.98L481.292 148.152L480.982 150.169C480.982 150.324 480.982 150.324 480.982 150.479L480.051 156.064C478.81 163.666 483.619 171.267 491.221 172.663C498.978 174.059 506.269 168.94 507.665 161.183L508.751 154.358C508.906 154.358 511.078 141.016 492.307 139.775Z" fill="#FFBE9D"/>
<path d="M493.858 157.771C493.083 157.305 487.498 156.219 486.877 156.529C486.102 156.995 485.791 157.926 486.102 158.701C486.257 159.477 486.877 160.097 487.498 160.563C489.049 161.649 491.221 161.804 492.772 161.028C493.393 160.718 494.013 160.253 494.324 159.632C494.634 159.012 494.479 158.081 493.858 157.771Z" fill="white"/>
<path d="M495.41 140.085C497.271 140.396 499.133 140.861 500.994 141.637C502.391 142.102 503.632 142.878 504.718 143.809C508.286 146.911 505.028 153.427 503.942 156.84C503.632 157.615 503.321 158.701 503.787 159.322C504.407 160.097 505.648 159.942 506.424 159.322C507.2 158.701 507.51 157.771 507.975 156.995C508.441 156.219 509.216 155.288 510.147 155.288L509.527 139.775C509.527 139.62 499.753 139.465 498.978 139.465C497.426 139.31 495.41 140.085 495.41 140.085Z" fill="#1A55B5"/>
</svg>
