<svg width="27" height="31" viewBox="0 0 27 31" fill="none" xmlns="http://www.w3.org/2000/svg">
<path d="M7.71429 11.1406C7.71429 9.271 9.22834 7.75 11.0893 7.75H19.2857V3.39062C19.2857 2.58808 18.6381 1.9375 17.8393 1.9375H12.9811C12.3131 0.780449 11.0674 0 9.64286 0C8.21831 0 6.97263 0.780449 6.30462 1.9375H1.44643C0.647578 1.9375 0 2.58808 0 3.39062V23.7344C0 24.5369 0.647578 25.1875 1.44643 25.1875H7.71429V11.1406ZM9.64286 2.42188C10.4417 2.42188 11.0893 3.07245 11.0893 3.875C11.0893 4.67755 10.4417 5.32812 9.64286 5.32812C8.84401 5.32812 8.19643 4.67755 8.19643 3.875C8.19643 3.07245 8.84401 2.42188 9.64286 2.42188ZM20.7321 17.4375H27V29.5469C27 30.3494 26.3524 31 25.5536 31H11.0893C10.2904 31 9.64286 30.3494 9.64286 29.5469V11.1406C9.64286 10.3381 10.2904 9.6875 11.0893 9.6875H19.2857V15.9844C19.2857 16.7836 19.9366 17.4375 20.7321 17.4375ZM27 15.1331V15.5H21.2143V9.6875H21.5794C21.963 9.6875 22.3309 9.84059 22.6022 10.1131L26.5763 14.1056C26.8476 14.3781 27 14.7477 27 15.1331Z" fill="#293072"/>
</svg>
