<svg width="24" height="24" viewBox="0 0 24 24" fill="none" xmlns="http://www.w3.org/2000/svg">
<path d="M0 2.94737V0.842105C0 0.377 0.383732 0 0.857143 0H23.1429C23.6163 0 24 0.377 24 0.842105V2.94737C24 3.41247 23.6163 3.78947 23.1429 3.78947H0.857143C0.383732 3.78947 0 3.41247 0 2.94737ZM0.857143 10.5263H23.1429C23.6163 10.5263 24 10.1493 24 9.68421V7.57895C24 7.11384 23.6163 6.73684 23.1429 6.73684H0.857143C0.383732 6.73684 0 7.11384 0 7.57895V9.68421C0 10.1493 0.383732 10.5263 0.857143 10.5263ZM0.857143 24H23.1429C23.6163 24 24 23.623 24 23.1579V21.0526C24 20.5875 23.6163 20.2105 23.1429 20.2105H0.857143C0.383732 20.2105 0 20.5875 0 21.0526V23.1579C0 23.623 0.383732 24 0.857143 24ZM0.857143 17.2632H23.1429C23.6163 17.2632 24 16.8862 24 16.4211V14.3158C24 13.8507 23.6163 13.4737 23.1429 13.4737H0.857143C0.383732 13.4737 0 13.8507 0 14.3158V16.4211C0 16.8862 0.383732 17.2632 0.857143 17.2632Z" fill="#293072"/>
</svg>
