<svg width="750" height="500" viewBox="0 0 750 500" fill="none" xmlns="http://www.w3.org/2000/svg">
<path d="M626.932 273.921L605.367 325.224L681.479 357.216L703.044 305.913L626.932 273.921Z" fill="#EBEBEB"/>
<path d="M703.03 306.68C703.04 306.7 702.69 306.84 702.03 307.06C701.3 307.3 700.33 307.62 699.13 308.03C696.52 308.86 692.88 310.03 688.42 311.45C679.28 314.29 666.76 318.19 652.9 322.5L652.61 322.59L652.46 322.32C652.35 322.11 652.23 321.89 652.1 321.67C645.11 308.75 638.78 297.06 634.15 288.52C631.91 284.31 630.09 280.89 628.79 278.43C628.2 277.28 627.72 276.36 627.37 275.67C627.05 275.03 626.9 274.7 626.92 274.68C626.94 274.67 627.14 274.98 627.5 275.59C627.89 276.27 628.4 277.16 629.05 278.28C630.41 280.71 632.3 284.1 634.62 288.25C639.3 296.77 645.69 308.42 652.76 321.3C652.88 321.52 653 321.75 653.12 321.95L652.68 321.77C666.57 317.54 679.1 313.72 688.26 310.93C692.76 309.6 696.42 308.51 699.04 307.73C700.26 307.38 701.24 307.11 701.98 306.9C702.66 306.74 703.02 306.65 703.03 306.68Z" fill="#E0E0E0"/>
<path d="M605.36 325.98C605.27 325.8 613.95 321.17 624.74 315.65C635.54 310.13 644.37 305.8 644.47 305.99C644.56 306.17 635.89 310.8 625.09 316.32C614.28 321.84 605.45 326.17 605.36 325.98Z" fill="#E0E0E0"/>
<path d="M670.03 315.98C670.23 315.93 672.95 325.28 676.11 336.88C679.27 348.48 681.66 357.92 681.46 357.98C681.26 358.03 678.54 348.68 675.38 337.08C672.23 325.48 669.84 316.03 670.03 315.98Z" fill="#E0E0E0"/>
<path d="M138.993 367.6L122.958 405.748L179.563 429.54L195.597 391.392L138.993 367.6Z" fill="#F5F5F5"/>
<path d="M195.57 391.95C195.58 391.97 195.32 392.07 194.83 392.24C194.29 392.42 193.57 392.66 192.67 392.96C190.73 393.58 188.02 394.44 184.7 395.51C177.9 397.63 168.59 400.52 158.29 403.73L158.07 403.8L157.96 403.6C157.88 403.45 157.79 403.28 157.7 403.12C152.5 393.51 147.79 384.82 144.35 378.46C142.69 375.33 141.33 372.78 140.36 370.96C139.92 370.11 139.57 369.42 139.3 368.91C139.06 368.44 138.95 368.19 138.96 368.18C138.98 368.17 139.13 368.41 139.39 368.86C139.68 369.36 140.06 370.03 140.54 370.86C141.55 372.66 142.96 375.19 144.68 378.28C148.16 384.62 152.91 393.28 158.17 402.86C158.26 403.03 158.35 403.19 158.43 403.35L158.1 403.22C168.43 400.07 177.75 397.23 184.56 395.16C187.9 394.17 190.63 393.36 192.58 392.78C193.49 392.52 194.22 392.32 194.77 392.16C195.3 391.99 195.57 391.93 195.57 391.95Z" fill="#E0E0E0"/>
<path d="M122.94 406.31C122.87 406.17 129.32 402.73 137.35 398.63C145.38 394.52 151.95 391.31 152.02 391.44C152.09 391.58 145.64 395.02 137.6 399.12C129.58 403.23 123.01 406.44 122.94 406.31Z" fill="#E0E0E0"/>
<path d="M171.04 398.87C171.19 398.83 173.21 405.79 175.56 414.41C177.91 423.04 179.69 430.06 179.54 430.1C179.39 430.14 177.37 423.18 175.02 414.56C172.67 405.93 170.89 398.91 171.04 398.87Z" fill="#E0E0E0"/>
<path d="M112.934 242.428L45.8008 269.03L71.5409 333.988L138.675 307.386L112.934 242.428Z" fill="#F5F5F5"/>
<path d="M74.54 326.34L79.87 285.56L103.53 300.9L108.26 285.9L131.27 303.87L74.54 326.34Z" fill="#E0E0E0"/>
<path d="M98.9596 270.48C100.02 273.15 98.7096 276.17 96.0396 277.23C93.3696 278.29 90.3496 276.98 89.2896 274.31C88.2296 271.64 89.5396 268.62 92.2096 267.56C94.8796 266.5 97.8996 267.81 98.9596 270.48Z" fill="#E0E0E0"/>
<g opacity="0.3">
<g opacity="0.3">
<g opacity="0.3">
<path opacity="0.3" d="M131.34 304.05C131.33 304.05 131.29 303.96 131.22 303.79C131.14 303.6 131.04 303.35 130.9 303.04C130.62 302.35 130.22 301.38 129.71 300.13C128.67 297.56 127.17 293.85 125.27 289.13C121.48 279.66 116.07 266.17 109.59 249.97L109.97 250.14C93.5496 256.66 74.0796 264.4 53.2696 272.66C53.2196 272.76 53.6296 271.82 53.4596 272.22L53.4696 272.23L53.4796 272.26L53.4996 272.32L53.5496 272.44L53.6396 272.67L53.8196 273.13L54.1896 274.06L54.9196 275.9C55.4096 277.13 55.8896 278.35 56.3696 279.57C57.3296 282 58.2896 284.42 59.2296 286.8C61.1196 291.57 62.9696 296.25 64.7696 300.8C68.3596 309.9 71.7596 318.5 74.8896 326.42L74.4996 326.25C91.4496 319.6 105.61 314.04 115.57 310.14C120.54 308.21 124.46 306.68 127.17 305.63C128.5 305.12 129.52 304.73 130.25 304.45C130.58 304.33 130.85 304.23 131.05 304.15C131.24 304.08 131.33 304.04 131.34 304.05C131.35 304.05 131.27 304.09 131.1 304.16C130.91 304.24 130.66 304.35 130.34 304.48C129.63 304.77 128.63 305.18 127.34 305.71C124.66 306.79 120.78 308.36 115.86 310.34C105.89 314.33 91.7096 320.01 74.7196 326.8L74.4396 326.91L74.3296 326.63C71.1896 318.72 67.7696 310.13 64.1496 301.03C62.3396 296.48 60.4896 291.81 58.5996 287.04C57.6496 284.65 56.6996 282.24 55.7296 279.81C55.2496 278.59 54.7596 277.37 54.2796 276.14L53.5496 274.3L53.1796 273.37L52.9996 272.92L52.9096 272.69L52.8596 272.57L52.8396 272.51L52.8296 272.48L52.8196 272.47C52.6496 272.86 53.0496 271.92 53.0196 272.01C73.8396 263.78 93.3196 256.08 109.76 249.58L110.04 249.47L110.15 249.74C116.55 266.06 121.88 279.64 125.62 289.19C127.45 293.91 128.9 297.62 129.9 300.19C130.38 301.43 130.74 302.39 131.01 303.07C131.12 303.38 131.21 303.62 131.28 303.8C131.32 303.97 131.35 304.05 131.34 304.05Z" fill="#E0E0E0"/>
</g>
</g>
</g>
<path d="M497.53 420.2L493.9 417.57C491.84 416.08 490.38 413.89 489.81 411.41L487.25 400.43C485.56 393.16 478.82 388.4 471.6 388.96L470.61 384.69C470.36 383.61 469.28 382.94 468.2 383.19C467.12 383.44 466.45 384.52 466.7 385.6L467.67 389.79C460.65 392.31 456.47 399.74 458.2 407.19L460.66 417.75C461.2 420.05 460.94 422.47 459.94 424.61L457.67 429.48L472.46 426.04C473.43 427.43 474.93 428.46 476.61 428.74C478.97 429.14 481.51 428.07 482.87 426.1C483.43 425.29 483.76 424.35 483.89 423.37L497.53 420.2Z" fill="#EBEBEB"/>
<path d="M506.11 120.09L570.09 161.89L543.13 206.36L477.6 161.98L506.11 120.09Z" fill="#F5F5F5"/>
<path d="M506.109 120.09L552.429 115.71C554.389 115.52 556.209 116.74 556.789 118.63L570.089 161.9" fill="#FF725E"/>
<path d="M506.109 120.09L552.429 115.71C554.389 115.52 556.209 116.74 556.789 118.63L570.089 161.9" fill="#E0E0E0"/>
<path d="M477.6 161.98C477.57 161.85 486.36 159.67 497.24 157.11C508.12 154.55 516.96 152.57 516.99 152.7C517.02 152.83 508.23 155.01 497.35 157.57C486.47 160.13 477.63 162.11 477.6 161.98Z" fill="#E0E0E0"/>
<path d="M543.13 206.36C543 206.38 541.66 197.63 540.13 186.82C538.6 176.01 537.47 167.23 537.6 167.21C537.73 167.19 539.07 175.94 540.6 186.75C542.12 197.56 543.26 206.34 543.13 206.36Z" fill="#E0E0E0"/>
<path d="M506.109 120.09L521.159 166.21L570.089 161.89L506.109 120.09Z" fill="#E0E0E0"/>
<path d="M507.75 124.58L520.85 104.63L577.04 140.98L563.78 162.32L521.38 165.87L507.75 124.58Z" fill="#FAFAFA"/>
<path d="M507.75 124.58C507.75 124.58 507.86 124.84 508.03 125.33C508.21 125.84 508.46 126.57 508.78 127.51C509.43 129.44 510.38 132.25 511.59 135.83C513.99 143.02 517.42 153.32 521.59 165.81L521.37 165.66C533.59 164.62 548.08 163.39 563.76 162.06L563.56 162.18C566.09 158.11 568.74 153.84 571.44 149.49C573.26 146.56 575.06 143.67 576.82 140.84L576.9 141.19C554.29 126.52 534.34 113.57 520.76 104.76L520.99 104.71C516.85 110.95 513.56 115.91 511.29 119.33C510.16 121.02 509.28 122.32 508.68 123.23C508.39 123.66 508.16 123.99 508 124.23C507.84 124.47 507.75 124.58 507.75 124.58C507.75 124.58 507.81 124.46 507.95 124.23C508.1 123.99 508.32 123.65 508.59 123.22C509.18 122.31 510.02 120.99 511.12 119.29C513.36 115.84 516.62 110.83 520.71 104.53L520.8 104.39L520.94 104.48C534.54 113.25 554.53 126.14 577.18 140.76L577.39 140.9L577.26 141.12C575.5 143.96 573.7 146.85 571.88 149.77C569.18 154.12 566.52 158.39 563.99 162.46L563.92 162.57L563.79 162.58C548.11 163.88 533.61 165.08 521.39 166.09L521.22 166.1L521.17 165.94C517.07 153.4 513.69 143.06 511.33 135.83C510.17 132.25 509.27 129.44 508.64 127.5C508.34 126.56 508.11 125.83 507.95 125.32C507.81 124.83 507.75 124.58 507.75 124.58Z" fill="#E0E0E0"/>
<path d="M561.579 145.14C561.499 145.26 552.879 139.75 542.319 132.83C531.759 125.91 523.259 120.21 523.339 120.09C523.419 119.97 532.039 125.48 542.599 132.4C553.159 139.32 561.659 145.02 561.579 145.14Z" fill="#E0E0E0"/>
<path d="M557.85 150.76C557.77 150.88 549.15 145.37 538.59 138.45C528.03 131.53 519.53 125.83 519.61 125.71C519.69 125.59 528.31 131.1 538.87 138.02C549.43 144.93 557.93 150.64 557.85 150.76Z" fill="#E0E0E0"/>
<path d="M553.55 157.23C553.47 157.35 544.85 151.84 534.29 144.92C523.73 138 515.23 132.3 515.31 132.18C515.39 132.06 524.01 137.57 534.57 144.49C545.14 151.41 553.63 157.11 553.55 157.23Z" fill="#E0E0E0"/>
<path d="M549.26 163.71C549.18 163.83 540.95 158.58 530.88 151.98C520.8 145.38 512.7 139.93 512.78 139.81C512.86 139.69 521.09 144.94 531.17 151.54C541.23 158.14 549.34 163.59 549.26 163.71Z" fill="#E0E0E0"/>
<path d="M538.349 164.66C538.329 164.69 537.999 164.52 537.429 164.18C536.759 163.77 535.96 163.28 535.02 162.7C532.89 161.35 530.17 159.61 527.15 157.7C524.08 155.74 521.329 153.91 519.359 152.57C518.369 151.9 517.579 151.35 517.039 150.95C516.499 150.56 516.209 150.33 516.229 150.3C516.249 150.27 516.58 150.44 517.15 150.78C517.82 151.19 518.62 151.68 519.56 152.26C521.69 153.61 524.409 155.35 527.429 157.26C530.499 159.22 533.249 161.05 535.219 162.39C536.209 163.06 536.999 163.62 537.539 164.01C538.079 164.4 538.369 164.63 538.349 164.66Z" fill="#E0E0E0"/>
<path d="M527.549 165.36C527.469 165.48 525.589 164.37 523.349 162.88C521.109 161.39 519.349 160.09 519.429 159.97C519.509 159.85 521.389 160.96 523.629 162.45C525.879 163.93 527.629 165.24 527.549 165.36Z" fill="#E0E0E0"/>
<path d="M282.66 157.52L272.84 172.16L268.99 170.58L240.48 188.6L234.92 173.52C234.92 173.52 251.07 168.74 254.56 163.61C258.05 158.48 254.92 156.84 254.92 156.84L263.13 149.49L282.66 157.52Z" fill="#EBEBEB"/>
<path d="M276.12 124.43C276.12 124.43 264.78 120.46 250.28 102.74C235.78 85.02 230.58 63.16 228.56 63.03C226.54 62.89 218.27 57.78 197.27 92.02C176.27 126.27 181.83 135.47 185.15 135.8C188.47 136.13 211.74 132.55 225.61 135.83C239.48 139.11 256.68 148.6 256.68 148.6L276.12 124.43Z" fill="#EBEBEB"/>
<path d="M298.45 148.53L293.57 155.61L291.38 158.78C288.38 163.13 282.51 164.37 278 161.61L254.08 149.92L272.59 118.47L295.94 134.75C300.43 137.87 301.55 144.03 298.45 148.53Z" fill="#E0E0E0"/>
<path d="M198.54 92.8399C187.32 111.41 181.54 128.46 185.62 130.93C189.7 133.39 202.1 120.34 213.32 101.77C224.54 83.1999 230.32 66.1499 226.24 63.6799C222.15 61.2099 209.75 74.2699 198.54 92.8399Z" fill="#E0E0E0"/>
<path d="M293.08 149.21C292.95 149.42 289.73 147.7 285.89 145.38C282.04 143.05 279.03 141 279.15 140.8C279.27 140.59 282.49 142.31 286.34 144.64C290.19 146.95 293.21 149 293.08 149.21Z" fill="#EBEBEB"/>
<path d="M295.73 144.71C295.6 144.91 292.7 143.26 289.25 141.02C285.8 138.78 283.11 136.79 283.25 136.59C283.38 136.39 286.28 138.04 289.73 140.29C293.17 142.53 295.86 144.51 295.73 144.71Z" fill="#EBEBEB"/>
<path d="M289.86 153.87C289.81 153.98 289.03 153.7 287.79 153.15C287.17 152.88 286.44 152.53 285.64 152.14C284.84 151.74 284.03 151.2 283.15 150.66C279.65 148.5 277.03 146.48 277.14 146.29C277.28 146.07 280.14 147.77 283.6 149.91C284.47 150.44 285.27 151 286.03 151.43C286.8 151.85 287.49 152.24 288.06 152.59C289.22 153.28 289.91 153.76 289.86 153.87Z" fill="#EBEBEB"/>
<path d="M217.14 90.64C217.14 90.64 207.77 83.15 200.59 96.16C193.41 109.17 203.8 112.7 203.8 112.7C208.96 106.46 213.43 99.14 217.14 90.64Z" fill="#FAFAFA"/>
<path d="M229.85 75.63C229.91 75.65 229.65 76.56 229.14 78.2C228.62 79.83 227.88 82.2 226.87 85.11C226.27 86.53 225.61 88.07 224.9 89.73C224.54 90.56 224.17 91.42 223.79 92.3C223.6 92.74 223.41 93.19 223.21 93.64C223 94.09 222.75 94.52 222.52 94.97C221.57 96.76 220.56 98.65 219.53 100.6C219.27 101.09 219.01 101.58 218.74 102.08C218.48 102.58 218.14 103.04 217.85 103.52C217.23 104.48 216.61 105.46 215.97 106.44C215.34 107.43 214.71 108.4 214.09 109.36C213.77 109.83 213.49 110.33 213.15 110.77C212.81 111.22 212.47 111.66 212.13 112.1C210.79 113.85 209.49 115.55 208.25 117.16C207.94 117.56 207.65 117.97 207.32 118.34C206.99 118.71 206.66 119.07 206.34 119.43C205.69 120.14 205.06 120.84 204.46 121.51C203.24 122.84 202.11 124.09 201.07 125.22C198.85 127.33 197.01 128.99 195.74 130.14C194.46 131.28 193.74 131.9 193.7 131.85C193.66 131.81 194.3 131.11 195.51 129.89C196.75 128.65 198.5 126.91 200.65 124.77C201.66 123.62 202.76 122.36 203.93 121.01C204.52 120.34 205.13 119.64 205.76 118.92C206.08 118.56 206.4 118.2 206.72 117.83C207.04 117.45 207.32 117.04 207.63 116.64C208.85 115.03 210.12 113.34 211.44 111.58C211.77 111.14 212.11 110.7 212.44 110.26C212.78 109.82 213.06 109.32 213.37 108.85C213.98 107.9 214.6 106.93 215.23 105.95C215.86 104.97 216.48 104 217.1 103.05C217.4 102.57 217.73 102.11 217.99 101.62C218.25 101.13 218.52 100.64 218.78 100.16C219.83 98.23 220.84 96.37 221.8 94.59C222.04 94.14 222.29 93.72 222.5 93.27C222.7 92.82 222.9 92.38 223.09 91.94C223.48 91.07 223.86 90.22 224.23 89.4C224.97 87.77 225.66 86.24 226.29 84.85C227.34 82.02 228.2 79.71 228.81 78.07C229.43 76.49 229.8 75.61 229.85 75.63Z" fill="#E0E0E0"/>
<path d="M175.66 102.58C175.65 102.72 168.3 102.48 159.25 102.04C150.19 101.6 142.86 101.12 142.86 100.98C142.86 100.84 150.21 101.08 159.27 101.52C168.33 101.96 175.67 102.44 175.66 102.58Z" fill="#EBEBEB"/>
<path d="M182.81 81.15C182.75 81.28 174.23 77.12 163.79 71.85C153.35 66.59 144.94 62.21 145 62.09C145.06 61.96 153.58 66.12 164.02 71.39C174.46 76.65 182.88 81.02 182.81 81.15Z" fill="#EBEBEB"/>
<path d="M195.651 67.34C195.511 67.38 193.671 60.92 191.531 52.92C189.391 44.91 187.771 38.4 187.911 38.36C188.051 38.32 189.891 44.78 192.031 52.79C194.171 60.78 195.791 67.3 195.651 67.34Z" fill="#EBEBEB"/>
<path d="M482.86 85.5C482.16 83.12 480.59 81.05 478.65 79.51C476.75 78 474.42 76.95 471.99 76.85C469.41 76.74 466.8 77.74 464.95 79.54C463.85 80.61 463.03 81.96 462.56 83.42C461.66 82.35 460.53 81.48 459.27 80.9C456.92 79.82 454.13 79.76 451.74 80.73C449.49 81.64 447.65 83.41 446.36 85.48C445.05 87.58 444.26 90.06 444.41 92.54C444.59 95.64 445.75 98.87 447.78 101.22C449.93 103.7 453.01 105.48 456.06 106.66C461.2 108.66 467.94 111.11 467.94 111.11C467.94 111.11 472.45 106.34 476.62 102.72C479.1 100.57 481.41 97.87 482.59 94.81C483.72 91.92 483.73 88.48 482.86 85.5Z" fill="#EBEBEB"/>
<path d="M438.01 59.03C438.08 57.56 437.59 56.1 436.8 54.86C436.02 53.65 434.92 52.61 433.58 52.09C432.16 51.53 430.5 51.59 429.12 52.24C428.3 52.63 427.58 53.23 427.03 53.95C426.73 53.18 426.27 52.47 425.67 51.9C424.56 50.85 423.01 50.27 421.48 50.36C420.04 50.44 418.67 51.08 417.56 51.98C416.42 52.91 415.5 54.14 415.11 55.56C414.61 57.33 414.65 59.36 415.33 61.07C416.06 62.87 417.44 64.46 418.92 65.71C421.42 67.82 424.72 70.49 424.72 70.49C424.72 70.49 428.17 68.68 431.2 67.46C433 66.73 434.81 65.66 436.07 64.18C437.26 62.79 437.92 60.87 438.01 59.03Z" fill="#EBEBEB"/>
<path d="M252.23 385.85C251.66 384.5 250.6 383.38 249.35 382.61C248.13 381.85 246.69 381.39 245.25 381.49C243.72 381.6 242.26 382.36 241.29 383.55C240.72 384.26 240.32 385.1 240.14 385.99C239.54 385.42 238.82 384.98 238.03 384.73C236.58 384.25 234.93 384.41 233.59 385.14C232.33 385.83 231.36 386.99 230.74 388.29C230.11 389.62 229.81 391.13 230.06 392.58C230.37 394.39 231.28 396.21 232.63 397.46C234.06 398.78 235.99 399.61 237.87 400.11C241.03 400.94 245.16 401.93 245.16 401.93C245.16 401.93 247.49 398.82 249.71 396.41C251.03 394.98 252.2 393.23 252.69 391.35C253.17 389.57 252.95 387.55 252.23 385.85Z" fill="#EBEBEB"/>
<path d="M645.68 193.73C645.57 193.74 645.79 191.81 645.08 188.47C644.76 186.8 644.05 184.82 642.9 182.7C641.74 180.59 640.04 178.38 637.69 176.46C635.35 174.56 632.37 172.91 628.88 172.16C625.42 171.43 621.49 171.39 617.69 172.67C615.78 173.25 613.93 174.17 612.21 175.35C611.32 175.91 610.54 176.62 609.73 177.3C608.99 178.06 608.21 178.81 607.56 179.68C604.82 183.05 603.17 187.45 602.95 192.05C602.81 196.65 604.11 201.17 606.58 204.74C607.16 205.66 607.88 206.46 608.56 207.28C609.32 208.02 610.05 208.79 610.89 209.42C612.51 210.73 614.29 211.79 616.14 212.52C619.83 214.09 623.75 214.36 627.26 213.9C630.79 213.42 633.89 212.01 636.37 210.3C638.86 208.57 640.73 206.49 642.05 204.48C643.36 202.46 644.22 200.54 644.67 198.9C645.64 195.65 645.57 193.72 645.68 193.73C645.69 193.73 645.69 193.85 645.68 194.08C645.66 194.35 645.65 194.69 645.62 195.11C645.6 195.56 645.55 196.12 645.42 196.77C645.31 197.42 645.19 198.18 644.92 199C644.5 200.67 643.66 202.64 642.36 204.71C641.05 206.77 639.17 208.92 636.64 210.71C634.12 212.48 630.96 213.96 627.34 214.47C623.75 214.96 619.71 214.71 615.91 213.12C614 212.38 612.16 211.29 610.49 209.95C609.62 209.31 608.88 208.52 608.09 207.75C607.38 206.91 606.64 206.08 606.04 205.14C603.48 201.46 602.14 196.8 602.28 192.06C602.51 187.32 604.21 182.78 607.04 179.31C607.71 178.41 608.51 177.65 609.28 176.86C610.12 176.16 610.93 175.43 611.84 174.85C613.61 173.64 615.52 172.7 617.49 172.11C621.4 170.81 625.44 170.87 628.99 171.64C632.56 172.43 635.6 174.15 637.97 176.11C640.35 178.09 642.06 180.37 643.21 182.53C644.35 184.7 645.03 186.72 645.32 188.42C645.52 189.26 645.58 190.02 645.64 190.68C645.73 191.34 645.73 191.9 645.71 192.35C645.7 192.77 645.69 193.11 645.69 193.38C645.71 193.61 645.7 193.73 645.68 193.73Z" fill="#E0E0E0"/>
<path d="M624.06 215.19C621.59 215.19 618.68 214.81 615.73 213.57C613.8 212.82 611.93 211.73 610.19 210.32C609.48 209.79 608.83 209.15 608.2 208.53L607.76 208.09L607.37 207.64C606.77 206.94 606.15 206.21 605.63 205.39C603.01 201.63 601.65 196.88 601.8 192.02C602.03 187.17 603.76 182.53 606.68 178.97C607.25 178.21 607.93 177.53 608.58 176.87L608.95 176.49L609.46 176.06C610.14 175.49 610.84 174.9 611.61 174.41C613.44 173.16 615.39 172.21 617.38 171.61C621.93 170.1 626.28 170.52 629.13 171.13C632.41 171.86 635.59 173.44 638.33 175.71C640.52 177.53 642.37 179.8 643.69 182.28C644.79 184.37 645.53 186.45 645.85 188.32C646.03 189.07 646.1 189.78 646.16 190.4L646.18 190.62C646.25 191.18 646.28 191.74 646.26 192.36L646.24 193.38C646.23 193.54 646.23 193.66 646.21 193.77C646.22 193.88 646.21 193.99 646.21 194.09L646.15 195.12C646.13 195.73 646.06 196.29 645.94 196.85L645.9 197.06C645.8 197.67 645.68 198.37 645.43 199.13C644.98 200.93 644.07 202.96 642.82 204.95C641.31 207.33 639.28 209.45 636.97 211.09C634.06 213.13 630.77 214.47 627.45 214.94C626.45 215.09 625.31 215.19 624.06 215.19ZM624.09 172.16C622.17 172.16 620.04 172.42 617.86 173.15C616.01 173.71 614.21 174.6 612.51 175.77C611.81 176.21 611.2 176.73 610.55 177.28L609.71 178.06C609.11 178.67 608.49 179.3 607.97 179.99C605.27 183.3 603.68 187.59 603.46 192.09C603.33 196.58 604.59 200.98 607.01 204.48C607.48 205.23 608.05 205.91 608.61 206.56L608.97 206.99L609.38 207.4C609.99 208 610.56 208.57 611.21 209.05C612.83 210.37 614.56 211.39 616.35 212.09C620.46 213.84 624.53 213.79 627.22 213.44C630.3 213.02 633.38 211.8 636.12 209.92C638.3 208.41 640.21 206.45 641.66 204.24C642.87 202.38 643.75 200.5 644.22 198.8C644.88 196.55 645.04 194.95 645.12 194.19C645.14 193.99 645.16 193.84 645.18 193.72C645.17 193.6 645.16 193.45 645.16 193.25C645.14 192.48 645.1 190.88 644.62 188.59C644.28 186.85 643.54 184.9 642.49 182.96C641.22 180.65 639.46 178.54 637.41 176.87C634.83 174.78 631.86 173.33 628.81 172.67C627.5 172.39 625.89 172.16 624.09 172.16Z" fill="#E0E0E0"/>
<path d="M638.291 209.15C638.421 209.03 642.941 213.69 648.381 219.57C653.821 225.45 658.121 230.31 657.981 230.44C657.851 230.56 653.331 225.9 647.891 220.02C642.461 214.14 638.161 209.28 638.291 209.15Z" fill="#E0E0E0"/>
<path d="M658.171 230.94L657.961 230.93C657.761 230.92 657.301 230.91 647.531 220.35C637.761 209.8 637.781 209.33 637.791 209.13L637.801 208.92L637.951 208.77C638.371 208.37 638.411 208.35 641.701 211.75C643.611 213.72 646.111 216.37 648.741 219.22C651.371 222.07 653.821 224.76 655.641 226.82C658.781 230.37 658.741 230.4 658.321 230.79L658.171 230.94Z" fill="#E0E0E0"/>
<path d="M150.08 165.86L145.91 167.53L131.74 158.5L128.41 150.18C128.41 150.18 121.81 152.36 126.93 162.95C132.05 173.54 130.12 171.09 130.12 171.09C130.12 171.09 116.46 176.62 115.8 178.27C115.32 179.46 120.39 193.2 123.2 200.63C124.61 204.37 128.27 206.91 132.07 206.4C132.61 206.33 133.13 206.2 133.62 206.01C137.03 204.64 153.35 194.89 153.35 194.89L160.55 192.01L150.08 165.86Z" fill="#EBEBEB"/>
<path d="M161.1 158.8L169.96 188.33L162.82 191.19L151.63 163.26L161.1 158.8Z" fill="#EBEBEB"/>
<path d="M573.79 381.82L568.88 382.63L555.7 369.46L554.08 359.66C554.08 359.66 546.41 360.44 549.42 373.13C552.43 385.82 550.92 382.71 550.92 382.71C550.92 382.71 534.81 385.43 533.7 387.05C532.89 388.23 535.09 404.31 536.36 413.02C537 417.41 540.35 421.03 544.58 421.39C545.18 421.44 545.78 421.43 546.35 421.34C550.37 420.68 570.37 414.02 570.37 414.02L578.85 412.62L573.79 381.82Z" fill="#F5F5F5"/>
<path d="M587.41 376.81L589.93 410.9L581.52 412.29L576.09 379.37L587.41 376.81Z" fill="#F5F5F5"/>
<path d="M312.69 413.58C317.4 413.17 321.72 409.83 323.36 404.79C325.5 398.19 322.22 391.21 316.04 389.2C309.86 387.19 303.1 390.91 300.96 397.51C299.31 402.59 300.9 407.88 304.53 410.97C286.43 408.05 281.21 427.06 281.21 427.06L321.97 440.31C321.98 440.31 328.98 421.64 312.69 413.58Z" fill="#EBEBEB"/>
<path d="M578.79 362.11H176.63C142.36 362.11 114.58 334.33 114.58 300.06V295.69C114.58 261.42 142.36 233.64 176.63 233.64H578.78C613.05 233.64 640.83 261.42 640.83 295.69V300.06C640.84 334.32 613.06 362.11 578.79 362.11Z" fill="#FF725E"/>
<path d="M578.79 362.11H176.63C142.36 362.11 114.58 334.33 114.58 300.06V295.69C114.58 261.42 142.36 233.64 176.63 233.64H578.78C613.05 233.64 640.83 261.42 640.83 295.69V300.06C640.84 334.32 613.06 362.11 578.79 362.11Z" fill="#293072"/>
<path d="M576.6 351.58H178.82C143.34 351.58 114.58 322.82 114.58 287.34C114.58 251.86 143.34 223.1 178.82 223.1H576.6C612.08 223.1 640.84 251.86 640.84 287.34C640.84 322.82 612.08 351.58 576.6 351.58Z" fill="#293072"/>
<g opacity="0.3">
<g opacity="0.3">
<path opacity="0.3" d="M497.61 223.11C497.61 223.11 494.72 223.18 493.25 223.16C488.23 223.11 479.23 223.11 479.23 223.11L472.79 235.05C474.28 238.19 476.22 241.71 479.63 242.4C481.32 242.74 483.06 242.3 484.7 241.77C488.72 240.47 492.59 238.59 495.87 235.94C497.85 234.34 499.67 232.36 500.29 229.9C500.93 227.42 499.91 224.19 497.61 223.11Z" fill="black"/>
</g>
</g>
<g opacity="0.3">
<g opacity="0.3">
<path opacity="0.3" d="M268.81 235.94C267.3 232.23 264.89 225.57 261.74 223.1C261.74 223.1 241.57 223.45 241.47 223.09L250.84 256.65C253.89 259.04 255.36 262.34 256.33 265.46C257.3 268.58 258.1 271.93 260.36 274.28C262.63 276.63 267.01 277.31 268.96 274.69C271.14 271.76 268.76 267.69 268.69 264.04C268.62 260.39 270.93 257.17 271.87 253.64C273.45 247.75 271.11 241.59 268.81 235.94Z" fill="black"/>
</g>
</g>
<path d="M420.54 119.41C421.93 115.86 423.35 112.2 423.37 108.37C423.39 104.54 421.7 100.44 418.34 98.81C415.24 97.3 411.51 98.17 408.23 97.11C404.19 95.81 401.54 91.86 399.64 87.95C397.74 84.05 396.19 79.8 393.1 76.82C389 72.86 382.41 72.06 377.45 74.71C373.75 72.25 368.97 71.02 365.34 71.02C359.95 71.02 353.83 71.64 350.19 75.61C347.37 78.69 345.63 82.56 342.12 84.83C337.29 87.95 330.93 85.62 325.19 86.01C324.02 86.09 322.66 86.43 322.21 87.51C321.82 88.45 322.3 89.5 322.76 90.4C324.34 93.44 325.91 96.49 327.49 99.53C325.11 100.72 322.18 100.74 319.79 99.58C320.23 105.62 322.88 111.48 327.12 115.81C326.08 115.12 324.57 115.91 324.09 117.07C323.62 118.23 323.89 119.55 324.25 120.74C326.48 128.08 332 134.35 339.01 137.48C346.01 140.61 354.37 140.55 361.32 137.32L393.07 138.73C394.02 141.17 396.19 143.07 398.69 143.63C402.16 140.9 402.68 139.4 402.68 139.4C404.91 140.96 403.17 140.19 404.91 140.96C408.89 142.71 414.63 140.31 415.38 135.91C415.69 134.07 416.15 132.3 417.34 131.02C418.56 129.71 420.33 129.16 421.89 128.32C424.34 126.99 426.35 124.8 427.51 122.2C424.96 122.3 422.37 121.26 420.54 119.41Z" fill="#263238"/>
<path d="M342.25 107.37C342.37 91.47 354.67 78.33 370.53 77.17L372.11 77.05C389.17 76.8 398.92 91.14 398.7 108.21L401.24 186.78L362.29 189.56L360.82 164.03C360.82 164.03 344.3 162.69 342.9 146.38C342.21 138.5 342.14 122.16 342.25 107.37Z" fill="#FFBE9D"/>
<path d="M350.43 119.72C350.48 120.95 351.561 121.93 352.851 121.91C354.141 121.88 355.151 120.87 355.101 119.63C355.051 118.4 353.97 117.42 352.68 117.44C351.39 117.46 350.38 118.49 350.43 119.72Z" fill="#263238"/>
<path d="M347.18 113.62C347.49 113.9 349.16 112.47 351.67 112.29C354.17 112.08 356.11 113.23 356.36 112.91C356.48 112.76 356.15 112.24 355.3 111.71C354.47 111.19 353.08 110.72 351.52 110.84C349.96 110.96 348.69 111.63 347.97 112.28C347.25 112.93 347.03 113.5 347.18 113.62Z" fill="#263238"/>
<path d="M363.81 134.01C363.81 133.87 362.23 133.71 359.68 133.57C359.03 133.55 358.42 133.47 358.28 133.04C358.1 132.59 358.31 131.88 358.57 131.11C359.06 129.52 359.57 127.84 360.11 126.09C362.23 118.95 363.72 113.1 363.43 113.02C363.14 112.94 361.19 118.66 359.07 125.8C358.56 127.56 358.08 129.24 357.61 130.84C357.42 131.59 357.06 132.44 357.46 133.38C357.67 133.85 358.16 134.16 358.58 134.24C359 134.34 359.36 134.32 359.68 134.31C362.23 134.25 363.81 134.15 363.81 134.01Z" fill="#263238"/>
<path d="M346.41 107.58C346.99 108.12 349.07 107.39 351.61 107.2C354.15 106.94 356.34 107.29 356.8 106.66C357 106.36 356.62 105.81 355.65 105.33C354.69 104.85 353.11 104.51 351.36 104.66C349.61 104.82 348.13 105.43 347.28 106.07C346.41 106.71 346.15 107.32 346.41 107.58Z" fill="#263238"/>
<path d="M397.11 120.48C397.38 120.34 408.09 116.34 408.55 127.53C409.01 138.72 397.68 136.87 397.65 136.55C397.61 136.24 397.11 120.48 397.11 120.48Z" fill="#FFBE9D"/>
<path d="M399.9 132.24C399.95 132.2 400.1 132.37 400.44 132.51C400.77 132.64 401.32 132.72 401.9 132.48C403.06 132 403.98 130.08 403.95 128.06C403.94 127.04 403.68 126.08 403.29 125.29C402.91 124.49 402.36 123.94 401.76 123.85C401.16 123.74 400.76 124.11 400.63 124.43C400.49 124.75 400.57 124.97 400.51 124.99C400.48 125.02 400.26 124.81 400.33 124.35C400.37 124.13 400.49 123.86 400.74 123.63C401 123.4 401.39 123.27 401.81 123.3C402.68 123.32 403.48 124.09 403.92 124.95C404.4 125.82 404.71 126.9 404.72 128.04C404.74 130.3 403.67 132.46 402.08 132.99C401.3 133.23 400.63 133.02 400.29 132.77C399.94 132.51 399.87 132.27 399.9 132.24Z" fill="#EB996E"/>
<path d="M400.89 94.92C400.89 94.92 400.02 90.72 396.54 85.89C390.68 77.76 377.32 73.96 369.74 74.64C362.16 75.31 354.28 80.94 347.21 83.76C342.58 85.61 339.07 89.86 340.83 93.15C338.07 94.2 335.22 94.91 332.25 95.03C332.25 95.03 331.98 99.21 334.3 100.31L341.6 105.09C351.33 106.38 368.41 96.8 371.71 93.78C374.56 91.17 378.62 88.16 381.77 86.56C378.67 94.69 388.76 92.89 388.5 96.04C385.41 107.47 394.73 111.69 394.73 111.69L394.96 121.67C394.75 124.23 395.85 126.21 398.42 126.03C398.42 126.03 401.19 122.21 401.67 119.1C402.59 113.1 402.02 100.91 400.89 94.92Z" fill="#263238"/>
<path d="M360.67 164.02C360.67 164.02 371.14 163.88 381.61 156.19C381.61 156.19 377.44 168.31 361.04 168.03L360.67 164.02Z" fill="#EB996E"/>
<path d="M373.95 118.22C374 119.45 375.08 120.43 376.37 120.41C377.66 120.38 378.67 119.37 378.62 118.13C378.57 116.9 377.49 115.92 376.2 115.94C374.91 115.97 373.91 116.99 373.95 118.22Z" fill="#263238"/>
<path d="M371.26 112.36C371.57 112.68 373.54 111.44 376.29 111.54C379.03 111.61 381.01 112.98 381.32 112.68C381.47 112.55 381.17 111.99 380.3 111.37C379.45 110.76 378 110.14 376.28 110.08C374.57 110.03 373.11 110.55 372.27 111.11C371.41 111.68 371.11 112.22 371.26 112.36Z" fill="#263238"/>
<path d="M371.01 104.49C371.25 105.18 373.77 104.87 376.72 105.25C379.68 105.57 382.05 106.45 382.45 105.84C382.63 105.55 382.22 104.9 381.26 104.23C380.31 103.56 378.79 102.92 377.02 102.71C375.25 102.5 373.62 102.77 372.55 103.2C371.45 103.63 370.9 104.17 371.01 104.49Z" fill="#263238"/>
<path d="M363.58 138.84C364.86 138.29 368.67 137.44 370.03 137.2L371.62 136.7C372.42 137.65 372.58 140.33 371.98 141.42C371.36 142.55 370.15 143.28 368.89 143.54C367.99 143.72 366.98 143.67 366.25 143.11C366.25 143.11 364.19 142.3 363.58 138.84Z" fill="#EB996E"/>
<path d="M367.93 143.55C367.91 143.45 369.02 143.58 370.3 142.61C370.92 142.13 371.52 141.37 371.82 140.37C372.12 139.38 372.17 138.19 371.8 137.05C371.78 136.99 371.76 136.93 371.74 136.87L372.04 137.03C369.64 137.56 367.47 138.02 365.9 138.32C364.33 138.62 363.35 138.78 363.33 138.71C363.31 138.64 364.26 138.36 365.82 137.97C367.37 137.57 369.53 137.06 371.93 136.53L372.16 136.48L372.23 136.7C372.25 136.76 372.27 136.83 372.29 136.89C372.69 138.14 372.63 139.44 372.27 140.51C371.92 141.59 371.22 142.42 370.52 142.9C369.81 143.39 369.12 143.57 368.66 143.6C368.18 143.64 367.92 143.58 367.93 143.55Z" fill="#263238"/>
<path d="M418.81 129.08C418.81 129.08 418.56 129.08 418.14 128.91C417.72 128.73 417.12 128.36 416.58 127.66C416.05 126.97 415.57 125.96 415.43 124.72C415.27 123.48 415.42 122.07 415.6 120.55C415.77 119.04 415.94 117.34 415.38 115.67C415.1 114.85 414.6 114.08 413.88 113.5C413.17 112.9 412.29 112.47 411.38 112.04C410.47 111.61 409.49 111.19 408.6 110.54C407.69 109.92 406.95 108.98 406.52 107.93C405.61 105.81 405.7 103.42 405.2 101.2C404.94 100.08 404.55 99 403.88 98.14C403.22 97.26 402.26 96.7301 401.21 96.5101C400.17 96.2701 399.07 96.23 398 96.02C396.94 95.82 395.86 95.3401 395.16 94.5101C394.46 93.6801 394.12 92.68 393.89 91.74C393.65 90.79 393.52 89.87 393.32 89C393.13 88.13 392.85 87.33 392.48 86.59C392.08 85.87 391.65 85.2101 391.14 84.6501C389.11 82.3801 386.62 81.54 384.97 81.28C383.28 81.06 382.33 81.2901 382.33 81.2201C382.33 81.2201 383.26 80.9101 385 81.0801C386.69 81.2801 389.27 82.0801 391.41 84.4001C391.95 84.9701 392.41 85.6501 392.83 86.4001C393.22 87.1601 393.53 88.0101 393.73 88.9001C393.94 89.7901 394.09 90.71 394.32 91.63C394.55 92.54 394.89 93.47 395.51 94.2C396.14 94.93 397.06 95.3501 398.08 95.5401C399.1 95.7401 400.19 95.77 401.3 96.02C402.41 96.24 403.54 96.8601 404.26 97.8301C405 98.7801 405.41 99.93 405.68 101.09C406.2 103.42 406.11 105.75 406.97 107.74C407.38 108.73 408.03 109.56 408.87 110.15C409.7 110.76 410.65 111.18 411.56 111.62C412.48 112.06 413.39 112.52 414.15 113.16C414.93 113.79 415.48 114.65 415.77 115.54C416.34 117.34 416.13 119.09 415.94 120.61C415.73 122.13 415.57 123.5 415.69 124.7C415.8 125.89 416.23 126.87 416.72 127.55C417.76 128.94 418.86 129.02 418.81 129.08Z" fill="#455A64"/>
<path d="M328.82 89.2801C328.83 89.2701 329 89.3801 329.32 89.6001C329.69 89.8501 330.15 90.1701 330.72 90.5601C331.95 91.3701 333.76 92.5301 336.23 93.4101C338.67 94.2801 341.92 94.7401 345.18 93.5901C346.79 93.0201 348.33 91.9901 349.46 90.5201C350.62 89.0601 351.45 87.2701 352.39 85.4801C353.32 83.6801 354.47 81.9801 355.95 80.7201C357.41 79.4401 359.09 78.5601 360.75 77.9501C364.11 76.7501 367.41 76.8101 370.01 77.2701C372.64 77.7301 374.66 78.5301 376.01 79.1301C376.69 79.4401 377.2 79.7001 377.54 79.8801C377.88 80.0701 378.06 80.1701 378.05 80.1901C378.04 80.2101 377.85 80.1301 377.5 79.9701C377.14 79.8101 376.62 79.5801 375.94 79.3101C374.57 78.7701 372.56 78.0301 369.96 77.6301C367.39 77.2301 364.17 77.2101 360.92 78.4001C359.31 79.0001 357.69 79.8701 356.29 81.1001C354.87 82.3201 353.78 83.9401 352.85 85.7201C351.91 87.4901 351.07 89.3101 349.86 90.8301C348.67 92.3701 347.02 93.4601 345.34 94.0401C341.93 95.2201 338.57 94.6901 336.1 93.7601C333.59 92.8201 331.8 91.5901 330.6 90.7301C330 90.2901 329.55 89.9301 329.25 89.6801C328.96 89.4301 328.81 89.2901 328.82 89.2801Z" fill="#455A64"/>
<path d="M324.6 104.13C324.66 104.06 325.43 104.73 326.82 105.59C328.2 106.45 330.25 107.42 332.67 107.97C335.09 108.51 337.36 108.52 338.98 108.34C340.6 108.17 341.58 107.89 341.61 107.98C341.62 108.01 341.38 108.11 340.94 108.26C340.5 108.41 339.85 108.57 339.03 108.71C337.39 108.99 335.05 109.04 332.56 108.48C330.07 107.91 327.98 106.85 326.62 105.9C325.94 105.43 325.41 105 325.08 104.67C324.74 104.35 324.57 104.16 324.6 104.13Z" fill="#455A64"/>
<path d="M334 113.48C334.06 113.34 335.77 114.04 337.98 114.4C340.19 114.78 342.03 114.68 342.04 114.84C342.06 114.97 340.19 115.31 337.9 114.92C335.59 114.53 333.93 113.6 334 113.48Z" fill="#455A64"/>
<path d="M361.35 173.55L329.24 182.39L294.61 207.42L303.85 223.22L467.16 223.5C467.16 223.5 461.21 201.67 459.25 194.97C456.3 184.86 452.3 182 448.64 178.31C447.53 177.19 444.35 175.22 442.81 174.88C436.36 173.47 406.46 166.76 400.64 166.92C400.64 166.92 393.93 180.79 379.87 180.65C365.83 180.52 361.35 173.55 361.35 173.55Z" fill="#527EE9"/>
<path d="M427.54 199.18C427.64 199.21 427.94 197.86 428.89 195.89C429.82 193.91 431.51 191.37 433.84 188.97C436.17 186.57 438.59 184.7 440.33 183.34C442.08 181.99 443.15 181.14 443.1 181.07C443.05 181.01 441.89 181.73 440.08 183C438.28 184.28 435.79 186.11 433.42 188.55C431.04 190.99 429.36 193.64 428.51 195.71C428.08 196.74 427.81 197.61 427.68 198.22C427.54 198.83 427.5 199.17 427.54 199.18Z" fill="#527EE9"/>
<path d="M330.01 216.52C330.09 216.52 330.14 215.22 330.12 213.12C330.1 211.02 329.99 208.13 329.74 204.94C329.5 201.75 329.17 198.87 328.87 196.79C328.58 194.71 328.33 193.44 328.25 193.45C328.17 193.46 328.27 194.75 328.46 196.84C328.65 199.11 328.89 201.9 329.15 204.98C329.36 208.07 329.55 210.86 329.7 213.13C329.83 215.23 329.93 216.53 330.01 216.52Z" fill="#527EE9"/>
<g opacity="0.3">
<g opacity="0.3">
<g opacity="0.3">
<path opacity="0.3" d="M320.381 220.68C323.021 219.9 325.711 218.9 327.671 216.96C329.631 215.02 330.681 211.92 329.511 209.42C333.251 217.72 342.281 223.33 351.381 223.02L312.641 223.5C315.001 222.1 317.731 221.46 320.381 220.68Z" fill="#527EE9"/>
</g>
</g>
</g>
<path d="M503.08 223.42C503.08 223.42 499.15 218.08 497.22 217.07C495.29 216.06 492.62 216.09 491.45 217.14C490.28 218.19 490.28 218.19 490.28 218.19C490.28 218.19 484.19 215.45 481.25 217.56C481.25 217.56 475.45 214.82 472.68 217.96C472.68 217.96 468.21 215.06 466.32 217.59C464.43 220.13 464.63 224.41 465.54 226.62C466.45 228.83 468.17 236.35 469.5 236.48C469.5 236.48 473.06 236.86 473.54 234.93C474.02 233 474.22 232.08 474.22 232.08C474.22 232.08 475.58 238.9 477.22 239.23C478.86 239.57 481.99 239.39 482.1 236.4C482.1 236.4 483.62 238.66 485.11 238C486.6 237.34 488.43 236.25 488.27 234.4C488.11 232.55 488.08 230.7 488.08 230.7C488.08 230.7 488.89 233.39 490.24 232.81C491.59 232.22 492.94 232.35 493.69 230.06C494.45 227.77 496.32 223.42 496.32 223.42H503.08Z" fill="#FFBE9D"/>
<path d="M488.19 230.55C488.27 230.51 487.92 229.81 487.61 228.62C487.29 227.44 487.07 225.73 487.41 223.9C487.75 222.07 488.57 220.55 489.29 219.56C490.01 218.56 490.59 218.04 490.52 217.97C490.48 217.92 489.79 218.33 488.96 219.3C488.13 220.26 487.19 221.84 486.83 223.79C486.47 225.74 486.77 227.55 487.21 228.74C487.64 229.96 488.14 230.59 488.19 230.55Z" fill="#EB996E"/>
<path d="M480.88 217.6C480.81 217.58 480.44 218.59 480.1 220.28C479.76 221.97 479.52 224.38 479.69 227.02C479.87 229.66 480.43 232.01 481 233.64C481.56 235.28 482.07 236.22 482.13 236.19C482.32 236.13 480.6 232.18 480.28 226.97C479.91 221.78 481.07 217.63 480.88 217.6Z" fill="#EB996E"/>
<path d="M472.55 218.05C472.4 218.03 472 221.28 472.46 225.26C472.91 229.25 474.04 232.31 474.18 232.26C474.35 232.21 473.49 229.11 473.05 225.19C472.59 221.27 472.72 218.06 472.55 218.05Z" fill="#EB996E"/>
<path d="M448.56 219.58C448.81 218.95 449.44 218.53 450.09 218.34C451.62 217.9 453.29 218.5 454.51 219.52C455.73 220.54 456.91 222.14 457.74 223.5L449.1 223.44C449.19 222.12 448.08 220.81 448.56 219.58Z" fill="#FFBE9D"/>
<path d="M229.6 225.75C230.14 220.39 233.12 215.59 237.69 212.75C241.32 210.61 245.72 210.17 249.7 211.56L266.37 217.37C267.27 218.33 294.78 207.73 294.78 207.73L304.02 223.51L251.44 223.44C255.23 227.91 260.62 232.85 260.62 232.85L264.19 244.71L263.83 255.44C261.94 256.31 259.12 253 259.12 253L257.47 256.03L258.02 258.95C258.02 258.95 262.88 270.75 262.71 273.37C262.64 274.42 261.97 274.79 261.18 274.86C259.77 274.98 258.45 274.15 257.8 272.9L250.89 259.47C250.89 259.47 245.54 258.16 243.67 256.4C241.71 254.55 238.93 251.22 238.93 251.22L235.54 250.74C235.23 250.82 234.81 250.72 234.37 250.51C232.54 249.65 231.31 247.89 230.93 245.91L229.21 236.86C228.84 234.85 229.17 230.09 229.6 225.75Z" fill="#FFBE9D"/>
<path d="M245.26 249.12C245.12 249.16 245.84 251.77 247.43 254.67C249.02 257.58 250.83 259.59 250.94 259.5C251.07 259.4 249.48 257.27 247.92 254.41C246.35 251.56 245.41 249.07 245.26 249.12Z" fill="#EB996E"/>
<path d="M237.24 248.14C237.07 248.21 237.69 249.6 238.77 251.06C239.83 252.53 240.84 253.61 240.95 253.52C241.08 253.42 240.27 252.19 239.22 250.74C238.15 249.28 237.35 248.09 237.24 248.14Z" fill="#EB996E"/>
<path d="M259.11 261.62C259.19 261.59 258.77 260.36 258.17 258.34C257.56 256.33 256.77 253.53 256 250.42C255.61 248.86 255.26 247.38 254.96 246.02C254.65 244.67 254.49 243.45 254.6 242.43C254.81 240.35 255.96 239.45 255.87 239.41C255.85 239.39 255.55 239.55 255.17 240.02C254.79 240.49 254.37 241.3 254.21 242.37C254.04 243.45 254.17 244.75 254.46 246.12C254.74 247.49 255.07 248.99 255.46 250.55C256.24 253.67 257.09 256.47 257.8 258.46C258.5 260.45 259.05 261.64 259.11 261.62Z" fill="#EB996E"/>
<path d="M255.5 241.68C255.43 241.74 256 242.38 256.66 243.57C257.32 244.75 258.02 246.53 258.15 248.58C258.21 249.59 258.15 250.65 258.4 251.57C258.61 252.53 259.16 253.25 259.66 253.74C260.69 254.72 261.5 255.06 261.53 255.02C261.59 254.94 260.85 254.47 259.95 253.47C259.51 252.97 259.06 252.3 258.9 251.45C258.69 250.59 258.77 249.62 258.71 248.53C258.57 246.36 257.77 244.51 257 243.35C256.22 242.19 255.54 241.64 255.5 241.68Z" fill="#EB996E"/>
<path d="M251.58 223.57C251.68 223.44 249.73 221.82 247.76 219.41C245.77 217.03 244.53 214.78 244.35 214.92C244.31 214.9 244.54 215.53 245.04 216.43C245.54 217.34 246.32 218.54 247.33 219.76C249.34 222.23 251.5 223.69 251.58 223.57Z" fill="#EB996E"/>
<g opacity="0.3">
<path opacity="0.3" d="M424.55 223.42L425.21 208.36L414.63 223.41L424.55 223.42Z" fill="black"/>
</g>
<path d="M424.55 223.42C424.41 223.41 424.51 219.42 424.78 214.5C425.05 209.58 425.39 205.6 425.53 205.61C425.67 205.62 425.57 209.61 425.3 214.53C425.04 219.45 424.7 223.43 424.55 223.42Z" fill="#263238"/>
<path d="M160.053 288.277C159.619 287.482 159.023 286.876 158.263 286.46C157.504 286.044 156.618 285.836 155.605 285.836C154.484 285.836 153.489 286.089 152.621 286.596C151.753 287.102 151.075 287.825 150.587 288.766C150.099 289.706 149.854 290.791 149.854 292.021C149.854 293.287 150.099 294.39 150.587 295.33C151.093 296.27 151.789 296.994 152.675 297.5C153.561 298.006 154.592 298.259 155.768 298.259C157.214 298.259 158.399 297.88 159.321 297.12C160.243 296.343 160.849 295.267 161.138 293.892H154.628V290.99H164.882V294.299C164.628 295.619 164.086 296.84 163.254 297.961C162.422 299.082 161.346 299.986 160.026 300.674C158.724 301.343 157.259 301.677 155.632 301.677C153.806 301.677 152.151 301.27 150.668 300.457C149.203 299.625 148.046 298.476 147.196 297.012C146.364 295.547 145.948 293.883 145.948 292.021C145.948 290.158 146.364 288.494 147.196 287.03C148.046 285.547 149.203 284.399 150.668 283.585C152.151 282.753 153.797 282.337 155.605 282.337C157.739 282.337 159.592 282.862 161.165 283.91C162.739 284.941 163.824 286.397 164.42 288.277H160.053ZM181.66 293.675C181.66 294.218 181.624 294.706 181.552 295.14H170.566C170.657 296.225 171.037 297.075 171.706 297.69C172.375 298.305 173.197 298.612 174.174 298.612C175.584 298.612 176.588 298.006 177.185 296.795H181.281C180.847 298.241 180.015 299.435 178.785 300.375C177.556 301.297 176.046 301.759 174.255 301.759C172.809 301.759 171.507 301.442 170.349 300.809C169.21 300.158 168.315 299.245 167.664 298.07C167.031 296.894 166.715 295.538 166.715 294.001C166.715 292.446 167.031 291.08 167.664 289.905C168.297 288.73 169.183 287.825 170.322 287.192C171.461 286.56 172.773 286.243 174.255 286.243C175.684 286.243 176.959 286.55 178.08 287.165C179.219 287.78 180.096 288.657 180.711 289.796C181.344 290.918 181.66 292.211 181.66 293.675ZM177.727 292.59C177.709 291.614 177.357 290.836 176.669 290.258C175.982 289.661 175.141 289.362 174.147 289.362C173.207 289.362 172.411 289.652 171.76 290.23C171.127 290.791 170.738 291.578 170.593 292.59H177.727ZM188.854 289.607V296.876C188.854 297.382 188.971 297.753 189.206 297.988C189.459 298.205 189.875 298.314 190.454 298.314H192.217V301.514H189.83C186.629 301.514 185.029 299.959 185.029 296.849V289.607H183.239V286.487H185.029V282.771H188.854V286.487H192.217V289.607H188.854ZM207.949 301.704C206.629 301.704 205.435 301.478 204.368 301.026C203.32 300.574 202.488 299.923 201.873 299.073C201.258 298.223 200.942 297.22 200.924 296.062H204.992C205.047 296.84 205.318 297.455 205.806 297.907C206.312 298.359 207 298.585 207.868 298.585C208.754 298.585 209.45 298.377 209.956 297.961C210.463 297.527 210.716 296.966 210.716 296.279C210.716 295.719 210.544 295.258 210.2 294.896C209.857 294.534 209.423 294.254 208.898 294.055C208.392 293.838 207.687 293.603 206.783 293.35C205.553 292.988 204.549 292.636 203.772 292.292C203.012 291.93 202.352 291.397 201.792 290.692C201.249 289.968 200.978 289.01 200.978 287.816C200.978 286.695 201.258 285.719 201.819 284.887C202.379 284.055 203.166 283.422 204.179 282.988C205.191 282.536 206.349 282.31 207.651 282.31C209.604 282.31 211.186 282.789 212.397 283.748C213.627 284.688 214.305 286.008 214.432 287.708H210.255C210.218 287.057 209.938 286.523 209.414 286.107C208.907 285.673 208.229 285.456 207.379 285.456C206.638 285.456 206.041 285.646 205.589 286.026C205.155 286.406 204.938 286.957 204.938 287.681C204.938 288.187 205.101 288.612 205.426 288.956C205.77 289.281 206.186 289.552 206.674 289.769C207.18 289.968 207.886 290.203 208.79 290.475C210.019 290.836 211.023 291.198 211.801 291.56C212.578 291.921 213.247 292.464 213.808 293.187C214.368 293.91 214.649 294.86 214.649 296.035C214.649 297.048 214.387 297.988 213.862 298.856C213.338 299.724 212.569 300.42 211.557 300.945C210.544 301.451 209.341 301.704 207.949 301.704ZM222.362 289.607V296.876C222.362 297.382 222.48 297.753 222.715 297.988C222.968 298.205 223.384 298.314 223.963 298.314H225.726V301.514H223.339C220.138 301.514 218.538 299.959 218.538 296.849V289.607H216.748V286.487H218.538V282.771H222.362V286.487H225.726V289.607H222.362ZM227.481 293.947C227.481 292.428 227.779 291.08 228.376 289.905C228.991 288.73 229.814 287.825 230.844 287.192C231.893 286.56 233.059 286.243 234.343 286.243C235.465 286.243 236.441 286.469 237.273 286.921C238.123 287.373 238.801 287.943 239.307 288.63V286.487H243.132V301.514H239.307V299.317C238.819 300.023 238.141 300.61 237.273 301.08C236.423 301.532 235.437 301.759 234.316 301.759C233.05 301.759 231.893 301.433 230.844 300.782C229.814 300.131 228.991 299.218 228.376 298.042C227.779 296.849 227.481 295.484 227.481 293.947ZM239.307 294.001C239.307 293.079 239.126 292.292 238.765 291.641C238.403 290.972 237.915 290.466 237.3 290.122C236.685 289.76 236.025 289.579 235.32 289.579C234.615 289.579 233.964 289.751 233.367 290.095C232.77 290.438 232.282 290.945 231.902 291.614C231.54 292.265 231.36 293.042 231.36 293.947C231.36 294.851 231.54 295.646 231.902 296.334C232.282 297.003 232.77 297.518 233.367 297.88C233.982 298.241 234.633 298.422 235.32 298.422C236.025 298.422 236.685 298.25 237.3 297.907C237.915 297.545 238.403 297.039 238.765 296.388C239.126 295.719 239.307 294.923 239.307 294.001ZM250.638 288.82C251.126 288.024 251.759 287.4 252.537 286.948C253.333 286.496 254.237 286.27 255.249 286.27V290.258H254.246C253.052 290.258 252.148 290.538 251.533 291.098C250.937 291.659 250.638 292.636 250.638 294.028V301.514H246.841V286.487H250.638V288.82ZM262.229 289.607V296.876C262.229 297.382 262.346 297.753 262.581 297.988C262.834 298.205 263.25 298.314 263.829 298.314H265.592V301.514H263.205C260.004 301.514 258.404 299.959 258.404 296.849V289.607H256.614V286.487H258.404V282.771H262.229V286.487H265.592V289.607H262.229ZM282.293 293.675C282.293 294.218 282.257 294.706 282.184 295.14H271.199C271.289 296.225 271.669 297.075 272.338 297.69C273.007 298.305 273.83 298.612 274.806 298.612C276.217 298.612 277.22 298.006 277.817 296.795H281.913C281.479 298.241 280.647 299.435 279.418 300.375C278.188 301.297 276.678 301.759 274.888 301.759C273.441 301.759 272.139 301.442 270.982 300.809C269.842 300.158 268.947 299.245 268.296 298.07C267.663 296.894 267.347 295.538 267.347 294.001C267.347 292.446 267.663 291.08 268.296 289.905C268.929 288.73 269.815 287.825 270.955 287.192C272.094 286.56 273.405 286.243 274.888 286.243C276.316 286.243 277.591 286.55 278.712 287.165C279.852 287.78 280.729 288.657 281.343 289.796C281.976 290.918 282.293 292.211 282.293 293.675ZM278.36 292.59C278.342 291.614 277.989 290.836 277.302 290.258C276.615 289.661 275.774 289.362 274.779 289.362C273.839 289.362 273.043 289.652 272.392 290.23C271.759 290.791 271.37 291.578 271.226 292.59H278.36ZM284.088 293.947C284.088 292.428 284.386 291.08 284.983 289.905C285.598 288.73 286.43 287.825 287.479 287.192C288.528 286.56 289.694 286.243 290.978 286.243C291.954 286.243 292.886 286.46 293.772 286.894C294.658 287.31 295.363 287.871 295.887 288.576V281.442H299.739V301.514H295.887V299.29C295.417 300.032 294.757 300.628 293.907 301.08C293.057 301.532 292.072 301.759 290.951 301.759C289.685 301.759 288.528 301.433 287.479 300.782C286.43 300.131 285.598 299.218 284.983 298.042C284.386 296.849 284.088 295.484 284.088 293.947ZM295.915 294.001C295.915 293.079 295.734 292.292 295.372 291.641C295.01 290.972 294.522 290.466 293.907 290.122C293.292 289.76 292.632 289.579 291.927 289.579C291.222 289.579 290.571 289.751 289.974 290.095C289.377 290.438 288.889 290.945 288.509 291.614C288.148 292.265 287.967 293.042 287.967 293.947C287.967 294.851 288.148 295.646 288.509 296.334C288.889 297.003 289.377 297.518 289.974 297.88C290.589 298.241 291.24 298.422 291.927 298.422C292.632 298.422 293.292 298.25 293.907 297.907C294.522 297.545 295.01 297.039 295.372 296.388C295.734 295.719 295.915 294.923 295.915 294.001ZM330.743 286.487L326.349 301.514H322.253L319.514 291.017L316.774 301.514H312.651L308.23 286.487H312.081L314.74 297.934L317.615 286.487H321.629L324.45 297.907L327.109 286.487H330.743ZM334.724 284.697C334.055 284.697 333.494 284.489 333.042 284.073C332.608 283.639 332.391 283.106 332.391 282.473C332.391 281.84 332.608 281.315 333.042 280.899C333.494 280.465 334.055 280.248 334.724 280.248C335.393 280.248 335.945 280.465 336.379 280.899C336.831 281.315 337.057 281.84 337.057 282.473C337.057 283.106 336.831 283.639 336.379 284.073C335.945 284.489 335.393 284.697 334.724 284.697ZM336.596 286.487V301.514H332.798V286.487H336.596ZM344.769 289.607V296.876C344.769 297.382 344.886 297.753 345.121 297.988C345.375 298.205 345.791 298.314 346.369 298.314H348.132V301.514H345.745C342.545 301.514 340.944 299.959 340.944 296.849V289.607H339.154V286.487H340.944V282.771H344.769V286.487H348.132V289.607H344.769ZM359.327 286.27C360.466 286.27 361.479 286.523 362.365 287.03C363.251 287.518 363.938 288.25 364.426 289.227C364.932 290.185 365.186 291.343 365.186 292.699V301.514H361.388V293.214C361.388 292.021 361.09 291.107 360.493 290.475C359.896 289.824 359.083 289.498 358.052 289.498C357.003 289.498 356.171 289.824 355.556 290.475C354.96 291.107 354.661 292.021 354.661 293.214V301.514H350.864V281.442H354.661V288.359C355.149 287.708 355.8 287.201 356.614 286.84C357.428 286.46 358.332 286.27 359.327 286.27ZM389.067 288.44C389.067 289.453 388.823 290.402 388.334 291.288C387.864 292.174 387.114 292.889 386.083 293.431C385.07 293.974 383.786 294.245 382.231 294.245H379.058V301.514H375.26V282.581H382.231C383.696 282.581 384.944 282.834 385.975 283.341C387.005 283.847 387.774 284.543 388.28 285.429C388.805 286.315 389.067 287.319 389.067 288.44ZM382.069 291.18C383.117 291.18 383.895 290.945 384.401 290.475C384.908 289.986 385.161 289.308 385.161 288.44C385.161 286.596 384.13 285.673 382.069 285.673H379.058V291.18H382.069ZM395.56 288.82C396.049 288.024 396.682 287.4 397.459 286.948C398.255 286.496 399.159 286.27 400.172 286.27V290.258H399.168C397.975 290.258 397.07 290.538 396.456 291.098C395.859 291.659 395.56 292.636 395.56 294.028V301.514H391.763V286.487H395.56V288.82ZM416.699 293.675C416.699 294.218 416.663 294.706 416.59 295.14H405.605C405.695 296.225 406.075 297.075 406.744 297.69C407.413 298.305 408.236 298.612 409.212 298.612C410.623 298.612 411.626 298.006 412.223 296.795H416.319C415.885 298.241 415.053 299.435 413.824 300.375C412.594 301.297 411.084 301.759 409.294 301.759C407.847 301.759 406.545 301.442 405.388 300.809C404.248 300.158 403.353 299.245 402.702 298.07C402.069 296.894 401.753 295.538 401.753 294.001C401.753 292.446 402.069 291.08 402.702 289.905C403.335 288.73 404.221 287.825 405.361 287.192C406.5 286.56 407.811 286.243 409.294 286.243C410.722 286.243 411.997 286.55 413.118 287.165C414.258 287.78 415.135 288.657 415.749 289.796C416.382 290.918 416.699 292.211 416.699 293.675ZM412.766 292.59C412.748 291.614 412.395 290.836 411.708 290.258C411.021 289.661 410.18 289.362 409.185 289.362C408.245 289.362 407.449 289.652 406.798 290.23C406.165 290.791 405.776 291.578 405.632 292.59H412.766ZM438.133 286.27C439.977 286.27 441.46 286.84 442.581 287.979C443.72 289.1 444.29 290.673 444.29 292.699V301.514H440.492V293.214C440.492 292.039 440.194 291.144 439.597 290.529C439.001 289.896 438.187 289.579 437.156 289.579C436.125 289.579 435.302 289.896 434.688 290.529C434.091 291.144 433.793 292.039 433.793 293.214V301.514H429.995V293.214C429.995 292.039 429.697 291.144 429.1 290.529C428.503 289.896 427.689 289.579 426.659 289.579C425.61 289.579 424.778 289.896 424.163 290.529C423.566 291.144 423.268 292.039 423.268 293.214V301.514H419.471V286.487H423.268V288.305C423.756 287.672 424.38 287.174 425.14 286.813C425.917 286.451 426.767 286.27 427.689 286.27C428.865 286.27 429.914 286.523 430.836 287.03C431.758 287.518 432.472 288.223 432.979 289.145C433.467 288.277 434.172 287.581 435.095 287.057C436.035 286.532 437.048 286.27 438.133 286.27ZM449.819 284.697C449.15 284.697 448.59 284.489 448.138 284.073C447.704 283.639 447.487 283.106 447.487 282.473C447.487 281.84 447.704 281.315 448.138 280.899C448.59 280.465 449.15 280.248 449.819 280.248C450.488 280.248 451.04 280.465 451.474 280.899C451.926 281.315 452.152 281.84 452.152 282.473C452.152 283.106 451.926 283.639 451.474 284.073C451.04 284.489 450.488 284.697 449.819 284.697ZM451.691 286.487V301.514H447.893V286.487H451.691ZM469.629 286.487V301.514H465.805V299.616C465.316 300.267 464.674 300.782 463.879 301.162C463.101 301.523 462.251 301.704 461.329 301.704C460.154 301.704 459.114 301.46 458.21 300.972C457.305 300.466 456.591 299.733 456.067 298.775C455.56 297.798 455.307 296.641 455.307 295.303V286.487H459.105V294.76C459.105 295.954 459.403 296.876 460 297.527C460.597 298.16 461.41 298.476 462.441 298.476C463.49 298.476 464.313 298.16 464.909 297.527C465.506 296.876 465.805 295.954 465.805 294.76V286.487H469.629ZM492.038 286.27C493.882 286.27 495.365 286.84 496.486 287.979C497.626 289.1 498.195 290.673 498.195 292.699V301.514H494.398V293.214C494.398 292.039 494.099 291.144 493.503 290.529C492.906 289.896 492.092 289.579 491.061 289.579C490.031 289.579 489.208 289.896 488.593 290.529C487.996 291.144 487.698 292.039 487.698 293.214V301.514H483.901V293.214C483.901 292.039 483.602 291.144 483.005 290.529C482.409 289.896 481.595 289.579 480.564 289.579C479.515 289.579 478.683 289.896 478.069 290.529C477.472 291.144 477.174 292.039 477.174 293.214V301.514H473.376V286.487H477.174V288.305C477.662 287.672 478.286 287.174 479.045 286.813C479.823 286.451 480.673 286.27 481.595 286.27C482.77 286.27 483.819 286.523 484.741 287.03C485.664 287.518 486.378 288.223 486.884 289.145C487.372 288.277 488.078 287.581 489 287.057C489.94 286.532 490.953 286.27 492.038 286.27ZM519.953 282.581V285.646H512.06V290.502H518.109V293.513H512.06V301.514H508.262V282.581H519.953ZM536.615 293.675C536.615 294.218 536.579 294.706 536.507 295.14H525.521C525.612 296.225 525.991 297.075 526.66 297.69C527.329 298.305 528.152 298.612 529.129 298.612C530.539 298.612 531.543 298.006 532.14 296.795H536.235C535.801 298.241 534.97 299.435 533.74 300.375C532.51 301.297 531 301.759 529.21 301.759C527.763 301.759 526.461 301.442 525.304 300.809C524.165 300.158 523.27 299.245 522.619 298.07C521.986 296.894 521.669 295.538 521.669 294.001C521.669 292.446 521.986 291.08 522.619 289.905C523.252 288.73 524.138 287.825 525.277 287.192C526.416 286.56 527.727 286.243 529.21 286.243C530.639 286.243 531.914 286.55 533.035 287.165C534.174 287.78 535.051 288.657 535.666 289.796C536.299 290.918 536.615 292.211 536.615 293.675ZM532.682 292.59C532.664 291.614 532.311 290.836 531.624 290.258C530.937 289.661 530.096 289.362 529.102 289.362C528.161 289.362 527.366 289.652 526.715 290.23C526.082 290.791 525.693 291.578 525.548 292.59H532.682ZM538.411 293.947C538.411 292.428 538.709 291.08 539.306 289.905C539.92 288.73 540.743 287.825 541.774 287.192C542.823 286.56 543.989 286.243 545.273 286.243C546.394 286.243 547.371 286.469 548.203 286.921C549.053 287.373 549.731 287.943 550.237 288.63V286.487H554.062V301.514H550.237V299.317C549.749 300.023 549.071 300.61 548.203 301.08C547.353 301.532 546.367 301.759 545.246 301.759C543.98 301.759 542.823 301.433 541.774 300.782C540.743 300.131 539.92 299.218 539.306 298.042C538.709 296.849 538.411 295.484 538.411 293.947ZM550.237 294.001C550.237 293.079 550.056 292.292 549.694 291.641C549.333 290.972 548.845 290.466 548.23 290.122C547.615 289.76 546.955 289.579 546.25 289.579C545.544 289.579 544.893 289.751 544.297 290.095C543.7 290.438 543.212 290.945 542.832 291.614C542.47 292.265 542.289 293.042 542.289 293.947C542.289 294.851 542.47 295.646 542.832 296.334C543.212 297.003 543.7 297.518 544.297 297.88C544.911 298.241 545.562 298.422 546.25 298.422C546.955 298.422 547.615 298.25 548.23 297.907C548.845 297.545 549.333 297.039 549.694 296.388C550.056 295.719 550.237 294.923 550.237 294.001ZM562.192 289.607V296.876C562.192 297.382 562.309 297.753 562.544 297.988C562.798 298.205 563.214 298.314 563.792 298.314H565.555V301.514H563.168C559.968 301.514 558.367 299.959 558.367 296.849V289.607H556.577V286.487H558.367V282.771H562.192V286.487H565.555V289.607H562.192ZM582.473 286.487V301.514H578.648V299.616C578.16 300.267 577.518 300.782 576.723 301.162C575.945 301.523 575.095 301.704 574.173 301.704C572.997 301.704 571.958 301.46 571.053 300.972C570.149 300.466 569.435 299.733 568.911 298.775C568.404 297.798 568.151 296.641 568.151 295.303V286.487H571.949V294.76C571.949 295.954 572.247 296.876 572.844 297.527C573.44 298.16 574.254 298.476 575.285 298.476C576.334 298.476 577.157 298.16 577.753 297.527C578.35 296.876 578.648 295.954 578.648 294.76V286.487H582.473ZM590.017 288.82C590.506 288.024 591.139 287.4 591.916 286.948C592.712 286.496 593.616 286.27 594.629 286.27V290.258H593.625C592.431 290.258 591.527 290.538 590.912 291.098C590.316 291.659 590.017 292.636 590.017 294.028V301.514H586.22V286.487H590.017V288.82ZM611.156 293.675C611.156 294.218 611.12 294.706 611.047 295.14H600.062C600.152 296.225 600.532 297.075 601.201 297.69C601.87 298.305 602.693 298.612 603.669 298.612C605.08 298.612 606.083 298.006 606.68 296.795H610.776C610.342 298.241 609.51 299.435 608.28 300.375C607.051 301.297 605.541 301.759 603.751 301.759C602.304 301.759 601.002 301.442 599.845 300.809C598.705 300.158 597.81 299.245 597.159 298.07C596.526 296.894 596.21 295.538 596.21 294.001C596.21 292.446 596.526 291.08 597.159 289.905C597.792 288.73 598.678 287.825 599.817 287.192C600.957 286.56 602.268 286.243 603.751 286.243C605.179 286.243 606.454 286.55 607.575 287.165C608.714 287.78 609.591 288.657 610.206 289.796C610.839 290.918 611.156 292.211 611.156 293.675ZM607.223 292.59C607.205 291.614 606.852 290.836 606.165 290.258C605.478 289.661 604.637 289.362 603.642 289.362C602.702 289.362 601.906 289.652 601.255 290.23C600.622 290.791 600.233 291.578 600.089 292.59H607.223ZM619.678 301.759C618.448 301.759 617.345 301.542 616.369 301.108C615.392 300.655 614.615 300.05 614.036 299.29C613.475 298.531 613.168 297.69 613.114 296.768H616.938C617.011 297.346 617.291 297.825 617.779 298.205C618.286 298.585 618.909 298.775 619.651 298.775C620.374 298.775 620.935 298.63 621.333 298.341C621.749 298.051 621.956 297.681 621.956 297.229C621.956 296.74 621.703 296.379 621.197 296.144C620.709 295.891 619.922 295.619 618.837 295.33C617.716 295.059 616.794 294.778 616.07 294.489C615.365 294.2 614.75 293.757 614.226 293.16C613.72 292.563 613.466 291.758 613.466 290.746C613.466 289.914 613.701 289.154 614.172 288.467C614.66 287.78 615.347 287.238 616.233 286.84C617.137 286.442 618.195 286.243 619.407 286.243C621.197 286.243 622.626 286.695 623.692 287.599C624.759 288.485 625.347 289.688 625.456 291.207H621.821C621.767 290.61 621.513 290.14 621.061 289.796C620.627 289.435 620.04 289.254 619.298 289.254C618.611 289.254 618.078 289.381 617.698 289.634C617.336 289.887 617.155 290.239 617.155 290.692C617.155 291.198 617.409 291.587 617.915 291.858C618.421 292.111 619.208 292.373 620.275 292.645C621.36 292.916 622.255 293.196 622.96 293.485C623.665 293.775 624.271 294.227 624.777 294.842C625.302 295.438 625.573 296.234 625.591 297.229C625.591 298.097 625.347 298.874 624.859 299.561C624.389 300.249 623.702 300.791 622.797 301.189C621.911 301.569 620.872 301.759 619.678 301.759Z" fill="white"/>
</svg>
