<svg width="76" height="76" viewBox="0 0 76 76" fill="none" xmlns="http://www.w3.org/2000/svg">
<path opacity="0.7" d="M26.5287 59.8975C15.0472 59.8975 5.73954 56.6225 5.73954 52.5825C5.73954 48.5425 15.0472 45.2675 26.5287 45.2675C38.0102 45.2675 47.3179 48.5425 47.3179 52.5825C47.3179 56.6225 38.0102 59.8975 26.5287 59.8975Z" fill="url(#paint0_radial_24_3883)"/>
<path opacity="0.7" d="M45.807 60.5714C34.3255 60.5714 25.0179 57.2964 25.0179 53.2564C25.0179 49.2164 34.3255 45.9414 45.807 45.9414C57.2886 45.9414 66.5962 49.2164 66.5962 53.2564C66.5962 57.2964 57.2886 60.5714 45.807 60.5714Z" fill="url(#paint1_radial_24_3883)"/>
<path d="M10.7272 46.4293V51.012C10.7272 52.6508 12.3828 54.2895 15.6999 55.5463C19.0665 56.8219 23.5028 57.4601 27.9391 57.4601C32.313 57.4601 36.688 56.8397 40.0436 55.5968C43.4468 54.336 45.1509 52.6745 45.1509 51.013V46.4303C45.1509 48.0918 43.4468 49.7533 40.0436 51.014C36.688 52.2569 32.313 52.8784 27.9391 52.8784C23.5028 52.8784 19.0665 52.2391 15.6999 50.9645C12.3828 49.7068 10.7272 48.067 10.7272 46.4293Z" fill="#D96D00"/>
<path d="M10.7272 46.1591V50.7419C10.7272 52.3806 12.3828 54.0194 15.6999 55.2761C19.0665 56.5517 23.5028 57.19 27.9391 57.19C32.313 57.19 36.688 56.5695 40.0436 55.3256C43.4468 54.0649 45.1509 52.4034 45.1509 50.7419V46.1591C45.1509 47.8206 43.4468 49.4821 40.0436 50.7429C36.688 51.9858 32.313 52.6062 27.9391 52.6062C23.5028 52.6062 19.0665 51.968 15.6999 50.6924C12.3828 49.4356 10.7272 47.7969 10.7272 46.1591Z" fill="url(#paint2_linear_24_3883)"/>
<path d="M34.1761 52.1679C34.2662 52.155 34.3562 52.1421 34.4463 52.1283V56.711C34.3562 56.7249 34.2662 56.7368 34.1761 56.7506V52.1679Z" fill="#F5C491"/>
<path d="M35.451 51.96C35.5411 51.9442 35.6311 51.9274 35.7212 51.9106V56.4933C35.6321 56.5111 35.5411 56.527 35.451 56.5438V51.96Z" fill="#F5C491"/>
<path d="M36.7245 51.7037C36.8155 51.683 36.9046 51.6622 36.9946 51.6404V56.2232C36.9046 56.244 36.8155 56.2657 36.7245 56.2865V51.7037Z" fill="#F5C491"/>
<path d="M30.3524 52.5429C30.4424 52.538 30.5325 52.532 30.6226 52.5261V57.1088C30.5325 57.1138 30.4424 57.1207 30.3524 57.1257V52.5429Z" fill="#F5C491"/>
<path d="M31.6273 52.4548C31.7173 52.4479 31.8084 52.441 31.8984 52.4331V57.0158C31.8084 57.0237 31.7183 57.0307 31.6273 57.0376V52.4548Z" fill="#F5C491"/>
<path d="M29.079 52.5904C29.169 52.5884 29.2591 52.5855 29.3491 52.5835V57.1662C29.2591 57.1682 29.169 57.1712 29.079 57.1732V52.5904Z" fill="#F5C491"/>
<path d="M32.9017 52.3331C32.9918 52.3232 33.0818 52.3113 33.1719 52.3005V56.8832C33.0818 56.8931 32.9918 56.905 32.9017 56.9149V52.3331Z" fill="#F5C491"/>
<path d="M39.5449 55.5008C39.4559 55.5315 39.3658 55.5621 39.2748 55.5918V51.0091C39.3658 50.9794 39.4559 50.9487 39.5449 50.918V55.5008Z" fill="#F5C491"/>
<path d="M13.785 49.8265C13.8741 49.875 13.9622 49.9235 14.0552 49.97V54.5528C13.9622 54.5053 13.8741 54.4568 13.785 54.4093V49.8265Z" fill="#F5C491"/>
<path d="M11.5059 52.6587C11.4069 52.539 11.3159 52.4192 11.2357 52.2985V47.7157C11.3159 47.8365 11.4069 47.9562 11.5059 48.0749V52.6587Z" fill="#F5C491"/>
<path d="M15.3286 55.1277C15.2386 55.0911 15.1455 55.0555 15.0584 55.0179V50.4351C15.1465 50.4717 15.2386 50.5083 15.3286 50.5439V55.1277Z" fill="#F5C491"/>
<path d="M37.9999 51.391C38.0909 51.3663 38.18 51.3406 38.27 51.3148V55.8976C38.18 55.9223 38.0909 55.9491 37.9999 55.9738V51.391Z" fill="#F5C491"/>
<path d="M12.5091 49.016C12.5962 49.0823 12.6863 49.1477 12.7793 49.213V53.7957C12.6853 53.7304 12.5962 53.6651 12.5091 53.5988V49.016Z" fill="#F5C491"/>
<path d="M18.8822 51.6414C18.9722 51.6622 19.0613 51.6849 19.1523 51.7047V56.2875C19.0613 56.2667 18.9722 56.2449 18.8822 56.2242V51.6414Z" fill="#F5C491"/>
<path d="M43.3687 53.5988C43.2806 53.6651 43.1925 53.7314 43.0985 53.7967V49.214C43.1925 49.1486 43.2816 49.0813 43.3687 49.016V53.5988Z" fill="#F5C491"/>
<path d="M17.6078 51.3158C17.6968 51.3416 17.7879 51.3653 17.8779 51.39V55.9728C17.7879 55.9481 17.6968 55.9243 17.6078 55.8996V51.3158Z" fill="#F5C491"/>
<path d="M16.3329 50.92C16.4219 50.9507 16.514 50.9784 16.603 51.0081V55.5908C16.513 55.5611 16.4209 55.5334 16.3329 55.5028V50.92Z" fill="#F5C491"/>
<path d="M41.8226 49.97C41.9156 49.9225 42.0037 49.874 42.0928 49.8265V54.4093C42.0037 54.4568 41.9156 54.5053 41.8226 54.5528V49.97Z" fill="#F5C491"/>
<path d="M44.6421 52.2995C44.5619 52.4203 44.4699 52.54 44.3709 52.6588V48.076C44.4699 47.9573 44.5619 47.8375 44.6421 47.7168V52.2995Z" fill="#F5C491"/>
<path d="M27.8035 57.188V52.6053C27.8491 52.6053 27.8936 52.6062 27.9391 52.6062C27.9846 52.6062 28.0292 52.6053 28.0747 52.6053V57.188C28.0292 57.188 27.9846 57.189 27.9391 57.189C27.8936 57.189 27.8491 57.188 27.8035 57.188Z" fill="#F5C491"/>
<path d="M40.5492 50.5459C40.6412 50.5093 40.7303 50.4717 40.8193 50.4341V55.0169C40.7303 55.0545 40.6412 55.0911 40.5492 55.1287V50.5459Z" fill="#F5C491"/>
<path d="M25.2552 52.5261C25.3453 52.532 25.4353 52.537 25.5254 52.5419V57.1247C25.4353 57.1197 25.3453 57.1138 25.2552 57.1088V52.5261Z" fill="#F5C491"/>
<path d="M26.5287 52.5825C26.6187 52.5855 26.7088 52.5884 26.7988 52.5904V57.1732C26.7088 57.1712 26.6187 57.1682 26.5287 57.1662V52.5825Z" fill="#F5C491"/>
<path d="M20.1566 51.9096C20.2467 51.9264 20.3367 51.9442 20.4268 51.96V56.5428C20.3367 56.526 20.2467 56.5102 20.1566 56.4923V51.9096Z" fill="#F5C491"/>
<path d="M23.9808 52.4331C24.0699 52.441 24.1609 52.4479 24.251 52.4548V57.0376C24.1609 57.0297 24.0699 57.0228 23.9808 57.0148V52.4331Z" fill="#F5C491"/>
<path d="M22.7059 52.3005C22.796 52.3113 22.886 52.3232 22.9761 52.3331V56.9159C22.886 56.906 22.796 56.8941 22.7059 56.8832V52.3005Z" fill="#F5C491"/>
<path d="M21.4315 52.1293C21.5206 52.1431 21.6116 52.155 21.7017 52.1678V56.7506C21.6116 56.7377 21.5206 56.7259 21.4315 56.712V52.1293Z" fill="#F5C491"/>
<path d="M15.8364 42.0296C19.1911 40.7867 23.566 40.1662 27.939 40.1662C32.3763 40.1662 36.8126 40.8045 40.1782 42.0801C46.8618 44.6124 46.8015 48.6944 40.0446 51.1991C36.6889 52.442 32.314 53.0624 27.94 53.0624C23.5037 53.0624 19.0674 52.4242 15.7008 51.1486C9.0162 48.6162 9.07657 44.5332 15.8364 42.0296Z" fill="url(#paint3_linear_24_3883)"/>
<path opacity="0.3" d="M15.8363 42.0296C16.8664 41.6476 17.9946 41.325 19.187 41.0608L44.3244 44.6411C46.1957 46.8281 44.8706 49.3129 40.3661 51.0734L10.7409 46.8538C10.5687 45.1131 12.2688 43.3507 15.8363 42.0296Z" fill="white"/>
<path opacity="0.6" d="M40.0436 51.5306C36.6879 52.7735 32.313 53.394 27.939 53.394C23.5027 53.394 19.0664 52.7547 15.6999 51.4801C12.359 50.2144 10.7025 48.5608 10.7272 46.9112V46.9092C10.7272 46.8657 10.7341 46.8221 10.7371 46.7776C10.844 48.3609 12.4926 49.9334 15.6999 51.1486C19.0664 52.4242 23.5027 53.0624 27.939 53.0624C32.313 53.0624 36.6879 52.443 40.0436 51.1991C43.336 49.9789 45.0341 48.3837 45.141 46.7766C45.2617 48.4945 43.5626 50.2273 40.0436 51.5306Z" fill="white"/>
<path d="M18.9407 43.2062C21.4364 42.2829 24.6882 41.8208 27.94 41.8208C31.2382 41.8208 34.5365 42.2958 37.0382 43.2438C42.0069 45.127 41.9633 48.162 36.9363 50.0234C34.4415 50.9477 31.1907 51.4088 27.939 51.4088C24.6407 51.4088 21.3424 50.9338 18.8407 49.9848C13.8701 48.1026 13.9166 45.0676 18.9407 43.2062Z" fill="#F28500"/>
<path opacity="0.6" d="M37.0384 44.3967C34.5367 43.4486 31.2384 42.9736 27.9402 42.9736C24.6884 42.9736 21.4366 43.4348 18.9409 44.36C16.836 45.1398 15.609 46.1255 15.2537 47.1457C14.751 45.7098 15.981 44.2067 18.9409 43.1102C21.4366 42.1859 24.6884 41.7248 27.9402 41.7248C31.2384 41.7248 34.5367 42.1998 37.0384 43.1478C39.926 44.2423 41.1165 45.7257 40.6246 47.1418C40.2743 46.1403 39.0809 45.1715 37.0384 44.3967Z" fill="white"/>
<path d="M37.0384 44.4927C34.5367 43.5446 31.2384 43.0696 27.9402 43.0696C24.6884 43.0696 21.4366 43.5308 18.9409 44.4551C16.836 45.2348 15.609 46.2205 15.2537 47.2407C14.751 45.8048 15.981 44.3017 18.9409 43.2042C21.4366 42.281 24.6884 41.8188 27.9402 41.8188C31.2384 41.8188 34.5367 42.2938 37.0384 43.2418C39.926 44.3353 41.1165 45.8197 40.6246 47.2348C40.2743 46.2353 39.0809 45.2675 37.0384 44.4927Z" fill="#D96D00"/>
<path d="M21.8166 47.2368H21.8157V46.3808L26.628 44.9152C26.6844 44.8944 26.7448 44.8835 26.8081 44.8835C26.8714 44.8835 26.9298 44.8954 26.9852 44.9152L34.9712 47.0745C34.9712 47.1912 34.9712 47.9522 34.9712 47.976C34.9712 47.9997 34.9415 48.0225 34.8891 48.0423L33.0029 48.7409C32.9465 48.7617 32.8881 48.7716 32.8248 48.7716C32.7614 48.7716 32.7011 48.7607 32.6476 48.7409L29.9926 47.7345C29.9728 47.7266 29.953 47.7236 29.9332 47.7236C29.9134 47.7236 29.8926 47.7266 29.8738 47.7345L28.6082 48.2026C28.0263 48.4183 27.4058 48.5668 26.7398 48.6479C26.3569 48.6954 25.9778 48.7182 25.6028 48.7182C25.3237 48.7182 25.0466 48.7053 24.7715 48.6796C24.1224 48.6192 23.5356 48.4886 23.0071 48.2887C22.4747 48.0858 22.1165 47.8632 21.9394 47.6197C21.8444 47.4931 21.8048 47.3654 21.8166 47.2368ZM25.2841 47.4802C25.5177 47.5683 25.7839 47.6118 26.0847 47.6118C26.1105 47.6118 26.1372 47.6118 26.1629 47.6108C26.4934 47.6029 26.8081 47.5435 27.102 47.4347L28.1045 47.0646C28.1431 47.0507 28.1431 47.0349 28.1045 47.02L26.5231 46.4213C26.5033 46.4144 26.4845 46.4095 26.4647 46.4095C26.4449 46.4095 26.4242 46.4134 26.4044 46.4213L25.4039 46.7924C25.109 46.9013 24.9516 47.0191 24.9289 47.1457C24.9071 47.2694 25.0269 47.3822 25.2841 47.4802Z" fill="#D96D00"/>
<path d="M21.978 45.982C22.1848 45.7375 22.5697 45.5109 23.1338 45.3011L26.628 44.0068C26.6844 43.986 26.7448 43.9761 26.8081 43.9761C26.8714 43.9761 26.9298 43.987 26.9852 44.0078L34.891 47.0012C34.9445 47.022 34.9712 47.0438 34.9712 47.0685C34.9712 47.0923 34.9415 47.1151 34.8891 47.1348L33.0029 47.8335C32.9465 47.8543 32.8881 47.8642 32.8248 47.8642C32.7615 47.8642 32.7011 47.8533 32.6476 47.8335L29.9926 46.8271C29.9728 46.8202 29.953 46.8172 29.9332 46.8172C29.9134 46.8172 29.8926 46.8202 29.8738 46.8271L28.6082 47.2961C28.0263 47.5119 27.4058 47.6603 26.7398 47.7415C26.3569 47.789 25.9778 47.8117 25.6028 47.8117C25.3237 47.8117 25.0467 47.7989 24.7715 47.7731C24.1224 47.7118 23.5356 47.5821 23.0071 47.3822C22.4747 47.1794 22.1165 46.9567 21.9394 46.7133C21.7583 46.4689 21.7731 46.2244 21.978 45.982ZM25.2842 46.5718C25.5177 46.6598 25.7839 46.7044 26.0847 46.7044C26.1105 46.7044 26.1372 46.7034 26.1629 46.7034C26.4934 46.6955 26.8081 46.6361 27.102 46.5272L28.1045 46.1561C28.1431 46.1423 28.1431 46.1274 28.1045 46.1126L26.5231 45.5139C26.5033 45.507 26.4845 45.502 26.4647 45.502C26.4449 45.502 26.4242 45.506 26.4044 45.5139L25.4039 45.885C25.109 45.9939 24.9516 46.1116 24.9289 46.2383C24.9071 46.361 25.0269 46.4738 25.2842 46.5718Z" fill="url(#paint4_linear_24_3883)"/>
<g opacity="0.6">
<path opacity="0.6" d="M25.4038 45.8078L26.4043 45.4367C26.425 45.4298 26.4448 45.4258 26.4646 45.4258C26.4844 45.4258 26.5032 45.4298 26.523 45.4367L28.1044 46.0354C28.1429 46.0493 28.1429 46.0641 28.1044 46.079L28.0608 46.0948L26.522 45.5119C26.5022 45.505 26.4834 45.5 26.4636 45.5C26.4438 45.5 26.4231 45.504 26.4033 45.5119L25.4028 45.883C25.1198 45.9869 24.9664 46.0997 24.9347 46.2215C24.9308 46.2007 24.9239 46.1809 24.9278 46.1601C24.9506 46.0344 25.1089 45.9167 25.4038 45.8078Z" fill="white"/>
<path opacity="0.6" d="M21.9384 46.6361C22.1165 46.8785 22.4738 47.1022 23.0061 47.3051C23.5346 47.5049 24.1204 47.6346 24.7706 47.6959C25.0457 47.7217 25.3228 47.7345 25.6018 47.7345C25.9769 47.7345 26.3559 47.7108 26.7389 47.6643C27.4048 47.5831 28.0253 47.4347 28.6072 47.219L29.8729 46.7509C29.8927 46.743 29.9124 46.74 29.9322 46.74C29.952 46.74 29.9718 46.744 29.9916 46.7509L32.6467 47.7573C32.7001 47.7771 32.7605 47.788 32.8238 47.788C32.8871 47.788 32.9455 47.7781 33.0019 47.7573L34.8881 47.0586C34.9118 47.0497 34.9296 47.0398 34.9435 47.0299C34.9603 47.0428 34.9712 47.0547 34.9712 47.0685C34.9712 47.0923 34.9415 47.1151 34.8891 47.1348L33.0029 47.8335C32.9465 47.8543 32.8881 47.8642 32.8248 47.8642C32.7615 47.8642 32.7011 47.8533 32.6477 47.8335L29.9926 46.8271C29.9728 46.8202 29.953 46.8172 29.9332 46.8172C29.9134 46.8172 29.8927 46.8202 29.8739 46.8271L28.6082 47.2961C28.0263 47.5119 27.4058 47.6603 26.7398 47.7415C26.3569 47.789 25.9779 47.8117 25.6028 47.8117C25.3237 47.8117 25.0467 47.7989 24.7716 47.7731C24.1224 47.7118 23.5356 47.5821 23.0071 47.3822C22.4747 47.1794 22.1165 46.9567 21.9394 46.7133C21.8454 46.5856 21.8058 46.459 21.8177 46.3303C21.8246 46.4332 21.8632 46.5342 21.9384 46.6361Z" fill="white"/>
</g>
<path d="M10.7272 41.5912V46.174C10.7272 47.8127 12.3828 49.4515 15.6999 50.7082C19.0665 51.9838 23.5028 52.6221 27.9391 52.6221C32.313 52.6221 36.688 52.0016 40.0436 50.7587C43.4468 49.498 45.1509 47.8365 45.1509 46.175V41.5922C45.1509 43.2547 43.4468 44.9162 40.0436 46.1769C36.688 47.4199 32.313 48.0403 27.9391 48.0403C23.5028 48.0403 19.0665 47.402 15.6999 46.1265C12.3828 44.8687 10.7272 43.23 10.7272 41.5912Z" fill="#D96D00"/>
<path d="M10.7272 41.321V45.9038C10.7272 47.5416 12.3828 49.1803 15.6999 50.4371C19.0665 51.7127 23.5028 52.3509 27.9391 52.3509C32.313 52.3509 36.688 51.7305 40.0436 50.4876C43.4468 49.2268 45.1509 47.5653 45.1509 45.9028V41.3201C45.1509 42.9826 43.4468 44.6431 40.0436 45.9038C36.688 47.1467 32.313 47.7672 27.9391 47.7672C23.5028 47.7672 19.0665 47.1289 15.6999 45.8533C12.3828 44.5985 10.7272 42.9588 10.7272 41.321Z" fill="url(#paint5_linear_24_3883)"/>
<path d="M34.1761 47.3308C34.2662 47.3179 34.3562 47.3051 34.4463 47.2912V51.874C34.3562 51.8878 34.2662 51.8997 34.1761 51.9135V47.3308Z" fill="#F5C491"/>
<path d="M35.451 47.123C35.5411 47.1071 35.6311 47.0903 35.7212 47.0735V51.6562C35.6321 51.6731 35.5411 51.6899 35.451 51.7067V47.123Z" fill="#F5C491"/>
<path d="M36.7245 46.8667C36.8155 46.8469 36.9046 46.8251 36.9946 46.8033V51.3861C36.9046 51.4069 36.8155 51.4286 36.7245 51.4484V46.8667Z" fill="#F5C491"/>
<path d="M30.3524 47.7048C30.4424 47.6999 30.5325 47.6939 30.6226 47.689V52.2718C30.5325 52.2777 30.4424 52.2837 30.3524 52.2886V47.7048Z" fill="#F5C491"/>
<path d="M31.6273 47.6187C31.7173 47.6118 31.8084 47.6049 31.8984 47.597V52.1797C31.8084 52.1877 31.7183 52.1946 31.6273 52.2015V47.6187Z" fill="#F5C491"/>
<path d="M29.079 47.7533C29.169 47.7514 29.2591 47.7484 29.3491 47.7464V52.3292C29.2591 52.3321 29.169 52.3341 29.079 52.3371V47.7533Z" fill="#F5C491"/>
<path d="M32.9017 47.4951C32.9918 47.4852 33.0818 47.4733 33.1719 47.4624V52.0452C33.0818 52.056 32.9918 52.0669 32.9017 52.0778V47.4951Z" fill="#F5C491"/>
<path d="M39.5449 50.6637C39.4559 50.6954 39.3658 50.725 39.2748 50.7547V46.172C39.3658 46.1423 39.4559 46.1116 39.5449 46.0809V50.6637Z" fill="#F5C491"/>
<path d="M13.785 44.9884C13.8741 45.0369 13.9622 45.0854 14.0552 45.1319V49.7147C13.9622 49.6672 13.8741 49.6187 13.785 49.5712V44.9884Z" fill="#F5C491"/>
<path d="M11.5059 47.8216C11.4069 47.7019 11.3159 47.5821 11.2357 47.4614V42.8786C11.3159 42.9994 11.4069 43.1201 11.5059 43.2379V47.8216Z" fill="#F5C491"/>
<path d="M15.3286 50.2896C15.2386 50.254 15.1455 50.2174 15.0584 50.1808V45.598C15.1465 45.6356 15.2386 45.6712 15.3286 45.7078V50.2896Z" fill="#F5C491"/>
<path d="M37.9999 46.553C38.0909 46.5282 38.18 46.5025 38.27 46.4768V51.0595C38.18 51.0843 38.0909 51.11 37.9999 51.1357V46.553Z" fill="#F5C491"/>
<path d="M12.5091 44.1799C12.5962 44.2453 12.6863 44.3116 12.7793 44.3759V48.9586C12.6853 48.8933 12.5962 48.827 12.5091 48.7617V44.1799Z" fill="#F5C491"/>
<path d="M18.8822 46.8033C18.9722 46.8241 19.0613 46.8469 19.1523 46.8667V51.4494C19.0613 51.4286 18.9722 51.4069 18.8822 51.3861V46.8033Z" fill="#F5C491"/>
<path d="M43.3687 48.7617C43.2806 48.828 43.1925 48.8953 43.0985 48.9606V44.3779C43.1925 44.3126 43.2816 44.2462 43.3687 44.1799V48.7617Z" fill="#F5C491"/>
<path d="M17.6078 46.4787C17.6968 46.5035 17.7879 46.5282 17.8779 46.553V51.1357C17.7879 51.111 17.6968 51.0872 17.6078 51.0615V46.4787Z" fill="#F5C491"/>
<path d="M16.3329 46.0829C16.4219 46.1136 16.514 46.1413 16.603 46.172V50.7547C16.513 50.7251 16.4209 50.6964 16.3329 50.6657V46.0829Z" fill="#F5C491"/>
<path d="M41.8226 45.1329C41.9156 45.0854 42.0037 45.0379 42.0928 44.9894V49.5722C42.0037 49.6197 41.9156 49.6692 41.8226 49.7157V45.1329Z" fill="#F5C491"/>
<path d="M44.6421 47.4635C44.5619 47.5842 44.4699 47.704 44.3709 47.8227V43.24C44.4699 43.1212 44.5619 43.0015 44.6421 42.8808V47.4635Z" fill="#F5C491"/>
<path d="M27.8035 52.3499V47.7672C27.8491 47.7682 27.8936 47.7692 27.9391 47.7692C27.9846 47.7692 28.0292 47.7682 28.0747 47.7672V52.3499C28.0292 52.3499 27.9846 52.3509 27.9391 52.3509C27.8936 52.3509 27.8491 52.3499 27.8035 52.3499Z" fill="#F5C491"/>
<path d="M40.5492 45.7089C40.6412 45.6712 40.7303 45.6336 40.8193 45.597V50.1798C40.7303 50.2164 40.6412 50.255 40.5492 50.2916V45.7089Z" fill="#F5C491"/>
<path d="M25.2552 47.689C25.3453 47.6939 25.4353 47.7009 25.5254 47.7048V52.2876C25.4353 52.2827 25.3453 52.2777 25.2552 52.2718V47.689Z" fill="#F5C491"/>
<path d="M26.5287 47.7454C26.6187 47.7484 26.7088 47.7504 26.7988 47.7523V52.3351C26.7088 52.3331 26.6187 52.3302 26.5287 52.3272V47.7454Z" fill="#F5C491"/>
<path d="M20.1566 47.0725C20.2467 47.0893 20.3367 47.1071 20.4268 47.123V51.7057C20.3367 51.6889 20.2467 51.6721 20.1566 51.6553V47.0725Z" fill="#F5C491"/>
<path d="M23.9808 47.596C24.0699 47.6039 24.1609 47.6108 24.251 47.6178V52.2005C24.1609 52.1936 24.0699 52.1867 23.9808 52.1788V47.596Z" fill="#F5C491"/>
<path d="M22.7059 47.4634C22.796 47.4743 22.886 47.4861 22.9761 47.496V52.0788C22.886 52.0689 22.796 52.057 22.7059 52.0461V47.4634Z" fill="#F5C491"/>
<path d="M21.4315 47.2922C21.5206 47.306 21.6116 47.3169 21.7017 47.3308V51.9135C21.6116 51.9007 21.5206 51.8888 21.4315 51.8759V47.2922Z" fill="#F5C491"/>
<path d="M15.8364 37.1915C19.1911 35.9496 23.566 35.3291 27.939 35.3291C32.3763 35.3291 36.8126 35.9674 40.1782 37.243C46.8618 39.7753 46.8015 43.8573 40.0446 46.362C36.6889 47.6049 32.314 48.2254 27.94 48.2254C23.5037 48.2254 19.0674 47.5861 15.7008 46.3115C9.0162 43.7792 9.07657 39.6961 15.8364 37.1915Z" fill="url(#paint6_linear_24_3883)"/>
<path opacity="0.3" d="M15.8363 37.1915C16.8664 36.8105 17.9946 36.4879 19.187 36.2227L44.3244 39.803C46.1957 41.991 44.8706 44.4748 40.3661 46.2353L10.7409 42.0167C10.5687 40.2751 12.2688 38.5136 15.8363 37.1915Z" fill="white"/>
<path opacity="0.6" d="M40.0436 46.6935C36.6879 47.9364 32.313 48.5569 27.939 48.5569C23.5027 48.5569 19.0664 47.9186 15.6999 46.643C12.359 45.3773 10.7025 43.7238 10.7272 42.0741V42.0721C10.7272 42.0286 10.7341 41.9841 10.7371 41.9405C10.844 43.5239 12.4926 45.0953 15.6999 46.3105C19.0664 47.5851 23.5027 48.2244 27.939 48.2244C32.313 48.2244 36.6879 47.6039 40.0436 46.361C43.336 45.1418 45.0341 43.5466 45.141 41.9385C45.2617 43.6575 43.5626 45.3892 40.0436 46.6935Z" fill="white"/>
<path d="M18.9407 38.3691C21.4364 37.4448 24.6882 36.9827 27.94 36.9827C31.2382 36.9827 34.5365 37.4577 37.0382 38.4067C42.0069 40.2899 41.9633 43.325 36.9363 45.1864C34.4415 46.1106 31.1907 46.5718 27.939 46.5718C24.6407 46.5718 21.3424 46.0968 18.8407 45.1478C13.8701 43.2656 13.9166 40.2305 18.9407 38.3691Z" fill="#F28500"/>
<path opacity="0.6" d="M37.0384 39.5596C34.5367 38.6116 31.2384 38.1366 27.9402 38.1366C24.6884 38.1366 21.4366 38.5977 18.9409 39.522C16.836 40.3018 15.609 41.2874 15.2537 42.3077C14.751 40.8718 15.981 39.3686 18.9409 38.2721C21.4366 37.3479 24.6884 36.8867 27.9402 36.8867C31.2384 36.8867 34.5367 37.3617 37.0384 38.3107C39.926 39.4042 41.1165 40.8876 40.6246 42.3047C40.2743 41.3022 39.0809 40.3334 37.0384 39.5596Z" fill="white"/>
<path d="M37.0384 39.6556C34.5367 38.7076 31.2384 38.2326 27.9402 38.2326C24.6884 38.2326 21.4366 38.6937 18.9409 39.618C16.836 40.3978 15.609 41.3834 15.2537 42.4036C14.751 40.9678 15.981 39.4646 18.9409 38.3681C21.4366 37.4439 24.6884 36.9817 27.9402 36.9817C31.2384 36.9817 34.5367 37.4567 37.0384 38.4057C39.926 39.5002 41.1165 40.9836 40.6246 42.3987C40.2743 41.3982 39.0809 40.4294 37.0384 39.6556Z" fill="#D96D00"/>
<path d="M21.8166 42.3997H21.8157V41.5437L26.628 40.0771C26.6844 40.0564 26.7448 40.0465 26.8081 40.0465C26.8714 40.0465 26.9298 40.0573 26.9852 40.0781L34.9712 42.2374C34.9712 42.3542 34.9712 43.1152 34.9712 43.1389C34.9712 43.1627 34.9415 43.1854 34.8891 43.2052L33.0029 43.9029C32.9465 43.9236 32.8881 43.9345 32.8248 43.9345C32.7614 43.9345 32.7011 43.9236 32.6476 43.9029L29.9926 42.8965C29.9728 42.8885 29.953 42.8856 29.9332 42.8856C29.9134 42.8856 29.8926 42.8885 29.8738 42.8965L28.6082 43.3645C28.0263 43.5803 27.4058 43.7287 26.7398 43.8098C26.3569 43.8564 25.9778 43.8801 25.6028 43.8801C25.3237 43.8801 25.0466 43.8672 24.7715 43.8425C24.1224 43.7811 23.5356 43.6515 23.0071 43.4516C22.4747 43.2487 22.1165 43.0251 21.9394 42.7827C21.8444 42.656 21.8048 42.5283 21.8166 42.3997ZM25.2841 42.6431C25.5177 42.7312 25.7839 42.7747 26.0847 42.7747C26.1105 42.7747 26.1372 42.7747 26.1629 42.7737C26.4934 42.7648 26.8081 42.7065 27.102 42.5976L28.1045 42.2265C28.1431 42.2127 28.1431 42.1978 28.1045 42.183L26.5231 41.5843C26.5033 41.5764 26.4845 41.5724 26.4647 41.5724C26.4449 41.5724 26.4242 41.5754 26.4044 41.5843L25.4039 41.9554C25.109 42.0642 24.9516 42.181 24.9289 42.3077C24.9071 42.4333 25.0269 42.5452 25.2841 42.6431Z" fill="#D96D00"/>
<path d="M21.978 41.1439C22.1848 40.9005 22.5697 40.6729 23.1338 40.4631L26.628 39.1687C26.6844 39.1479 26.7448 39.138 26.8081 39.138C26.8714 39.138 26.9298 39.1489 26.9852 39.1697L34.891 42.1642C34.9445 42.1849 34.9712 42.2067 34.9712 42.2305C34.9712 42.2542 34.9415 42.277 34.8891 42.2968L33.0029 42.9954C32.9465 43.0162 32.8881 43.0261 32.8248 43.0261C32.7615 43.0261 32.7011 43.0142 32.6476 42.9954L29.9926 41.989C29.9728 41.9821 29.953 41.9781 29.9332 41.9781C29.9134 41.9781 29.8926 41.9811 29.8738 41.989L28.6082 42.4581C28.0263 42.6728 27.4058 42.8213 26.7398 42.9034C26.3569 42.9499 25.9778 42.9736 25.6028 42.9736C25.3237 42.9736 25.0467 42.9608 24.7715 42.9351C24.1224 42.8747 23.5356 42.7451 23.0071 42.5452C22.4747 42.3423 22.1165 42.1196 21.9394 41.8762C21.7583 41.6318 21.7731 41.3883 21.978 41.1439ZM25.2842 41.7347C25.5177 41.8228 25.7839 41.8663 26.0847 41.8663C26.1105 41.8663 26.1372 41.8663 26.1629 41.8653C26.4934 41.8564 26.8081 41.798 27.102 41.6892L28.1045 41.3181C28.1431 41.3042 28.1431 41.2894 28.1045 41.2745L26.5231 40.6758C26.5033 40.6679 26.4845 40.664 26.4647 40.664C26.4449 40.664 26.4242 40.6669 26.4044 40.6758L25.4039 41.0469C25.109 41.1558 24.9516 41.2726 24.9289 41.3992C24.9071 41.5239 25.0269 41.6367 25.2842 41.7347Z" fill="url(#paint7_linear_24_3883)"/>
<g opacity="0.6">
<path opacity="0.6" d="M25.4038 40.9707L26.4043 40.5997C26.425 40.5917 26.4448 40.5878 26.4646 40.5878C26.4844 40.5878 26.5032 40.5927 26.523 40.5997L28.1044 41.1983C28.1429 41.2132 28.1429 41.228 28.1044 41.2419L28.0608 41.2577L26.522 40.6749C26.5022 40.6669 26.4834 40.663 26.4636 40.663C26.4438 40.663 26.4231 40.666 26.4033 40.6749L25.4028 41.0459C25.1198 41.1499 24.9664 41.2627 24.9347 41.3834C24.9308 41.3636 24.9239 41.3438 24.9278 41.322C24.9506 41.1964 25.1089 41.0786 25.4038 40.9707Z" fill="white"/>
<path opacity="0.6" d="M21.9384 41.8C22.1165 42.0415 22.4738 42.2661 23.0061 42.468C23.5346 42.6679 24.1204 42.7965 24.7706 42.8589C25.0457 42.8836 25.3228 42.8974 25.6018 42.8974C25.9769 42.8974 26.3559 42.8737 26.7389 42.8272C27.4048 42.746 28.0253 42.5966 28.6072 42.3819L29.8729 41.9138C29.8927 41.9069 29.9124 41.9029 29.9322 41.9029C29.952 41.9029 29.9718 41.9059 29.9916 41.9138L32.6467 42.9202C32.7001 42.941 32.7605 42.9519 32.8238 42.9519C32.8871 42.9519 32.9455 42.942 33.0019 42.9202L34.8881 42.2226C34.9118 42.2136 34.9296 42.2038 34.9435 42.1939C34.9603 42.2057 34.9712 42.2186 34.9712 42.2315C34.9712 42.2552 34.9415 42.278 34.8891 42.2978L33.0029 42.9964C32.9465 43.0172 32.8881 43.0271 32.8248 43.0271C32.7615 43.0271 32.7011 43.0152 32.6477 42.9964L29.9926 41.99C29.9728 41.9831 29.953 41.9791 29.9332 41.9791C29.9134 41.9791 29.8927 41.9821 29.8739 41.99L28.6082 42.4591C28.0263 42.6738 27.4058 42.8222 26.7398 42.9044C26.3569 42.9509 25.9779 42.9746 25.6028 42.9746C25.3237 42.9746 25.0467 42.9618 24.7716 42.936C24.1224 42.8757 23.5356 42.746 23.0071 42.5461C22.4747 42.3433 22.1165 42.1206 21.9394 41.8772C21.8454 41.7505 21.8058 41.6229 21.8177 41.4952C21.8246 41.5952 21.8632 41.6971 21.9384 41.8Z" fill="white"/>
</g>
<path d="M10.7272 36.7541V41.3369C10.7272 42.9746 12.3828 44.6134 15.6999 45.8702C19.0665 47.1457 23.5028 47.784 27.9391 47.784C32.313 47.784 36.688 47.1635 40.0436 45.9196C43.4468 44.6579 45.1509 42.9974 45.1509 41.3349V36.7521C45.1509 38.4146 43.4468 40.0752 40.0436 41.3369C36.688 42.5798 32.313 43.2003 27.9391 43.2003C23.5028 43.2003 19.0665 42.561 15.6999 41.2864C12.3828 40.0316 10.7272 38.3929 10.7272 36.7541Z" fill="#D96D00"/>
<path d="M10.7272 36.484V41.0667C10.7272 42.7055 12.3828 44.3442 15.6999 45.601C19.0665 46.8766 23.5028 47.5148 27.9391 47.5148C32.313 47.5148 36.688 46.8944 40.0436 45.6505C43.4468 44.3897 45.1509 42.7282 45.1509 41.0667V36.484C45.1509 38.1455 43.4468 39.807 40.0436 41.0677C36.688 42.3106 32.313 42.9321 27.9391 42.9321C23.5028 42.9321 19.0665 42.2928 15.6999 41.0182C12.3828 39.7615 10.7272 38.1217 10.7272 36.484Z" fill="url(#paint8_linear_24_3883)"/>
<path d="M34.1761 42.4927C34.2662 42.4798 34.3562 42.467 34.4463 42.4531V47.0359C34.3562 47.0497 34.2662 47.0616 34.1761 47.0755V42.4927Z" fill="#F5C491"/>
<path d="M35.451 42.2859C35.5411 42.2691 35.6311 42.2532 35.7212 42.2364V46.8192C35.6321 46.836 35.5411 46.8528 35.451 46.8687V42.2859Z" fill="#F5C491"/>
<path d="M36.7245 42.0286C36.8155 42.0088 36.9046 41.987 36.9946 41.9662V46.549C36.9046 46.5698 36.8155 46.5916 36.7245 46.6113V42.0286Z" fill="#F5C491"/>
<path d="M30.3524 42.8677C30.4424 42.8628 30.5325 42.8569 30.6226 42.8519V47.4347C30.5325 47.4406 30.4424 47.4466 30.3524 47.4515V42.8677Z" fill="#F5C491"/>
<path d="M31.6273 42.7807C31.7173 42.7738 31.8084 42.7668 31.8984 42.7589V47.3417C31.8084 47.3496 31.7183 47.3555 31.6273 47.3634V42.7807Z" fill="#F5C491"/>
<path d="M29.079 42.9163C29.169 42.9143 29.2591 42.9113 29.3491 42.9093V47.4921C29.2591 47.4941 29.169 47.497 29.079 47.499V42.9163Z" fill="#F5C491"/>
<path d="M32.9017 42.658C32.9918 42.6481 33.0818 42.6362 33.1719 42.6253V47.2081C33.0818 47.218 32.9918 47.2308 32.9017 47.2407V42.658Z" fill="#F5C491"/>
<path d="M39.5449 45.8266C39.4559 45.8573 39.3658 45.888 39.2748 45.9177V41.3349C39.3658 41.3052 39.4559 41.2745 39.5449 41.2439V45.8266Z" fill="#F5C491"/>
<path d="M13.785 40.1514C13.8741 40.1998 13.9622 40.2473 14.0552 40.2948V44.8776C13.9622 44.8301 13.8741 44.7816 13.785 44.7341V40.1514Z" fill="#F5C491"/>
<path d="M11.5059 42.9835C11.4069 42.8648 11.3159 42.7451 11.2357 42.6243V38.0416C11.3159 38.1623 11.4069 38.282 11.5059 38.4018V42.9835Z" fill="#F5C491"/>
<path d="M15.3286 45.4526C15.2386 45.4159 15.1455 45.3803 15.0584 45.3437V40.7609C15.1465 40.7975 15.2386 40.8342 15.3286 40.8708V45.4526Z" fill="#F5C491"/>
<path d="M37.9999 41.7159C38.0909 41.6912 38.18 41.6654 38.27 41.6397V46.2224C38.18 46.2472 38.0909 46.2739 37.9999 46.2986V41.7159Z" fill="#F5C491"/>
<path d="M12.5091 39.3419C12.5962 39.4082 12.6863 39.4735 12.7793 39.5388V44.1216C12.6853 44.0563 12.5962 43.9909 12.5091 43.9246V39.3419Z" fill="#F5C491"/>
<path d="M18.8822 41.9673C18.9722 41.988 19.0613 42.0098 19.1523 42.0306V46.6133C19.0613 46.5935 18.9722 46.5708 18.8822 46.55V41.9673Z" fill="#F5C491"/>
<path d="M43.3687 43.9246C43.2806 43.9919 43.1925 44.0572 43.0985 44.1226V39.5398C43.1925 39.4735 43.2816 39.4082 43.3687 39.3419V43.9246Z" fill="#F5C491"/>
<path d="M17.6078 41.6407C17.6968 41.6664 17.7879 41.6902 17.8779 41.7149V46.2977C17.7879 46.2729 17.6968 46.2492 17.6078 46.2244V41.6407Z" fill="#F5C491"/>
<path d="M16.3329 41.2458C16.4219 41.2765 16.514 41.3042 16.603 41.3339V45.9167C16.513 45.887 16.4209 45.8583 16.3329 45.8286V41.2458Z" fill="#F5C491"/>
<path d="M41.8226 40.2958C41.9156 40.2483 42.0037 40.1998 42.0928 40.1523V44.7351C42.0037 44.7836 41.9156 44.8321 41.8226 44.8786V40.2958Z" fill="#F5C491"/>
<path d="M44.6421 42.6253C44.5619 42.746 44.4699 42.8648 44.3709 42.9835V38.4008C44.4699 38.282 44.5619 38.1623 44.6421 38.0416V42.6253Z" fill="#F5C491"/>
<path d="M27.8035 47.5129V42.9301C27.8491 42.9311 27.8936 42.9321 27.9391 42.9321C27.9846 42.9321 28.0292 42.9311 28.0747 42.9301V47.5129C28.0292 47.5129 27.9846 47.5139 27.9391 47.5139C27.8936 47.5139 27.8491 47.5129 27.8035 47.5129Z" fill="#F5C491"/>
<path d="M40.5492 40.8708C40.6412 40.8342 40.7303 40.7966 40.8193 40.759V45.3417C40.7303 45.3793 40.6412 45.4169 40.5492 45.4535V40.8708Z" fill="#F5C491"/>
<path d="M25.2552 42.8519C25.3453 42.8569 25.4353 42.8628 25.5254 42.8677V47.4505C25.4353 47.4456 25.3453 47.4406 25.2552 47.4357V42.8519Z" fill="#F5C491"/>
<path d="M26.5287 42.9083C26.6187 42.9113 26.7088 42.9133 26.7988 42.9153V47.498C26.7088 47.4961 26.6187 47.4931 26.5287 47.4911V42.9083Z" fill="#F5C491"/>
<path d="M20.1566 42.2354C20.2467 42.2522 20.3367 42.2691 20.4268 42.2859V46.8687C20.3367 46.8518 20.2467 46.835 20.1566 46.8182V42.2354Z" fill="#F5C491"/>
<path d="M23.9808 42.7579C24.0699 42.7658 24.1609 42.7728 24.251 42.7797V47.3624C24.1609 47.3555 24.0699 47.3476 23.9808 47.3407V42.7579Z" fill="#F5C491"/>
<path d="M22.7059 42.6253C22.796 42.6362 22.886 42.6481 22.9761 42.658V47.2407C22.886 47.2298 22.796 47.218 22.7059 47.2071V42.6253Z" fill="#F5C491"/>
<path d="M21.4315 42.4541C21.5206 42.468 21.6116 42.4798 21.7017 42.4927V47.0755C21.6116 47.0626 21.5206 47.0507 21.4315 47.0369V42.4541Z" fill="#F5C491"/>
<path d="M15.8364 32.3554C19.1911 31.1125 23.566 30.492 27.939 30.492C32.3763 30.492 36.8126 31.1313 40.1782 32.4059C46.8618 34.9382 46.8015 39.0203 40.0446 41.5239C36.6889 42.7668 32.314 43.3883 27.94 43.3883C23.5037 43.3883 19.0674 42.749 15.7008 41.4744C9.0162 38.9421 9.07657 34.8591 15.8364 32.3554Z" fill="url(#paint9_linear_24_3883)"/>
<path opacity="0.3" d="M15.8363 32.3554C16.8664 31.9734 17.9946 31.6508 19.187 31.3866L44.3244 34.9669C46.1957 37.1539 44.8706 39.6388 40.3661 41.3992L10.7409 37.1796C10.5687 35.438 12.2688 33.6765 15.8363 32.3554Z" fill="white"/>
<path opacity="0.6" d="M40.0436 41.8564C36.6879 43.1003 32.313 43.7208 27.939 43.7208C23.5027 43.7208 19.0664 43.0825 15.6999 41.8069C12.359 40.5412 10.7025 38.8877 10.7272 37.238V37.236C10.7272 37.1925 10.7341 37.148 10.7371 37.1044C10.844 38.6878 12.4926 40.2602 15.6999 41.4744C19.0664 42.75 23.5027 43.3883 27.939 43.3883C32.313 43.3883 36.6879 42.7678 40.0436 41.5239C43.336 40.3047 45.0341 38.7085 45.141 37.1015C45.2617 38.8204 43.5626 40.5521 40.0436 41.8564Z" fill="white"/>
<path d="M18.9407 33.531C21.4364 32.6068 24.6882 32.1456 27.94 32.1456C31.2382 32.1456 34.5365 32.6206 37.0382 33.5687C42.0069 35.4518 41.9633 38.4869 36.9363 40.3483C34.4415 41.2726 31.1907 41.7327 27.939 41.7327C24.6407 41.7327 21.3424 41.2587 18.8407 40.3097C13.8701 38.4285 13.9166 35.3925 18.9407 33.531Z" fill="#F28500"/>
<path opacity="0.6" d="M37.0384 34.7225C34.5367 33.7745 31.2384 33.2995 27.9402 33.2995C24.6884 33.2995 21.4366 33.7606 18.9409 34.6849C16.836 35.4647 15.609 36.4503 15.2537 37.4706C14.751 36.0357 15.981 34.5315 18.9409 33.4351C21.4366 32.5108 24.6884 32.0496 27.9402 32.0496C31.2384 32.0496 34.5367 32.5246 37.0384 33.4737C39.926 34.5671 41.1165 36.0515 40.6246 37.4666C40.2743 36.4652 39.0809 35.4964 37.0384 34.7225Z" fill="white"/>
<path d="M37.0384 34.8185C34.5367 33.8705 31.2384 33.3945 27.9402 33.3945C24.6884 33.3945 21.4366 33.8556 18.9409 34.7799C16.836 35.5597 15.609 36.5453 15.2537 37.5656C14.751 36.1297 15.981 34.6265 18.9409 33.5301C21.4366 32.6058 24.6884 32.1446 27.9402 32.1446C31.2384 32.1446 34.5367 32.6196 37.0384 33.5677C39.926 34.6621 41.1165 36.1455 40.6246 37.5616C40.2743 36.5611 39.0809 35.5923 37.0384 34.8185Z" fill="#D96D00"/>
<path d="M21.8166 37.5616H21.8157V36.7056L26.628 35.2401C26.6844 35.2193 26.7448 35.2094 26.8081 35.2094C26.8714 35.2094 26.9298 35.2203 26.9852 35.241L34.9712 37.4003C34.9712 37.5171 34.9712 38.2781 34.9712 38.3018C34.9712 38.3256 34.9415 38.3483 34.8891 38.3691L33.0029 39.0668C32.9465 39.0875 32.8881 39.0974 32.8248 39.0974C32.7614 39.0974 32.7011 39.0866 32.6476 39.0668L29.9926 38.0604C29.9728 38.0524 29.953 38.0495 29.9332 38.0495C29.9134 38.0495 29.8926 38.0524 29.8738 38.0604L28.6082 38.5284C28.0263 38.7432 27.4058 38.8926 26.7398 38.9728C26.3569 39.0203 25.9778 39.044 25.6028 39.044C25.3237 39.044 25.0466 39.0311 24.7715 39.0054C24.1224 38.9441 23.5356 38.8144 23.0071 38.6155C22.4747 38.4127 22.1165 38.189 21.9394 37.9466C21.8444 37.8179 21.8048 37.6903 21.8166 37.5616ZM25.2841 37.806C25.5177 37.8941 25.7839 37.9377 26.0847 37.9377C26.1105 37.9377 26.1372 37.9377 26.1629 37.9367C26.4934 37.9278 26.8081 37.8684 27.102 37.7605L28.1045 37.3894C28.1431 37.3756 28.1431 37.3607 28.1045 37.3459L26.5231 36.7472C26.5033 36.7393 26.4845 36.7353 26.4647 36.7353C26.4449 36.7353 26.4242 36.7393 26.4044 36.7472L25.4039 37.1183C25.109 37.2271 24.9516 37.3439 24.9289 37.4706C24.9071 37.5953 25.0269 37.7081 25.2841 37.806Z" fill="#D96D00"/>
<path d="M21.978 36.3068C22.1848 36.0624 22.5697 35.8358 23.1338 35.626L26.628 34.3316C26.6844 34.3108 26.7448 34.3009 26.8081 34.3009C26.8714 34.3009 26.9298 34.3118 26.9852 34.3326L34.891 37.3271C34.9445 37.3479 34.9712 37.3696 34.9712 37.3934C34.9712 37.4171 34.9415 37.4399 34.8891 37.4597L33.0029 38.1583C32.9465 38.1791 32.8881 38.189 32.8248 38.189C32.7615 38.189 32.7011 38.1781 32.6476 38.1583L29.9926 37.1519C29.9728 37.144 29.953 37.141 29.9332 37.141C29.9134 37.141 29.8926 37.144 29.8738 37.1519L28.6082 37.62C28.0263 37.8347 27.4058 37.9832 26.7398 38.0643C26.3569 38.1118 25.9778 38.1346 25.6028 38.1346C25.3237 38.1346 25.0467 38.1217 24.7715 38.096C24.1224 38.0346 23.5356 37.905 23.0071 37.7061C22.4747 37.5032 22.1165 37.2796 21.9394 37.0371C21.7583 36.7947 21.7731 36.5503 21.978 36.3068ZM25.2842 36.8976C25.5177 36.9857 25.7839 37.0292 26.0847 37.0292C26.1105 37.0292 26.1372 37.0292 26.1629 37.0282C26.4934 37.0193 26.8081 36.9599 27.102 36.8521L28.1045 36.481C28.1431 36.4671 28.1431 36.4523 28.1045 36.4365L26.5231 35.8378C26.5033 35.8298 26.4845 35.8259 26.4647 35.8259C26.4449 35.8259 26.4242 35.8298 26.4044 35.8378L25.4039 36.2089C25.109 36.3177 24.9516 36.4345 24.9289 36.5611C24.9071 36.6868 25.0269 36.7996 25.2842 36.8976Z" fill="url(#paint10_linear_24_3883)"/>
<g opacity="0.6">
<path opacity="0.6" d="M25.4038 36.1336L26.4043 35.7635C26.425 35.7556 26.4448 35.7517 26.4646 35.7517C26.4844 35.7517 26.5032 35.7556 26.523 35.7635L28.1044 36.3613C28.1429 36.3761 28.1429 36.3899 28.1044 36.4048L28.0608 36.4206L26.522 35.8378C26.5022 35.8298 26.4834 35.8259 26.4636 35.8259C26.4438 35.8259 26.4231 35.8298 26.4033 35.8378L25.4028 36.2089C25.1198 36.3128 24.9664 36.4256 24.9347 36.5463C24.9308 36.5255 24.9239 36.5067 24.9278 36.4849C24.9506 36.3593 25.1089 36.2415 25.4038 36.1336Z" fill="white"/>
<path opacity="0.6" d="M21.9384 36.9619C22.1165 37.2044 22.4738 37.428 23.0061 37.6309C23.5346 37.8298 24.1204 37.9594 24.7706 38.0208C25.0457 38.0465 25.3228 38.0584 25.6018 38.0584C25.9769 38.0584 26.3559 38.0356 26.7389 37.9881C27.4048 37.907 28.0253 37.7585 28.6072 37.5428L29.8729 37.0747C29.8927 37.0668 29.9124 37.0638 29.9322 37.0638C29.952 37.0638 29.9718 37.0668 29.9916 37.0747L32.6467 38.0811C32.7001 38.1009 32.7605 38.1128 32.8238 38.1128C32.8871 38.1128 32.9455 38.1029 33.0019 38.0811L34.8881 37.3835C34.9118 37.3746 34.9296 37.3647 34.9435 37.3548C34.9603 37.3676 34.9712 37.3795 34.9712 37.3934C34.9712 37.4171 34.9415 37.4399 34.8891 37.4597L33.0029 38.1583C32.9465 38.1791 32.8881 38.189 32.8248 38.189C32.7615 38.189 32.7011 38.1781 32.6477 38.1583L29.9926 37.1519C29.9728 37.144 29.953 37.141 29.9332 37.141C29.9134 37.141 29.8927 37.144 29.8739 37.1519L28.6082 37.62C28.0263 37.8347 27.4058 37.9832 26.7398 38.0643C26.3569 38.1118 25.9779 38.1346 25.6028 38.1346C25.3237 38.1346 25.0467 38.1217 24.7716 38.096C24.1224 38.0346 23.5356 37.905 23.0071 37.7061C22.4747 37.5032 22.1165 37.2796 21.9394 37.0371C21.8454 36.9095 21.8058 36.7818 21.8177 36.6552C21.8246 36.7581 21.8632 36.86 21.9384 36.9619Z" fill="white"/>
</g>
<path d="M10.7272 31.917V36.4998C10.7272 38.1376 12.3828 39.7773 15.6999 41.0341C19.0665 42.3086 23.5028 42.9479 27.9391 42.9479C32.313 42.9479 36.688 42.3275 40.0436 41.0845C43.4468 39.8228 45.1509 38.1623 45.1509 36.4998V31.917C45.1509 33.5785 43.4468 35.241 40.0436 36.5008C36.688 37.7437 32.313 38.3642 27.9391 38.3642C23.5028 38.3642 19.0665 37.7259 15.6999 36.4503C12.3828 35.1945 10.7272 33.5548 10.7272 31.917Z" fill="#D96D00"/>
<path d="M10.7272 31.6469V36.2296C10.7272 37.8674 12.3828 39.5061 15.6999 40.7639C19.0665 42.0395 23.5028 42.6777 27.9391 42.6777C32.313 42.6777 36.688 42.0573 40.0436 40.8144C43.4468 39.5536 45.1509 37.8921 45.1509 36.2296V31.6469C45.1509 33.3094 43.4468 34.9699 40.0436 36.2316C36.688 37.4735 32.313 38.095 27.9391 38.095C23.5028 38.095 19.0665 37.4567 15.6999 36.1811C12.3828 34.9234 10.7272 33.2846 10.7272 31.6469Z" fill="url(#paint11_linear_24_3883)"/>
<path d="M34.1761 37.6566C34.2662 37.6438 34.3562 37.6309 34.4463 37.617V42.1998C34.3562 42.2137 34.2662 42.2255 34.1761 42.2394V37.6566Z" fill="#F5C491"/>
<path d="M35.451 37.4478C35.5411 37.432 35.6311 37.4152 35.7212 37.3983V41.9811C35.6321 41.9979 35.5411 42.0137 35.451 42.0306V37.4478Z" fill="#F5C491"/>
<path d="M36.7245 37.1915C36.8155 37.1707 36.9046 37.1499 36.9946 37.1292V41.7119C36.9046 41.7327 36.8155 41.7545 36.7245 41.7753V37.1915Z" fill="#F5C491"/>
<path d="M30.3524 38.0307C30.4424 38.0257 30.5325 38.0198 30.6226 38.0139V42.5966C30.5325 42.6026 30.4424 42.6075 30.3524 42.6124V38.0307Z" fill="#F5C491"/>
<path d="M31.6273 37.9436C31.7173 37.9367 31.8084 37.9297 31.8984 37.9218V42.5046C31.8084 42.5125 31.7183 42.5194 31.6273 42.5264V37.9436Z" fill="#F5C491"/>
<path d="M29.079 38.0782C29.169 38.0762 29.2591 38.0742 29.3491 38.0712V42.654C29.2591 42.657 29.169 42.659 29.079 42.6619V38.0782Z" fill="#F5C491"/>
<path d="M32.9017 37.8209C32.9918 37.81 33.0818 37.7991 33.1719 37.7882V42.371C33.0818 42.3819 32.9918 42.3928 32.9017 42.4036V37.8209Z" fill="#F5C491"/>
<path d="M39.5449 40.9895C39.4559 41.0202 39.3658 41.0509 39.2748 41.0806V36.4978C39.3658 36.4681 39.4559 36.4374 39.5449 36.4068V40.9895Z" fill="#F5C491"/>
<path d="M13.785 35.3143C13.8741 35.3628 13.9622 35.4113 14.0552 35.4588V40.0415C13.9622 39.994 13.8741 39.9455 13.785 39.898V35.3143Z" fill="#F5C491"/>
<path d="M11.5059 38.1465C11.4069 38.0267 11.3159 37.907 11.2357 37.7873V33.2045C11.3159 33.3252 11.4069 33.4449 11.5059 33.5637V38.1465Z" fill="#F5C491"/>
<path d="M15.3286 40.6155C15.2386 40.5789 15.1455 40.5432 15.0584 40.5056V35.9229C15.1465 35.9605 15.2386 35.9961 15.3286 36.0337V40.6155Z" fill="#F5C491"/>
<path d="M37.9999 36.8788C38.0909 36.8551 38.18 36.8283 38.27 36.8026V41.3854C38.18 41.4101 38.0909 41.4368 37.9999 41.4616V36.8788Z" fill="#F5C491"/>
<path d="M12.5091 34.5048C12.5962 34.5701 12.6863 34.6364 12.7793 34.7007V39.2835C12.6853 39.2182 12.5962 39.1529 12.5091 39.0866V34.5048Z" fill="#F5C491"/>
<path d="M18.8822 37.1292C18.9722 37.1499 19.0613 37.1727 19.1523 37.1925V41.7753C19.0613 41.7545 18.9722 41.7327 18.8822 41.7119V37.1292Z" fill="#F5C491"/>
<path d="M43.3687 39.0866C43.2806 39.1539 43.1925 39.2202 43.0985 39.2855V34.7027C43.1925 34.6374 43.2816 34.5701 43.3687 34.5038V39.0866Z" fill="#F5C491"/>
<path d="M17.6078 36.8036C17.6968 36.8293 17.7879 36.8531 17.8779 36.8778V41.4606C17.7879 41.4359 17.6968 41.4121 17.6078 41.3864V36.8036Z" fill="#F5C491"/>
<path d="M16.3329 36.4088C16.4219 36.4384 16.514 36.4671 16.603 36.4968V41.0796C16.513 41.0499 16.4209 41.0222 16.3329 40.9915V36.4088Z" fill="#F5C491"/>
<path d="M41.8226 35.4588C41.9156 35.4113 42.0037 35.3628 42.0928 35.3143V39.897C42.0037 39.9455 41.9156 39.994 41.8226 40.0405V35.4588Z" fill="#F5C491"/>
<path d="M44.6421 37.7883C44.5619 37.909 44.4699 38.0287 44.3709 38.1475V33.5647C44.4699 33.445 44.5619 33.3262 44.6421 33.2055V37.7883Z" fill="#F5C491"/>
<path d="M27.8035 42.6758V38.093C27.8491 38.093 27.8936 38.094 27.9391 38.094C27.9846 38.094 28.0292 38.093 28.0747 38.093V42.6758C28.0292 42.6768 27.9846 42.6777 27.9391 42.6777C27.8936 42.6777 27.8491 42.6758 27.8035 42.6758Z" fill="#F5C491"/>
<path d="M40.5492 36.0337C40.6412 35.9971 40.7303 35.9585 40.8193 35.9219V40.5046C40.7303 40.5422 40.6412 40.5798 40.5492 40.6165V36.0337Z" fill="#F5C491"/>
<path d="M25.2552 38.0139C25.3453 38.0198 25.4353 38.0247 25.5254 38.0297V42.6124C25.4353 42.6075 25.3453 42.6026 25.2552 42.5966V38.0139Z" fill="#F5C491"/>
<path d="M26.5287 38.0703C26.6187 38.0732 26.7088 38.0762 26.7988 38.0772V42.6599C26.7088 42.658 26.6187 42.655 26.5287 42.652V38.0703Z" fill="#F5C491"/>
<path d="M20.1566 37.3973C20.2467 37.4142 20.3367 37.432 20.4268 37.4478V42.0306C20.3367 42.0137 20.2467 41.9969 20.1566 41.9801V37.3973Z" fill="#F5C491"/>
<path d="M23.9808 37.9208C24.0699 37.9288 24.1609 37.9357 24.251 37.9426V42.5254C24.1609 42.5185 24.0699 42.5115 23.9808 42.5036V37.9208Z" fill="#F5C491"/>
<path d="M22.7059 37.7882C22.796 37.7991 22.886 37.81 22.9761 37.8209V42.4036C22.886 42.3937 22.796 42.3819 22.7059 42.371V37.7882Z" fill="#F5C491"/>
<path d="M21.4315 37.617C21.5206 37.6309 21.6116 37.6418 21.7017 37.6556V42.2384C21.6116 42.2255 21.5206 42.2137 21.4315 42.1998V37.617Z" fill="#F5C491"/>
<path d="M15.8364 27.5173C19.1911 26.2744 23.566 25.6549 27.939 25.6549C32.3763 25.6549 36.8126 26.2942 40.1782 27.5688C46.8618 30.1002 46.8015 34.1832 40.0446 36.6878C36.6889 37.9307 32.314 38.5512 27.94 38.5512C23.5037 38.5512 19.0674 37.9129 15.7008 36.6373C9.0162 34.104 9.07657 30.022 15.8364 27.5173Z" fill="url(#paint12_linear_24_3883)"/>
<path opacity="0.3" d="M15.8363 27.5173C16.8664 27.1354 17.9946 26.8128 19.187 26.5495L44.3244 30.1298C46.1957 32.3168 44.8706 34.8017 40.3661 36.5621L10.7409 32.3426C10.5687 30.6009 12.2688 28.8394 15.8363 27.5173Z" fill="white"/>
<path opacity="0.6" d="M40.0436 37.0183C36.6879 38.2612 32.313 38.8827 27.939 38.8827C23.5027 38.8827 19.0664 38.2434 15.6999 36.9688C12.359 35.7032 10.7025 34.0506 10.7272 32.3999V32.398C10.7272 32.3544 10.7341 32.3109 10.7371 32.2663C10.844 33.8497 12.4926 35.4221 15.6999 36.6373C19.0664 37.9119 23.5027 38.5512 27.939 38.5512C32.313 38.5512 36.6879 37.9307 40.0436 36.6878C43.336 35.4676 45.0341 33.8724 45.141 32.2654C45.2617 33.9833 43.5626 35.715 40.0436 37.0183Z" fill="white"/>
<path d="M18.9407 28.694C21.4364 27.7697 24.6882 27.3085 27.94 27.3085C31.2382 27.3085 34.5365 27.7826 37.0382 28.7316C42.0069 30.6147 41.9633 33.6498 36.9363 35.5102C34.4415 36.4345 31.1907 36.8956 27.939 36.8956C24.6407 36.8956 21.3424 36.4206 18.8407 35.4726C13.8701 33.5904 13.9166 30.5554 18.9407 28.694Z" fill="#F28500"/>
<path opacity="0.6" d="M37.0384 29.8854C34.5367 28.9364 31.2384 28.4614 27.9402 28.4614C24.6884 28.4614 21.4366 28.9226 18.9409 29.8468C16.836 30.6266 15.609 31.6122 15.2537 32.6325C14.751 31.1966 15.981 29.6925 18.9409 28.597C21.4366 27.6727 24.6884 27.2116 27.9402 27.2116C31.2384 27.2116 34.5367 27.6866 37.0384 28.6346C39.926 29.7291 41.1165 31.2125 40.6246 32.6285C40.2743 31.6281 39.0809 30.6593 37.0384 29.8854Z" fill="white"/>
<path d="M37.0384 29.9814C34.5367 29.0334 31.2384 28.5584 27.9402 28.5584C24.6884 28.5584 21.4366 29.0195 18.9409 29.9438C16.836 30.7236 15.609 31.7092 15.2537 32.7295C14.751 31.2946 15.981 29.7904 18.9409 28.694C21.4366 27.7697 24.6884 27.3085 27.9402 27.3085C31.2384 27.3085 34.5367 27.7826 37.0384 28.7316C39.926 29.8251 41.1165 31.3094 40.6246 32.7255C40.2743 31.7241 39.0809 30.7553 37.0384 29.9814Z" fill="#D96D00"/>
<path d="M21.8166 32.7245H21.8157V31.8685L26.628 30.403C26.6844 30.3822 26.7448 30.3723 26.8081 30.3723C26.8714 30.3723 26.9298 30.3832 26.9852 30.404L34.9712 32.5632C34.9712 32.68 34.9712 33.441 34.9712 33.4647C34.9712 33.4885 34.9415 33.5113 34.8891 33.531L33.0029 34.2287C32.9465 34.2505 32.8881 34.2604 32.8248 34.2604C32.7614 34.2604 32.7011 34.2495 32.6476 34.2287L29.9926 33.2233C29.9728 33.2164 29.953 33.2124 29.9332 33.2124C29.9134 33.2124 29.8926 33.2154 29.8738 33.2233L28.6082 33.6914C28.0263 33.9071 27.4058 34.0555 26.7398 34.1367C26.3569 34.1842 25.9778 34.2069 25.6028 34.2069C25.3237 34.2069 25.0466 34.1941 24.7715 34.1683C24.1224 34.107 23.5356 33.9773 23.0071 33.7784C22.4747 33.5756 22.1165 33.3519 21.9394 33.1095C21.8444 32.9808 21.8048 32.8532 21.8166 32.7245ZM25.2841 32.969C25.5177 33.058 25.7839 33.1016 26.0847 33.1016C26.1105 33.1016 26.1372 33.1006 26.1629 33.1006C26.4934 33.0927 26.8081 33.0333 27.102 32.9244L28.1045 32.5523C28.1431 32.5375 28.1431 32.5227 28.1045 32.5088L26.5231 31.9101C26.5033 31.9032 26.4845 31.8992 26.4647 31.8992C26.4449 31.8992 26.4242 31.9032 26.4044 31.9101L25.4039 32.2812C25.109 32.3901 24.9516 32.5078 24.9289 32.6345C24.9071 32.7582 25.0269 32.87 25.2841 32.969Z" fill="#D96D00"/>
<path d="M21.978 31.4697C22.1848 31.2253 22.5697 30.9987 23.1338 30.7899L26.628 29.4955C26.6844 29.4747 26.7448 29.4648 26.8081 29.4648C26.8714 29.4648 26.9298 29.4757 26.9852 29.4965L34.891 32.491C34.9445 32.5118 34.9712 32.5335 34.9712 32.5573C34.9712 32.581 34.9415 32.6038 34.8891 32.6236L33.0029 33.3222C32.9465 33.343 32.8881 33.3529 32.8248 33.3529C32.7615 33.3529 32.7011 33.342 32.6476 33.3222L29.9926 32.3158C29.9728 32.3079 29.953 32.304 29.9332 32.304C29.9134 32.304 29.8926 32.3079 29.8738 32.3158L28.6082 32.7839C28.0263 32.9996 27.4058 33.1481 26.7398 33.2292C26.3569 33.2767 25.9778 33.2995 25.6028 33.2995C25.3237 33.2995 25.0467 33.2866 24.7715 33.2609C24.1224 33.1995 23.5356 33.0699 23.0071 32.871C22.4747 32.6681 22.1165 32.4445 21.9394 32.202C21.7583 31.9576 21.7731 31.7132 21.978 31.4697ZM25.2842 32.0605C25.5177 32.1476 25.7839 32.1921 26.0847 32.1921C26.1105 32.1921 26.1372 32.1921 26.1629 32.1911C26.4934 32.1832 26.8081 32.1238 27.102 32.015L28.1045 31.6439C28.1431 31.6291 28.1431 31.6142 28.1045 31.6004L26.5231 31.0017C26.5033 30.9937 26.4845 30.9898 26.4647 30.9898C26.4449 30.9898 26.4242 30.9937 26.4044 31.0017L25.4039 31.3728C25.109 31.4816 24.9516 31.5984 24.9289 31.725C24.9071 31.8497 25.0269 31.9616 25.2842 32.0605Z" fill="url(#paint13_linear_24_3883)"/>
<g opacity="0.6">
<path opacity="0.6" d="M25.4038 31.2966L26.4043 30.9255C26.425 30.9176 26.4448 30.9146 26.4646 30.9146C26.4844 30.9146 26.5032 30.9185 26.523 30.9255L28.1044 31.5242C28.1429 31.538 28.1429 31.5529 28.1044 31.5677L28.0608 31.5835L26.522 31.0017C26.5022 30.9937 26.4834 30.9898 26.4636 30.9898C26.4438 30.9898 26.4231 30.9937 26.4033 31.0017L25.4028 31.3728C25.1198 31.4767 24.9664 31.5895 24.9347 31.7102C24.9308 31.6904 24.9239 31.6706 24.9278 31.6498C24.9506 31.5222 25.1089 31.4044 25.4038 31.2966Z" fill="white"/>
<path opacity="0.6" d="M21.9384 32.1248C22.1165 32.3673 22.4738 32.5909 23.0061 32.7938C23.5346 32.9937 24.1204 33.1233 24.7706 33.1847C25.0457 33.2104 25.3228 33.2233 25.6018 33.2233C25.9769 33.2233 26.3559 33.2005 26.7389 33.153C27.4048 33.0719 28.0253 32.9224 28.6072 32.7077L29.8729 32.2386C29.8927 32.2307 29.9124 32.2287 29.9322 32.2287C29.952 32.2287 29.9718 32.2317 29.9916 32.2386L32.6467 33.245C32.7001 33.2658 32.7605 33.2767 32.8238 33.2767C32.8871 33.2767 32.9455 33.2668 33.0019 33.245L34.8881 32.5474C34.9118 32.5385 34.9296 32.5286 34.9435 32.5187C34.9603 32.5306 34.9712 32.5434 34.9712 32.5563C34.9712 32.58 34.9415 32.6028 34.8891 32.6226L33.0029 33.3212C32.9465 33.342 32.8881 33.3519 32.8248 33.3519C32.7615 33.3519 32.7011 33.341 32.6477 33.3212L29.9926 32.3148C29.9728 32.3069 29.953 32.303 29.9332 32.303C29.9134 32.303 29.8927 32.3069 29.8739 32.3148L28.6082 32.7829C28.0263 32.9986 27.4058 33.1471 26.7398 33.2282C26.3569 33.2757 25.9779 33.2985 25.6028 33.2985C25.3237 33.2985 25.0467 33.2856 24.7716 33.2599C24.1224 33.1985 23.5356 33.0689 23.0071 32.87C22.4747 32.6671 22.1165 32.4435 21.9394 32.201C21.8454 32.0734 21.8058 31.9467 21.8177 31.8181C21.8246 31.92 21.8632 32.0229 21.9384 32.1248Z" fill="white"/>
</g>
<path d="M10.7272 27.08V31.6627C10.7272 33.3005 12.3828 34.9392 15.6999 36.197C19.0665 37.4726 23.5028 38.1108 27.9391 38.1108C32.313 38.1108 36.688 37.4904 40.0436 36.2475C43.4468 34.9867 45.1509 33.3252 45.1509 31.6637V27.0809C45.1509 28.7434 43.4468 30.405 40.0436 31.6657C36.688 32.9086 32.313 33.5291 27.9391 33.5291C23.5028 33.5291 19.0665 32.8908 15.6999 31.6152C12.3828 30.3565 10.7272 28.7177 10.7272 27.08Z" fill="#D96D00"/>
<path d="M10.7272 26.8098V31.3926C10.7272 33.0303 12.3828 34.6701 15.6999 35.9268C19.0665 37.2024 23.5028 37.8407 27.9391 37.8407C32.313 37.8407 36.688 37.2202 40.0436 35.9773C43.4468 34.7156 45.1509 33.0551 45.1509 31.3926V26.8098C45.1509 28.4723 43.4468 30.1328 40.0436 31.3945C36.688 32.6365 32.313 33.2579 27.9391 33.2579C23.5028 33.2579 19.0665 32.6187 15.6999 31.3441C12.3828 30.0863 10.7272 28.4476 10.7272 26.8098Z" fill="url(#paint14_linear_24_3883)"/>
<path d="M34.1761 32.8195C34.2662 32.8067 34.3562 32.7938 34.4463 32.78V37.3627C34.3562 37.3766 34.2662 37.3894 34.1761 37.4023V32.8195Z" fill="#F5C491"/>
<path d="M35.451 32.6107C35.5411 32.5939 35.6311 32.5781 35.7212 32.5612V37.144C35.6321 37.1608 35.5411 37.1767 35.451 37.1935V32.6107Z" fill="#F5C491"/>
<path d="M36.7245 32.3544C36.8155 32.3346 36.9046 32.3129 36.9946 32.2921V36.8748C36.9046 36.8956 36.8155 36.9174 36.7245 36.9382V32.3544Z" fill="#F5C491"/>
<path d="M30.3524 33.1936C30.4424 33.1886 30.5325 33.1817 30.6226 33.1768V37.7595C30.5325 37.7655 30.4424 37.7714 30.3524 37.7764V33.1936Z" fill="#F5C491"/>
<path d="M31.6273 33.1065C31.7173 33.0986 31.8084 33.0927 31.8984 33.0847V37.6675C31.8084 37.6754 31.7183 37.6814 31.6273 37.6893V33.1065Z" fill="#F5C491"/>
<path d="M29.079 33.2411C29.169 33.2391 29.2591 33.2361 29.3491 33.2342V37.8169C29.2591 37.8199 29.169 37.8219 29.079 37.8239V33.2411Z" fill="#F5C491"/>
<path d="M32.9017 32.9838C32.9918 32.9739 33.0818 32.962 33.1719 32.9512V37.5339C33.0818 37.5448 32.9918 37.5557 32.9017 37.5666V32.9838Z" fill="#F5C491"/>
<path d="M39.5449 36.1525C39.4559 36.1831 39.3658 36.2138 39.2748 36.2435V31.6607C39.3658 31.632 39.4559 31.6014 39.5449 31.5697V36.1525Z" fill="#F5C491"/>
<path d="M13.785 30.4772C13.8741 30.5257 13.9622 30.5742 14.0552 30.6217V35.2044C13.9622 35.1569 13.8741 35.1084 13.785 35.06V30.4772Z" fill="#F5C491"/>
<path d="M11.5059 33.3094C11.4069 33.1896 11.3159 33.0699 11.2357 32.9492V28.3664C11.3159 28.4871 11.4069 28.6069 11.5059 28.7256V33.3094Z" fill="#F5C491"/>
<path d="M15.3286 35.7784C15.2386 35.7418 15.1455 35.7062 15.0584 35.6685V31.0858C15.1465 31.1224 15.2386 31.159 15.3286 31.1956V35.7784Z" fill="#F5C491"/>
<path d="M37.9999 32.0417C38.0909 32.017 38.18 31.9913 38.27 31.9655V36.5483C38.18 36.573 38.0909 36.5988 37.9999 36.6245V32.0417Z" fill="#F5C491"/>
<path d="M12.5091 29.6677C12.5962 29.734 12.6863 29.7993 12.7793 29.8646V34.4474C12.6853 34.3821 12.5962 34.3168 12.5091 34.2515V29.6677Z" fill="#F5C491"/>
<path d="M18.8822 32.2921C18.9722 32.3129 19.0613 32.3346 19.1523 32.3554V36.9382C19.0613 36.9184 18.9722 36.8956 18.8822 36.8758V32.2921Z" fill="#F5C491"/>
<path d="M43.3687 34.2495C43.2806 34.3158 43.1925 34.3821 43.0985 34.4474V29.8656C43.1925 29.8003 43.2816 29.734 43.3687 29.6677V34.2495Z" fill="#F5C491"/>
<path d="M17.6078 31.9665C17.6968 31.9913 17.7879 32.016 17.8779 32.0397V36.6225C17.7879 36.5978 17.6968 36.573 17.6078 36.5493V31.9665Z" fill="#F5C491"/>
<path d="M16.3329 31.5717C16.4219 31.6023 16.514 31.6301 16.603 31.6597V36.2425C16.513 36.2128 16.4209 36.1841 16.3329 36.1534V31.5717Z" fill="#F5C491"/>
<path d="M41.8226 30.6217C41.9156 30.5742 42.0037 30.5257 42.0928 30.4772V35.0599C42.0037 35.1074 41.9156 35.1559 41.8226 35.2034V30.6217Z" fill="#F5C491"/>
<path d="M44.6421 32.9513C44.5619 33.072 44.4699 33.1917 44.3709 33.3105V28.7277C44.4699 28.608 44.5619 28.4883 44.6421 28.3685V32.9513Z" fill="#F5C491"/>
<path d="M27.8035 37.8387V33.2559C27.8491 33.2559 27.8936 33.2569 27.9391 33.2569C27.9846 33.2569 28.0292 33.2559 28.0747 33.2559V37.8387C28.0292 37.8397 27.9846 37.8407 27.9391 37.8407C27.8936 37.8407 27.8491 37.8387 27.8035 37.8387Z" fill="#F5C491"/>
<path d="M40.5492 31.1966C40.6412 31.16 40.7303 31.1224 40.8193 31.0848V35.6676C40.7303 35.7052 40.6412 35.7428 40.5492 35.7794V31.1966Z" fill="#F5C491"/>
<path d="M25.2552 33.1768C25.3453 33.1817 25.4353 33.1877 25.5254 33.1926V37.7754C25.4353 37.7704 25.3453 37.7645 25.2552 37.7595V33.1768Z" fill="#F5C491"/>
<path d="M26.5287 33.2342C26.6187 33.2371 26.7088 33.2391 26.7988 33.2411V37.8239C26.7088 37.8219 26.6187 37.8189 26.5287 37.8169V33.2342Z" fill="#F5C491"/>
<path d="M20.1566 32.5603C20.2467 32.5771 20.3367 32.5939 20.4268 32.6107V37.1935C20.3367 37.1767 20.2467 37.1598 20.1566 37.143V32.5603Z" fill="#F5C491"/>
<path d="M23.9808 33.0838C24.0699 33.0917 24.1609 33.0986 24.251 33.1055V37.6883C24.1609 37.6814 24.0699 37.6744 23.9808 37.6655V33.0838Z" fill="#F5C491"/>
<path d="M22.7059 32.9512C22.796 32.962 22.886 32.9739 22.9761 32.9848V37.5676C22.886 37.5577 22.796 37.5458 22.7059 37.5349V32.9512Z" fill="#F5C491"/>
<path d="M21.4315 32.78C21.5206 32.7938 21.6116 32.8047 21.7017 32.8185V37.4013C21.6116 37.3884 21.5206 37.3766 21.4315 37.3627V32.78Z" fill="#F5C491"/>
<path d="M15.8364 22.6803C19.1911 21.4373 23.566 20.8169 27.939 20.8169C32.3763 20.8169 36.8126 21.4561 40.1782 22.7317C46.8618 25.2641 46.8015 29.3461 40.0446 31.8497C36.6889 33.0927 32.314 33.7131 27.94 33.7131C23.5037 33.7131 19.0674 33.0739 15.7008 31.7993C9.0162 29.2679 9.07657 25.1839 15.8364 22.6803Z" fill="url(#paint15_linear_24_3883)"/>
<path opacity="0.3" d="M15.8363 22.6803C16.8664 22.2983 17.9946 21.9757 19.187 21.7115L44.3244 25.2918C46.1957 27.4787 44.8706 29.9636 40.3661 31.7241L10.7409 27.5045C10.5687 25.7638 12.2688 24.0023 15.8363 22.6803Z" fill="white"/>
<path opacity="0.6" d="M40.0436 32.1822C36.6879 33.4252 32.313 34.0456 27.939 34.0456C23.5027 34.0456 19.0664 33.4073 15.6999 32.1318C12.359 30.8661 10.7025 29.2125 10.7272 27.5629V27.5609C10.7272 27.5173 10.7341 27.4728 10.7371 27.4293C10.844 29.0126 12.4926 30.5851 15.6999 31.8003C19.0664 33.0748 23.5027 33.7141 27.939 33.7141C32.313 33.7141 36.6879 33.0936 40.0436 31.8507C43.336 30.6306 45.0341 29.0354 45.141 27.4283C45.2617 29.1462 43.5626 30.878 40.0436 32.1822Z" fill="white"/>
<path d="M18.9407 23.8569C21.4364 22.9326 24.6882 22.4715 27.94 22.4715C31.2382 22.4715 34.5365 22.9465 37.0382 23.8955C42.0069 25.7777 41.9633 28.8137 36.9363 30.6751C34.4415 31.5994 31.1907 32.0605 27.939 32.0605C24.6407 32.0605 21.3424 31.5855 18.8407 30.6365C13.8701 28.7533 13.9166 25.7183 18.9407 23.8569Z" fill="#F28500"/>
<path opacity="0.6" d="M37.0384 25.0483C34.5367 24.1003 31.2384 23.6253 27.9402 23.6253C24.6884 23.6253 21.4366 24.0865 18.9409 25.0117C16.836 25.7915 15.609 26.7771 15.2537 27.7974C14.751 26.3615 15.981 24.8583 18.9409 23.7619C21.4366 22.8376 24.6884 22.3765 27.9402 22.3765C31.2384 22.3765 34.5367 22.8505 37.0384 23.7995C39.926 24.894 41.1165 26.3773 40.6246 27.7924C40.2743 26.79 39.0809 25.8222 37.0384 25.0483Z" fill="white"/>
<path d="M37.0384 25.1443C34.5367 24.1963 31.2384 23.7213 27.9402 23.7213C24.6884 23.7213 21.4366 24.1824 18.9409 25.1067C16.836 25.8865 15.609 26.8721 15.2537 27.8924C14.751 26.4565 15.981 24.9533 18.9409 23.8569C21.4366 22.9326 24.6884 22.4715 27.9402 22.4715C31.2384 22.4715 34.5367 22.9465 37.0384 23.8955C39.926 24.989 41.1165 26.4733 40.6246 27.8884C40.2743 26.886 39.0809 25.9172 37.0384 25.1443Z" fill="#D96D00"/>
<path d="M21.8166 27.8875H21.8157V27.0315L26.628 25.5649C26.6844 25.5441 26.7448 25.5342 26.8081 25.5342C26.8714 25.5342 26.9298 25.5451 26.9852 25.5659L34.9712 27.7262C34.9712 27.8429 34.9712 28.6039 34.9712 28.6277C34.9712 28.6514 34.9415 28.6742 34.8891 28.694L33.0029 29.3916C32.9465 29.4124 32.8881 29.4233 32.8248 29.4233C32.7614 29.4233 32.7011 29.4124 32.6476 29.3916L29.9926 28.3852C29.9728 28.3773 29.953 28.3743 29.9332 28.3743C29.9134 28.3743 29.8926 28.3773 29.8738 28.3852L28.6082 28.8533C28.0263 29.069 27.4058 29.2175 26.7398 29.2986C26.3569 29.3461 25.9778 29.3689 25.6028 29.3689C25.3237 29.3689 25.0466 29.356 24.7715 29.3303C24.1224 29.2689 23.5356 29.1393 23.0071 28.9394C22.4747 28.7365 22.1165 28.5129 21.9394 28.2704C21.8444 28.1438 21.8048 28.0161 21.8166 27.8875ZM25.2841 28.1319C25.5177 28.22 25.7839 28.2635 26.0847 28.2635C26.1105 28.2635 26.1372 28.2635 26.1629 28.2625C26.4934 28.2546 26.8081 28.1942 27.102 28.0864L28.1045 27.7143C28.1431 27.7004 28.1431 27.6856 28.1045 27.6707L26.5231 27.072C26.5033 27.0651 26.4845 27.0602 26.4647 27.0602C26.4449 27.0602 26.4242 27.0651 26.4044 27.072L25.4039 27.4431C25.109 27.552 24.9516 27.6697 24.9289 27.7954C24.9071 27.9211 25.0269 28.0329 25.2841 28.1319Z" fill="#D96D00"/>
<path d="M21.978 26.6317C22.1848 26.3872 22.5697 26.1606 23.1338 25.9508L26.628 24.6565C26.6844 24.6357 26.7448 24.6258 26.8081 24.6258C26.8714 24.6258 26.9298 24.6367 26.9852 24.6575L34.891 27.6519C34.9445 27.6727 34.9712 27.6945 34.9712 27.7182C34.9712 27.742 34.9415 27.7647 34.8891 27.7855L33.0029 28.4832C32.9465 28.505 32.8881 28.5148 32.8248 28.5148C32.7615 28.5148 32.7011 28.504 32.6476 28.4832L29.9926 27.4768C29.9728 27.4698 29.953 27.4659 29.9332 27.4659C29.9134 27.4659 29.8926 27.4689 29.8738 27.4768L28.6082 27.9448C28.0263 28.1606 27.4058 28.309 26.7398 28.3902C26.3569 28.4367 25.9778 28.4604 25.6028 28.4604C25.3237 28.4604 25.0467 28.4476 24.7715 28.4218C24.1224 28.3605 23.5356 28.2308 23.0071 28.0309C22.4747 27.8281 22.1165 27.6044 21.9394 27.362C21.7583 27.1205 21.7731 26.8751 21.978 26.6317ZM25.2842 27.2234C25.5177 27.3115 25.7839 27.3551 26.0847 27.3551C26.1105 27.3551 26.1372 27.3551 26.1629 27.3541C26.4934 27.3462 26.8081 27.2858 27.102 27.1779L28.1045 26.8058C28.1431 26.792 28.1431 26.7771 28.1045 26.7623L26.5231 26.1636C26.5033 26.1557 26.4845 26.1527 26.4647 26.1527C26.4449 26.1527 26.4242 26.1567 26.4044 26.1636L25.4039 26.5347C25.109 26.6426 24.9516 26.7613 24.9289 26.887C24.9071 27.0127 25.0269 27.1245 25.2842 27.2234Z" fill="url(#paint16_linear_24_3883)"/>
<g opacity="0.6">
<path opacity="0.6" d="M25.4038 26.4585L26.4043 26.0874C26.425 26.0795 26.4448 26.0755 26.4646 26.0755C26.4844 26.0755 26.5032 26.0795 26.523 26.0874L28.1044 26.6861C28.1429 26.7009 28.1429 26.7158 28.1044 26.7296L28.0608 26.7455L26.522 26.1626C26.5022 26.1547 26.4834 26.1517 26.4636 26.1517C26.4438 26.1517 26.4231 26.1557 26.4033 26.1626L25.4028 26.5337C25.1198 26.6376 24.9664 26.7504 24.9347 26.8711C24.9308 26.8514 24.9239 26.8316 24.9278 26.8098C24.9506 26.6841 25.1089 26.5673 25.4038 26.4585Z" fill="white"/>
<path opacity="0.6" d="M21.9384 27.2868C22.1165 27.5292 22.4738 27.7529 23.0061 27.9557C23.5346 28.1556 24.1204 28.2853 24.7706 28.3456C25.0457 28.3714 25.3228 28.3842 25.6018 28.3842C25.9769 28.3842 26.3559 28.3605 26.7389 28.313C27.4048 28.2318 28.0253 28.0834 28.6072 27.8687L29.8729 27.3996C29.8927 27.3917 29.9124 27.3887 29.9322 27.3887C29.952 27.3887 29.9718 27.3917 29.9916 27.3996L32.6467 28.406C32.7001 28.4258 32.7605 28.4377 32.8238 28.4377C32.8871 28.4377 32.9455 28.4278 33.0019 28.406L34.8881 27.7083C34.9118 27.6994 34.9296 27.6895 34.9435 27.6796C34.9603 27.6925 34.9712 27.7044 34.9712 27.7182C34.9712 27.742 34.9415 27.7647 34.8891 27.7855L33.0029 28.4832C32.9465 28.505 32.8881 28.5148 32.8248 28.5148C32.7615 28.5148 32.7011 28.504 32.6477 28.4832L29.9926 27.4768C29.9728 27.4699 29.953 27.4659 29.9332 27.4659C29.9134 27.4659 29.8927 27.4689 29.8739 27.4768L28.6082 27.9449C28.0263 28.1606 27.4058 28.309 26.7398 28.3902C26.3569 28.4367 25.9779 28.4604 25.6028 28.4604C25.3237 28.4604 25.0467 28.4476 24.7716 28.4218C24.1224 28.3605 23.5356 28.2308 23.0071 28.0309C22.4747 27.8281 22.1165 27.6044 21.9394 27.362C21.8454 27.2343 21.8058 27.1067 21.8177 26.979C21.8246 27.0829 21.8632 27.1858 21.9384 27.2868Z" fill="white"/>
</g>
<path opacity="0.7" d="M42.5691 38.7481C42.4524 31.0323 38.407 24.8385 33.5323 24.9128C28.6615 24.986 24.8041 31.3005 24.9209 39.0153C25.0377 46.7301 29.0841 52.9249 33.9568 52.8507C38.8315 52.7785 42.6869 46.4629 42.5691 38.7481Z" fill="url(#paint17_radial_24_3883)"/>
<path opacity="0.7" d="M40.8027 42.7282C35.7064 36.9332 28.6091 34.8462 24.9496 38.0663C21.2911 41.2834 22.4539 48.5905 27.5492 54.3845C32.6446 60.1776 39.7439 62.2656 43.4033 59.0465C47.0628 55.8283 45.8991 48.5222 40.8027 42.7282Z" fill="url(#paint18_radial_24_3883)"/>
<path d="M52.5815 21.2978H48.2135C39.519 21.2978 32.4712 29.6311 32.4712 39.9109C32.4712 50.1917 39.519 58.5249 48.2135 58.5249H52.5815C43.8871 58.5249 36.8402 50.1917 36.8402 39.9109C36.8392 29.6311 43.8871 21.2978 52.5815 21.2978Z" fill="#D96D00"/>
<path d="M52.7856 21.2978H48.4176C39.7231 21.2978 32.6753 29.6311 32.6753 39.9109C32.6753 50.1917 39.7231 58.5249 48.4176 58.5249H52.7856C44.0912 58.5249 37.0443 50.1917 37.0443 39.9109C37.0434 29.6311 44.0912 21.2978 52.7856 21.2978Z" fill="url(#paint19_linear_24_3883)"/>
<path d="M37.2002 37.3014H32.8322C32.844 37.2044 32.8539 37.1064 32.8668 37.0094H37.2358C37.222 37.1054 37.2121 37.2044 37.2002 37.3014Z" fill="#F5C491"/>
<path d="M33.4181 34.2525H37.7871C37.7614 34.3494 37.7356 34.4474 37.7109 34.5444H33.3419C33.3667 34.4474 33.3914 34.3494 33.4181 34.2525Z" fill="#F5C491"/>
<path d="M37.0429 39.9109C37.0429 39.9604 37.0459 40.0089 37.0459 40.0574H32.6769C32.6769 40.0089 32.6739 39.9604 32.6739 39.9109C32.6739 39.8624 32.6769 39.8139 32.6769 39.7644H37.0459C37.0459 39.8139 37.0429 39.8624 37.0429 39.9109Z" fill="#F5C491"/>
<path d="M33.7459 33.1659C33.7776 33.0679 33.8102 32.97 33.8429 32.874H38.2119C38.1783 32.9709 38.1466 33.0689 38.1139 33.1659H33.7459Z" fill="#F5C491"/>
<path d="M38.6184 31.7884H34.2504C34.291 31.6894 34.3345 31.5934 34.3771 31.4965H38.7461C38.7035 31.5934 38.659 31.6894 38.6184 31.7884Z" fill="#F5C491"/>
<path d="M32.7138 38.6789C32.7187 38.5809 32.7256 38.4839 32.7326 38.3869H37.1006C37.0937 38.4849 37.0867 38.5819 37.0818 38.6789H32.7138Z" fill="#F5C491"/>
<path d="M39.249 49.4129C39.2985 49.5108 39.348 49.6078 39.3994 49.7048H35.0314C34.9809 49.6078 34.9305 49.5098 34.881 49.4129H39.249Z" fill="#F5C491"/>
<path d="M35.6477 50.7914H40.0167C40.0761 50.8883 40.1335 50.9873 40.1948 51.0833H35.8268C35.7644 50.9873 35.7071 50.8883 35.6477 50.7914Z" fill="#F5C491"/>
<path d="M32.8322 42.5214H37.2002C37.2121 42.6194 37.222 42.7173 37.2349 42.8133H32.8658C32.8539 42.7173 32.8441 42.6184 32.8322 42.5214Z" fill="#F5C491"/>
<path d="M33.0978 44.1918C33.078 44.0949 33.0592 43.9979 33.0404 43.8999H37.4084C37.4262 43.9979 37.446 44.0949 37.4658 44.1918H33.0978Z" fill="#F5C491"/>
<path d="M42.3472 53.8403H37.9792C37.8871 53.7443 37.7961 53.6473 37.706 53.5483H42.075C42.1651 53.6463 42.2561 53.7433 42.3472 53.8403Z" fill="#F5C491"/>
<path d="M33.7449 46.6559H38.114C38.1466 46.7539 38.1783 46.8518 38.2109 46.9478H33.8429C33.8093 46.8518 33.7776 46.7539 33.7449 46.6559Z" fill="#F5C491"/>
<path d="M37.7109 45.2784C37.7356 45.3754 37.7604 45.4733 37.7871 45.5703H33.4181C33.3914 45.4733 33.3667 45.3754 33.3419 45.2784H37.7109Z" fill="#F5C491"/>
<path d="M37.1006 41.4358H32.7326C32.7256 41.3389 32.7197 41.2409 32.7138 41.1439H37.0818C37.0867 41.2409 37.0937 41.3389 37.1006 41.4358Z" fill="#F5C491"/>
<path d="M37.9791 25.9825H42.3472C42.2551 26.0785 42.1641 26.1765 42.074 26.2744H37.705C37.7961 26.1765 37.8871 26.0785 37.9791 25.9825Z" fill="#F5C491"/>
<path d="M41.1606 27.361C41.0864 27.456 41.0162 27.5559 40.9439 27.6529H36.5759C36.6481 27.555 36.7184 27.456 36.7926 27.361H41.1606Z" fill="#F5C491"/>
<path d="M43.7208 22.1409C44.0147 22.0331 44.3126 21.9371 44.6134 21.849H48.9814C48.6806 21.9371 48.3827 22.0331 48.0888 22.1409H43.7208Z" fill="#F5C491"/>
<path d="M34.3771 48.3273C34.3355 48.2293 34.291 48.1334 34.2504 48.0354H38.6185C38.659 48.1334 38.7036 48.2303 38.7451 48.3273H34.3771Z" fill="#F5C491"/>
<path d="M39.1152 24.8969C39.23 24.798 39.3458 24.701 39.4625 24.605H43.8315C43.7148 24.701 43.598 24.798 43.4832 24.8969H39.1152Z" fill="#F5C491"/>
<path d="M40.1938 28.7395C40.1325 28.8355 40.0751 28.9344 40.0157 29.0314H35.6467C35.7061 28.9334 35.7635 28.8355 35.8248 28.7395H40.1938Z" fill="#F5C491"/>
<path d="M40.9557 23.5184C41.115 23.4175 41.2763 23.3215 41.4386 23.2265H45.8076C45.6453 23.3215 45.484 23.4175 45.3247 23.5184H40.9557Z" fill="#F5C491"/>
<path d="M45.3237 56.3043C45.483 56.4063 45.6443 56.5013 45.8066 56.5963H41.4376C41.2753 56.5013 41.114 56.4053 40.9547 56.3043H45.3237Z" fill="#F5C491"/>
<path d="M48.0888 57.6818C48.3827 57.7907 48.6806 57.8857 48.9814 57.9738H44.6134C44.3126 57.8857 44.0147 57.7897 43.7208 57.6818H48.0888Z" fill="#F5C491"/>
<path d="M43.4832 54.9258C43.598 55.0248 43.7138 55.1218 43.8315 55.2178H39.4625C39.3458 55.1218 39.23 55.0248 39.1152 54.9258H43.4832Z" fill="#F5C491"/>
<path d="M39.3994 30.118C39.3489 30.215 39.2985 30.3119 39.249 30.4099H34.881C34.9305 30.3119 34.9799 30.214 35.0314 30.118H39.3994Z" fill="#F5C491"/>
<path d="M37.4668 35.63C37.447 35.7279 37.4282 35.8249 37.4094 35.9219H33.0414C33.0592 35.8239 33.079 35.7269 33.0988 35.63H37.4668Z" fill="#F5C491"/>
<path d="M40.9439 52.1689C41.0162 52.2659 41.0874 52.3658 41.1606 52.4618H36.7916C36.7174 52.3658 36.6472 52.2668 36.5749 52.1689H40.9439Z" fill="#F5C491"/>
<path d="M52.3471 58.524C43.6534 58.524 36.6058 50.1906 36.6058 39.9109C36.6058 29.6312 43.6534 21.2978 52.3471 21.2978C61.0408 21.2978 68.0884 29.6312 68.0884 39.9109C68.0884 50.1906 61.0408 58.524 52.3471 58.524Z" fill="url(#paint20_linear_24_3883)"/>
<g opacity="0.3">
<path opacity="0.3" d="M52.347 21.2978C55.4672 21.2978 58.3726 22.3755 60.8188 24.227L41.0272 52.8388C38.292 49.4901 36.6057 44.936 36.6057 39.9119C36.6057 39.8208 36.6107 39.7308 36.6117 39.6397L49.0052 21.7223C50.0819 21.4463 51.1991 21.2978 52.347 21.2978Z" fill="white"/>
<path opacity="0.3" d="M65.5393 29.7597C66.9633 32.3426 67.8589 35.3667 68.0469 38.6234L54.3926 58.3627C53.7227 58.4656 53.0408 58.524 52.3471 58.524C50.2977 58.524 48.3433 58.0569 46.5482 57.2138L65.5393 29.7597Z" fill="white"/>
</g>
<path opacity="0.6" d="M36.2309 39.9109C36.2309 29.6311 43.2787 21.2978 51.9721 21.2978C52.0345 21.2978 52.0968 21.3028 52.1592 21.3038C43.5518 21.4235 36.6049 29.7063 36.6049 39.9119C36.6049 50.1184 43.5518 58.4013 52.1592 58.52C52.0968 58.521 52.0345 58.5259 51.9721 58.5259C43.2777 58.525 36.2309 50.1917 36.2309 39.9109Z" fill="white"/>
<path opacity="0.6" d="M52.5804 26.0735C59.0443 26.0735 64.2832 32.2673 64.2832 39.9109C64.2832 47.5524 59.0443 53.7492 52.5804 53.7492C46.1164 53.7492 40.8776 47.5524 40.8776 39.9109C40.8776 32.2673 46.1164 26.0735 52.5804 26.0735Z" fill="white"/>
<path d="M52.347 26.0735C58.8119 26.0735 64.0498 32.2673 64.0498 39.9109C64.0498 47.5524 58.8119 53.7492 52.347 53.7492C45.883 53.7492 40.6442 47.5524 40.6442 39.9109C40.6442 32.2673 45.882 26.0735 52.347 26.0735Z" fill="#F28500"/>
<path d="M46.6638 35.5488C46.9646 34.9125 47.3921 34.4227 47.9433 34.0783C48.4975 33.7339 49.1358 33.5597 49.8611 33.5597H54.3588C54.43 33.5597 54.4874 33.5855 54.528 33.633C54.5686 33.6805 54.5884 33.7488 54.5884 33.8329V45.9889C54.5884 46.073 54.5686 46.1393 54.528 46.1888C54.4884 46.2363 54.43 46.2601 54.3588 46.2601H51.9333C51.8621 46.2601 51.8067 46.2363 51.7641 46.1888C51.7245 46.1393 51.7037 46.073 51.7037 45.9889V41.9089C51.7037 41.8485 51.677 41.8168 51.6256 41.8168H49.9987C49.2535 41.8168 48.5925 41.6486 48.0205 41.3092C47.4466 40.9697 47.0042 40.4908 46.6856 39.8753C46.3699 39.2597 46.2096 38.5463 46.2096 37.7368C46.2106 36.9115 46.362 36.1831 46.6638 35.5488ZM49.4257 38.7402C49.6543 38.9767 49.9591 39.0955 50.3381 39.0955H51.6266C51.678 39.0955 51.7047 39.0638 51.7047 39.0034V36.572C51.7047 36.5117 51.678 36.482 51.6266 36.482H50.3381C49.9601 36.482 49.6553 36.6027 49.4257 36.8452C49.1961 37.0846 49.0804 37.4063 49.0804 37.8051C49.0813 38.193 49.1971 38.5067 49.4257 38.7402Z" fill="#D96D00"/>
<path d="M62.4902 39.9109C62.4902 32.5771 57.667 26.5822 51.5672 26.1072C51.8255 26.0874 52.0848 26.0735 52.347 26.0735C58.8119 26.0735 64.0498 32.2673 64.0498 39.9109C64.0498 47.5524 58.8119 53.7492 52.347 53.7492C52.0848 53.7492 51.8255 53.7354 51.5672 53.7146C57.667 53.2406 62.4902 47.2427 62.4902 39.9109Z" fill="#D96D00"/>
<path opacity="0.6" d="M47.8503 35.5488C48.1512 34.9125 48.5777 34.4227 49.1299 34.0783C49.684 33.7339 50.3223 33.5597 51.0477 33.5597H55.5453C55.6166 33.5597 55.675 33.5855 55.7145 33.633C55.7541 33.6805 55.7749 33.7488 55.7749 33.8329V45.9889C55.7749 46.073 55.7551 46.1393 55.7145 46.1888C55.674 46.2363 55.6166 46.2601 55.5453 46.2601H53.1199C53.0486 46.2601 52.9932 46.2363 52.9506 46.1888C52.9101 46.1393 52.8903 46.073 52.8903 45.9889V41.9089C52.8903 41.8485 52.8635 41.8168 52.8121 41.8168H51.1852C50.4401 41.8168 49.779 41.6486 49.207 41.3092C48.6331 40.9697 48.1898 40.4908 47.8721 39.8753C47.5564 39.2597 47.3951 38.5463 47.3951 37.7368C47.3961 36.9115 47.5475 36.1831 47.8503 35.5488ZM50.6122 38.7402C50.8418 38.9767 51.1456 39.0955 51.5246 39.0955H52.8131C52.8645 39.0955 52.8913 39.0638 52.8913 39.0034V36.572C52.8913 36.5117 52.8645 36.482 52.8131 36.482H51.5246C51.1456 36.482 50.8418 36.6027 50.6122 36.8452C50.3827 37.0846 50.2669 37.4063 50.2669 37.8051C50.2669 38.193 50.3827 38.5067 50.6122 38.7402Z" fill="white"/>
<path d="M48.0632 35.5488C48.364 34.9125 48.7906 34.4227 49.3427 34.0783C49.8969 33.7339 50.5352 33.5597 51.2606 33.5597H55.7582C55.8295 33.5597 55.8878 33.5855 55.9274 33.633C55.968 33.6805 55.9878 33.7488 55.9878 33.8329V45.9889C55.9878 46.073 55.968 46.1393 55.9274 46.1888C55.8878 46.2363 55.8295 46.2601 55.7582 46.2601H53.3327C53.2615 46.2601 53.2061 46.2363 53.1635 46.1888C53.1239 46.1393 53.1032 46.073 53.1032 45.9889V41.9089C53.1032 41.8485 53.0764 41.8168 53.025 41.8168H51.3981C50.6529 41.8168 49.9919 41.6486 49.4199 41.3092C48.846 40.9697 48.4036 40.4908 48.085 39.8753C47.7693 39.2597 47.609 38.5463 47.609 37.7368C47.61 36.9115 47.7604 36.1831 48.0632 35.5488ZM50.8251 38.7402C51.0537 38.9767 51.3585 39.0955 51.7375 39.0955H53.026C53.0774 39.0955 53.1041 39.0638 53.1041 39.0034V36.572C53.1041 36.5117 53.0774 36.482 53.026 36.482H51.7375C51.3595 36.482 51.0547 36.6027 50.8251 36.8452C50.5956 37.0846 50.4798 37.4063 50.4798 37.8051C50.4798 38.193 50.5956 38.5067 50.8251 38.7402Z" fill="url(#paint21_linear_24_3883)"/>
<defs>
<radialGradient id="paint0_radial_24_3883" cx="0" cy="0" r="1" gradientUnits="userSpaceOnUse" gradientTransform="translate(26.5291 52.5827) rotate(180) scale(20.7872 7.31589)">
<stop stop-color="#23354A"/>
<stop offset="0.1826" stop-color="#2A415C" stop-opacity="0.8174"/>
<stop offset="0.5486" stop-color="#3D618B" stop-opacity="0.4514"/>
<stop offset="1" stop-color="#588DCC" stop-opacity="0"/>
</radialGradient>
<radialGradient id="paint1_radial_24_3883" cx="0" cy="0" r="1" gradientUnits="userSpaceOnUse" gradientTransform="translate(45.807 53.2559) rotate(180) scale(20.7872 7.31589)">
<stop stop-color="#23354A"/>
<stop offset="0.1826" stop-color="#2A415C" stop-opacity="0.8174"/>
<stop offset="0.5486" stop-color="#3D618B" stop-opacity="0.4514"/>
<stop offset="1" stop-color="#588DCC" stop-opacity="0"/>
</radialGradient>
<linearGradient id="paint2_linear_24_3883" x1="45.1512" y1="51.6739" x2="10.7268" y2="51.6739" gradientUnits="userSpaceOnUse">
<stop stop-color="#F28500"/>
<stop offset="1" stop-color="#FBA905"/>
</linearGradient>
<linearGradient id="paint3_linear_24_3883" x1="21.2601" y1="43.7012" x2="42.7194" y2="53.0621" gradientUnits="userSpaceOnUse">
<stop stop-color="#FBCF0A"/>
<stop offset="1" stop-color="#FBA505"/>
</linearGradient>
<linearGradient id="paint4_linear_24_3883" x1="21.2091" y1="43.8185" x2="42.6682" y2="53.1794" gradientUnits="userSpaceOnUse">
<stop stop-color="#FBCF0A"/>
<stop offset="1" stop-color="#FBA505"/>
</linearGradient>
<linearGradient id="paint5_linear_24_3883" x1="45.1512" y1="46.8362" x2="10.7268" y2="46.8362" gradientUnits="userSpaceOnUse">
<stop stop-color="#F28500"/>
<stop offset="1" stop-color="#FBA905"/>
</linearGradient>
<linearGradient id="paint6_linear_24_3883" x1="21.2601" y1="38.8638" x2="42.7194" y2="48.2248" gradientUnits="userSpaceOnUse">
<stop stop-color="#FBCF0A"/>
<stop offset="1" stop-color="#FBA505"/>
</linearGradient>
<linearGradient id="paint7_linear_24_3883" x1="21.2091" y1="38.9813" x2="42.6681" y2="48.3421" gradientUnits="userSpaceOnUse">
<stop stop-color="#FBCF0A"/>
<stop offset="1" stop-color="#FBA505"/>
</linearGradient>
<linearGradient id="paint8_linear_24_3883" x1="45.1512" y1="41.999" x2="10.7268" y2="41.999" gradientUnits="userSpaceOnUse">
<stop stop-color="#F28500"/>
<stop offset="1" stop-color="#FBA905"/>
</linearGradient>
<linearGradient id="paint9_linear_24_3883" x1="21.2601" y1="34.0265" x2="42.7194" y2="43.3874" gradientUnits="userSpaceOnUse">
<stop stop-color="#FBCF0A"/>
<stop offset="1" stop-color="#FBA505"/>
</linearGradient>
<linearGradient id="paint10_linear_24_3883" x1="21.209" y1="34.1441" x2="42.6681" y2="43.505" gradientUnits="userSpaceOnUse">
<stop stop-color="#FBCF0A"/>
<stop offset="1" stop-color="#FBA505"/>
</linearGradient>
<linearGradient id="paint11_linear_24_3883" x1="45.1512" y1="37.1617" x2="10.7268" y2="37.1617" gradientUnits="userSpaceOnUse">
<stop stop-color="#F28500"/>
<stop offset="1" stop-color="#FBA905"/>
</linearGradient>
<linearGradient id="paint12_linear_24_3883" x1="21.26" y1="29.1893" x2="42.7194" y2="38.5504" gradientUnits="userSpaceOnUse">
<stop stop-color="#FBCF0A"/>
<stop offset="1" stop-color="#FBA505"/>
</linearGradient>
<linearGradient id="paint13_linear_24_3883" x1="21.209" y1="29.3068" x2="42.6681" y2="38.6677" gradientUnits="userSpaceOnUse">
<stop stop-color="#FBCF0A"/>
<stop offset="1" stop-color="#FBA505"/>
</linearGradient>
<linearGradient id="paint14_linear_24_3883" x1="45.1512" y1="32.3245" x2="10.7268" y2="32.3245" gradientUnits="userSpaceOnUse">
<stop stop-color="#F28500"/>
<stop offset="1" stop-color="#FBA905"/>
</linearGradient>
<linearGradient id="paint15_linear_24_3883" x1="21.2601" y1="24.352" x2="42.7195" y2="33.713" gradientUnits="userSpaceOnUse">
<stop stop-color="#FBCF0A"/>
<stop offset="1" stop-color="#FBA505"/>
</linearGradient>
<linearGradient id="paint16_linear_24_3883" x1="21.209" y1="24.4694" x2="42.668" y2="33.8302" gradientUnits="userSpaceOnUse">
<stop stop-color="#FBCF0A"/>
<stop offset="1" stop-color="#FBA505"/>
</linearGradient>
<radialGradient id="paint17_radial_24_3883" cx="0" cy="0" r="1" gradientUnits="userSpaceOnUse" gradientTransform="translate(33.7454 38.8825) rotate(-0.870938) scale(8.82379 13.9728)">
<stop stop-color="#660418"/>
<stop offset="0.1826" stop-color="#78031B" stop-opacity="0.8174"/>
<stop offset="0.5486" stop-color="#A70223" stop-opacity="0.4514"/>
<stop offset="1" stop-color="#E8002E" stop-opacity="0"/>
</radialGradient>
<radialGradient id="paint18_radial_24_3883" cx="0" cy="0" r="1" gradientUnits="userSpaceOnUse" gradientTransform="translate(34.1762 48.557) rotate(-41.3344) scale(8.82383 13.9728)">
<stop stop-color="#660418"/>
<stop offset="0.1395" stop-color="#711629" stop-opacity="0.8605"/>
<stop offset="0.4194" stop-color="#8F4554" stop-opacity="0.5806"/>
<stop offset="0.81" stop-color="#BE8F99" stop-opacity="0.19"/>
<stop offset="1" stop-color="#D6B6BD" stop-opacity="0"/>
</radialGradient>
<linearGradient id="paint19_linear_24_3883" x1="41.1744" y1="53.1145" x2="49.4579" y2="24.1707" gradientUnits="userSpaceOnUse">
<stop stop-color="#F28500"/>
<stop offset="1" stop-color="#FBA905"/>
</linearGradient>
<linearGradient id="paint20_linear_24_3883" x1="58.5171" y1="23.117" x2="47.3098" y2="53.6203" gradientUnits="userSpaceOnUse">
<stop stop-color="#FBCF0A"/>
<stop offset="1" stop-color="#FBA505"/>
</linearGradient>
<linearGradient id="paint21_linear_24_3883" x1="58.4897" y1="23.1857" x2="47.2828" y2="53.6881" gradientUnits="userSpaceOnUse">
<stop stop-color="#FBCF0A"/>
<stop offset="1" stop-color="#FBA505"/>
</linearGradient>
</defs>
</svg>
