<svg width="36" height="36" viewBox="0 0 36 36" fill="none" xmlns="http://www.w3.org/2000/svg">
<path opacity="0.7" d="M12.5663 28.3725C7.12769 28.3725 2.71881 26.8212 2.71881 24.9075C2.71881 22.9938 7.12769 21.4425 12.5663 21.4425C18.0049 21.4425 22.4138 22.9938 22.4138 24.9075C22.4138 26.8212 18.0049 28.3725 12.5663 28.3725Z" fill="url(#paint0_radial_21_2288)"/>
<path opacity="0.7" d="M21.6979 28.6917C16.2593 28.6917 11.8504 27.1404 11.8504 25.2267C11.8504 23.3131 16.2593 21.7617 21.6979 21.7617C27.1365 21.7617 31.5454 23.3131 31.5454 25.2267C31.5454 27.1404 27.1365 28.6917 21.6979 28.6917Z" fill="url(#paint1_radial_21_2288)"/>
<path d="M5.08128 21.9928V24.1636C5.08128 24.9398 5.8655 25.7161 7.43675 26.3114C9.03143 26.9156 11.1328 27.218 13.2342 27.218C15.3061 27.218 17.3785 26.9241 18.968 26.3353C20.58 25.7381 21.3872 24.9511 21.3872 24.1641V21.9933C21.3872 22.7803 20.58 23.5673 18.968 24.1645C17.3785 24.7533 15.3061 25.0477 13.2342 25.0477C11.1328 25.0477 9.03143 24.7448 7.43675 24.1411C5.8655 23.5453 5.08128 22.7686 5.08128 21.9928Z" fill="#D96D00"/>
<path d="M5.08128 21.8648V24.0356C5.08128 24.8119 5.8655 25.5881 7.43675 26.1834C9.03143 26.7877 11.1328 27.09 13.2342 27.09C15.3061 27.09 17.3785 26.7961 18.968 26.2069C20.58 25.6097 21.3872 24.8227 21.3872 24.0356V21.8648C21.3872 22.6519 20.58 23.4389 18.968 24.0361C17.3785 24.6248 15.3061 24.9187 13.2342 24.9187C11.1328 24.9187 9.03143 24.6164 7.43675 24.0122C5.8655 23.4169 5.08128 22.6406 5.08128 21.8648Z" fill="url(#paint2_linear_21_2288)"/>
<path d="M16.1887 24.7111C16.2313 24.705 16.274 24.6989 16.3167 24.6923V26.8631C16.274 26.8697 16.2313 26.8753 16.1887 26.8819V24.7111Z" fill="#F5C491"/>
<path d="M16.7924 24.6127C16.8351 24.6052 16.8778 24.5972 16.9204 24.5892V26.76C16.8782 26.7684 16.8351 26.7759 16.7924 26.7839V24.6127Z" fill="#F5C491"/>
<path d="M17.3957 24.4912C17.4388 24.4814 17.481 24.4716 17.5237 24.4613V26.632C17.481 26.6419 17.4388 26.6522 17.3957 26.662V24.4912Z" fill="#F5C491"/>
<path d="M14.3774 24.8888C14.4201 24.8864 14.4627 24.8836 14.5054 24.8808V27.0516C14.4627 27.0539 14.4201 27.0572 14.3774 27.0595V24.8888Z" fill="#F5C491"/>
<path d="M14.9812 24.847C15.0238 24.8437 15.067 24.8405 15.1096 24.8367V27.0075C15.067 27.0113 15.0243 27.0145 14.9812 27.0178V24.847Z" fill="#F5C491"/>
<path d="M13.7741 24.9112C13.8168 24.9103 13.8594 24.9089 13.9021 24.908V27.0787C13.8594 27.0797 13.8168 27.0811 13.7741 27.082V24.9112Z" fill="#F5C491"/>
<path d="M15.5849 24.7894C15.6276 24.7847 15.6702 24.7791 15.7129 24.7739V26.9447C15.6702 26.9494 15.6276 26.955 15.5849 26.9597V24.7894Z" fill="#F5C491"/>
<path d="M18.7317 26.2898C18.6895 26.3044 18.6468 26.3189 18.6037 26.333V24.1622C18.6468 24.1481 18.6895 24.1336 18.7317 24.1191V26.2898Z" fill="#F5C491"/>
<path d="M6.52975 23.602C6.57194 23.625 6.61366 23.648 6.65771 23.67V25.8408C6.61366 25.8183 6.57194 25.7953 6.52975 25.7728V23.602Z" fill="#F5C491"/>
<path d="M5.4502 24.9436C5.40332 24.8869 5.36019 24.8302 5.32223 24.773V22.6022C5.36019 22.6594 5.40332 22.7161 5.4502 22.7723V24.9436Z" fill="#F5C491"/>
<path d="M7.26099 26.1131C7.21833 26.0958 7.17426 26.0789 7.13301 26.0611V23.8903C7.17473 23.9076 7.21833 23.925 7.26099 23.9419V26.1131Z" fill="#F5C491"/>
<path d="M18 24.3431C18.0431 24.3314 18.0853 24.3192 18.1279 24.307V26.4778C18.0853 26.4895 18.0431 26.5022 18 26.5139V24.3431Z" fill="#F5C491"/>
<path d="M5.92549 23.2181C5.96674 23.2495 6.0094 23.2805 6.05347 23.3114V25.4822C6.00893 25.4512 5.96674 25.4203 5.92549 25.3889V23.2181Z" fill="#F5C491"/>
<path d="M8.9443 24.4617C8.98695 24.4716 9.02914 24.4823 9.07227 24.4917V26.6625C9.02914 26.6527 8.98695 26.6423 8.9443 26.6325V24.4617Z" fill="#F5C491"/>
<path d="M20.543 25.3889C20.5012 25.4203 20.4595 25.4517 20.415 25.4827V23.3119C20.4595 23.2809 20.5017 23.2491 20.543 23.2181V25.3889Z" fill="#F5C491"/>
<path d="M8.34054 24.3075C8.38273 24.3197 8.42585 24.3309 8.46851 24.3427V26.5134C8.42585 26.5017 8.38273 26.4905 8.34054 26.4787V24.3075Z" fill="#F5C491"/>
<path d="M7.73678 24.12C7.77896 24.1345 7.82256 24.1477 7.86475 24.1617V26.3325C7.82209 26.3184 7.7785 26.3053 7.73678 26.2908V24.12Z" fill="#F5C491"/>
<path d="M19.8108 23.67C19.8548 23.6475 19.8965 23.6245 19.9387 23.602V25.7728C19.8965 25.7953 19.8548 25.8183 19.8108 25.8408V23.67Z" fill="#F5C491"/>
<path d="M21.1462 24.7735C21.1083 24.8307 21.0647 24.8874 21.0178 24.9437V22.7729C21.0647 22.7166 21.1083 22.6599 21.1462 22.6027V24.7735Z" fill="#F5C491"/>
<path d="M13.1699 27.0891V24.9183C13.1915 24.9183 13.2126 24.9187 13.2341 24.9187C13.2557 24.9187 13.2768 24.9183 13.2983 24.9183V27.0891C13.2768 27.0891 13.2557 27.0895 13.2341 27.0895C13.2126 27.0895 13.1915 27.0891 13.1699 27.0891Z" fill="#F5C491"/>
<path d="M19.2075 23.9428C19.2511 23.9255 19.2933 23.9077 19.3354 23.8898V26.0606C19.2933 26.0784 19.2511 26.0958 19.2075 26.1136V23.9428Z" fill="#F5C491"/>
<path d="M11.9629 24.8808C12.0055 24.8836 12.0482 24.8859 12.0908 24.8883V27.0591C12.0482 27.0567 12.0055 27.0539 11.9629 27.0516V24.8808Z" fill="#F5C491"/>
<path d="M12.5661 24.9075C12.6088 24.9089 12.6514 24.9103 12.6941 24.9112V27.082C12.6514 27.0811 12.6088 27.0797 12.5661 27.0787V24.9075Z" fill="#F5C491"/>
<path d="M9.54806 24.5887C9.59072 24.5967 9.63337 24.6052 9.67603 24.6127V26.7834C9.63337 26.7755 9.59072 26.768 9.54806 26.7595V24.5887Z" fill="#F5C491"/>
<path d="M11.3591 24.8367C11.4013 24.8405 11.4444 24.8437 11.4871 24.847V27.0178C11.4444 27.0141 11.4013 27.0108 11.3591 27.007V24.8367Z" fill="#F5C491"/>
<path d="M10.7556 24.7739C10.7982 24.7791 10.8409 24.7847 10.8835 24.7894V26.9602C10.8409 26.9555 10.7982 26.9498 10.7556 26.9447V24.7739Z" fill="#F5C491"/>
<path d="M10.1518 24.6928C10.194 24.6994 10.2371 24.705 10.2798 24.7111V26.8819C10.2371 26.8758 10.194 26.8702 10.1518 26.8636V24.6928Z" fill="#F5C491"/>
<path d="M7.50144 19.9087C9.0905 19.32 11.1628 19.0261 13.2342 19.0261C15.3361 19.0261 17.4375 19.3284 19.0318 19.9327C22.1977 21.1322 22.1691 23.0658 18.9685 24.2522C17.3789 24.8409 15.3066 25.1348 13.2347 25.1348C11.1333 25.1348 9.0319 24.8325 7.43722 24.2283C4.27081 23.0287 4.29941 21.0947 7.50144 19.9087Z" fill="url(#paint3_linear_21_2288)"/>
<path opacity="0.3" d="M7.50147 19.9088C7.98944 19.7278 8.52382 19.575 9.08866 19.4498L20.9958 21.1458C21.8823 22.1817 21.2546 23.3587 19.1208 24.1927L5.08788 22.1939C5.00632 21.3694 5.81163 20.5345 7.50147 19.9088Z" fill="white"/>
<path opacity="0.6" d="M18.9679 24.4092C17.3783 24.998 15.306 25.2919 13.2341 25.2919C11.1327 25.2919 9.03132 24.9891 7.43663 24.3853C5.85413 23.7858 5.06944 23.0025 5.08116 22.2211V22.2202C5.08116 22.1995 5.08444 22.1789 5.08585 22.1578C5.13647 22.9078 5.91741 23.6527 7.43663 24.2283C9.03132 24.8325 11.1327 25.1348 13.2341 25.1348C15.306 25.1348 17.3783 24.8414 18.9679 24.2522C20.5274 23.6742 21.3318 22.9186 21.3824 22.1573C21.4396 22.9711 20.6348 23.7919 18.9679 24.4092Z" fill="white"/>
<path d="M8.97188 20.4661C10.1541 20.0288 11.6944 19.8098 13.2347 19.8098C14.797 19.8098 16.3594 20.0348 17.5444 20.4839C19.898 21.3759 19.8773 22.8136 17.4961 23.6953C16.3144 24.1331 14.7745 24.3516 13.2342 24.3516C11.6719 24.3516 10.1095 24.1266 8.92453 23.677C6.57 22.7855 6.59203 21.3478 8.97188 20.4661Z" fill="#F28500"/>
<path opacity="0.6" d="M17.5444 21.03C16.3594 20.5809 14.797 20.3559 13.2347 20.3559C11.6944 20.3559 10.1541 20.5744 8.97188 21.0127C7.97485 21.382 7.3936 21.8489 7.22532 22.3322C6.98719 21.652 7.56985 20.94 8.97188 20.4206C10.1541 19.9828 11.6944 19.7644 13.2347 19.7644C14.797 19.7644 16.3594 19.9894 17.5444 20.4384C18.9122 20.9569 19.4761 21.6595 19.2431 22.3303C19.0772 21.8559 18.5119 21.397 17.5444 21.03Z" fill="white"/>
<path d="M17.5444 21.0755C16.3594 20.6264 14.797 20.4014 13.2347 20.4014C11.6944 20.4014 10.1541 20.6198 8.97188 21.0577C7.97485 21.427 7.3936 21.8939 7.22532 22.3772C6.98719 21.697 7.56985 20.985 8.97188 20.4652C10.1541 20.0278 11.6944 19.8089 13.2347 19.8089C14.797 19.8089 16.3594 20.0339 17.5444 20.483C18.9122 21.0009 19.4761 21.7041 19.2431 22.3744C19.0772 21.9009 18.5119 21.4425 17.5444 21.0755Z" fill="#D96D00"/>
<path d="M10.3341 22.3753H10.3336V21.9698L12.6131 21.2756C12.6399 21.2658 12.6685 21.2606 12.6985 21.2606C12.7285 21.2606 12.7561 21.2662 12.7824 21.2756L16.5652 22.2984C16.5652 22.3537 16.5652 22.7142 16.5652 22.7255C16.5652 22.7367 16.5511 22.7475 16.5263 22.7569L15.6328 23.0878C15.6061 23.0976 15.5785 23.1023 15.5485 23.1023C15.5185 23.1023 15.4899 23.0972 15.4646 23.0878L14.2069 22.6111C14.1975 22.6073 14.1882 22.6059 14.1788 22.6059C14.1694 22.6059 14.1596 22.6073 14.1507 22.6111L13.5511 22.8328C13.2755 22.935 12.9816 23.0053 12.6661 23.0437C12.4847 23.0662 12.3052 23.077 12.1275 23.077C11.9953 23.077 11.8641 23.0709 11.7338 23.0587C11.4263 23.0301 11.1483 22.9683 10.898 22.8736C10.6458 22.7775 10.4761 22.672 10.3922 22.5567C10.3472 22.4967 10.3285 22.4362 10.3341 22.3753ZM11.9766 22.4906C12.0872 22.5323 12.2133 22.553 12.3558 22.553C12.368 22.553 12.3807 22.553 12.3928 22.5525C12.5494 22.5487 12.6985 22.5206 12.8377 22.4691L13.3125 22.2937C13.3308 22.2872 13.3308 22.2797 13.3125 22.2726L12.5635 21.9891C12.5541 21.9858 12.5452 21.9834 12.5358 21.9834C12.5264 21.9834 12.5166 21.9853 12.5072 21.9891L12.0333 22.1648C11.8936 22.2164 11.8191 22.2722 11.8083 22.3322C11.798 22.3908 11.8547 22.4442 11.9766 22.4906Z" fill="#D96D00"/>
<path d="M10.4105 21.7809C10.5085 21.6652 10.6908 21.5578 10.958 21.4584L12.6132 20.8453C12.6399 20.8355 12.6685 20.8308 12.6985 20.8308C12.7285 20.8308 12.7561 20.8359 12.7824 20.8458L16.5272 22.2637C16.5525 22.2736 16.5652 22.2839 16.5652 22.2956C16.5652 22.3069 16.5511 22.3177 16.5263 22.327L15.6328 22.658C15.6061 22.6678 15.5785 22.6725 15.5485 22.6725C15.5185 22.6725 15.4899 22.6673 15.4646 22.658L14.2069 22.1813C14.1975 22.178 14.1882 22.1766 14.1788 22.1766C14.1694 22.1766 14.1596 22.178 14.1507 22.1813L13.5511 22.4034C13.2755 22.5056 12.9816 22.5759 12.6661 22.6144C12.4847 22.6369 12.3052 22.6477 12.1275 22.6477C11.9953 22.6477 11.8641 22.6416 11.7338 22.6294C11.4263 22.6003 11.1483 22.5389 10.898 22.4442C10.6458 22.3481 10.4761 22.2427 10.3922 22.1273C10.3064 22.0116 10.3135 21.8958 10.4105 21.7809ZM11.9766 22.0603C12.0872 22.102 12.2133 22.1231 12.3558 22.1231C12.368 22.1231 12.3807 22.1227 12.3928 22.1227C12.5494 22.1189 12.6985 22.0908 12.8377 22.0392L13.3125 21.8634C13.3308 21.8569 13.3308 21.8498 13.3125 21.8428L12.5635 21.5592C12.5541 21.5559 12.5452 21.5536 12.5358 21.5536C12.5264 21.5536 12.5166 21.5555 12.5072 21.5592L12.0333 21.735C11.8936 21.7866 11.8191 21.8423 11.8083 21.9023C11.798 21.9605 11.8547 22.0139 11.9766 22.0603Z" fill="url(#paint4_linear_21_2288)"/>
<g opacity="0.6">
<path opacity="0.6" d="M12.0333 21.6984L12.5072 21.5227C12.517 21.5194 12.5264 21.5175 12.5357 21.5175C12.5451 21.5175 12.554 21.5194 12.5634 21.5227L13.3125 21.8063C13.3307 21.8128 13.3307 21.8198 13.3125 21.8269L13.2918 21.8344L12.5629 21.5583C12.5536 21.555 12.5447 21.5527 12.5353 21.5527C12.5259 21.5527 12.5161 21.5545 12.5067 21.5583L12.0328 21.7341C11.8987 21.7833 11.8261 21.8367 11.8111 21.8944C11.8092 21.8845 11.8059 21.8752 11.8078 21.8653C11.8186 21.8058 11.8936 21.75 12.0333 21.6984Z" fill="white"/>
<path opacity="0.6" d="M10.3918 22.0908C10.4761 22.2056 10.6453 22.3116 10.8975 22.4077C11.1478 22.5023 11.4253 22.5638 11.7333 22.5928C11.8636 22.605 11.9949 22.6111 12.1271 22.6111C12.3047 22.6111 12.4843 22.5998 12.6657 22.5778C12.9811 22.5394 13.275 22.4691 13.5507 22.3669L14.1502 22.1452C14.1596 22.1414 14.1689 22.14 14.1783 22.14C14.1877 22.14 14.1971 22.1419 14.2064 22.1452L15.4641 22.6219C15.4894 22.6313 15.518 22.6364 15.548 22.6364C15.578 22.6364 15.6057 22.6317 15.6324 22.6219L16.5258 22.2909C16.5371 22.2867 16.5455 22.282 16.5521 22.2773C16.56 22.2834 16.5652 22.2891 16.5652 22.2956C16.5652 22.3069 16.5511 22.3177 16.5263 22.327L15.6328 22.658C15.6061 22.6678 15.5785 22.6725 15.5485 22.6725C15.5185 22.6725 15.4899 22.6673 15.4646 22.658L14.2069 22.1813C14.1975 22.178 14.1882 22.1766 14.1788 22.1766C14.1694 22.1766 14.1596 22.178 14.1507 22.1813L13.5511 22.4034C13.2755 22.5056 12.9816 22.5759 12.6661 22.6144C12.4847 22.6369 12.3052 22.6477 12.1275 22.6477C11.9953 22.6477 11.8641 22.6416 11.7338 22.6294C11.4263 22.6003 11.1483 22.5389 10.898 22.4442C10.6458 22.3481 10.4761 22.2427 10.3922 22.1273C10.3477 22.0669 10.3289 22.0069 10.3346 21.9459C10.3378 21.9947 10.3561 22.0425 10.3918 22.0908Z" fill="white"/>
</g>
<path d="M5.08128 19.7011V21.8719C5.08128 22.6481 5.8655 23.4244 7.43675 24.0197C9.03143 24.6239 11.1328 24.9263 13.2342 24.9263C15.3061 24.9263 17.3785 24.6323 18.968 24.0436C20.58 23.4464 21.3872 22.6594 21.3872 21.8723V19.7016C21.3872 20.4891 20.58 21.2761 18.968 21.8733C17.3785 22.462 15.3061 22.7559 13.2342 22.7559C11.1328 22.7559 9.03143 22.4536 7.43675 21.8494C5.8655 21.2536 5.08128 20.4773 5.08128 19.7011Z" fill="#D96D00"/>
<path d="M5.08128 19.5731V21.7439C5.08128 22.5197 5.8655 23.2959 7.43675 23.8912C9.03143 24.4955 11.1328 24.7978 13.2342 24.7978C15.3061 24.7978 17.3785 24.5039 18.968 23.9152C20.58 23.318 21.3872 22.5309 21.3872 21.7434V19.5727C21.3872 20.3602 20.58 21.1467 18.968 21.7439C17.3785 22.3327 15.3061 22.6266 13.2342 22.6266C11.1328 22.6266 9.03143 22.3242 7.43675 21.72C5.8655 21.1256 5.08128 20.3489 5.08128 19.5731Z" fill="url(#paint5_linear_21_2288)"/>
<path d="M16.1887 22.4198C16.2313 22.4137 16.274 22.4077 16.3167 22.4011V24.5719C16.274 24.5784 16.2313 24.5841 16.1887 24.5906V22.4198Z" fill="#F5C491"/>
<path d="M16.7924 22.3214C16.8351 22.3139 16.8778 22.3059 16.9204 22.298V24.4687C16.8782 24.4767 16.8351 24.4847 16.7924 24.4927V22.3214Z" fill="#F5C491"/>
<path d="M17.3957 22.2C17.4388 22.1906 17.481 22.1803 17.5237 22.17V24.3408C17.481 24.3506 17.4388 24.3609 17.3957 24.3703V22.2Z" fill="#F5C491"/>
<path d="M14.3774 22.597C14.4201 22.5947 14.4627 22.5919 14.5054 22.5895V24.7603C14.4627 24.7631 14.4201 24.7659 14.3774 24.7683V22.597Z" fill="#F5C491"/>
<path d="M14.9812 22.5562C15.0238 22.553 15.067 22.5497 15.1096 22.5459V24.7167C15.067 24.7205 15.0243 24.7237 14.9812 24.727V22.5562Z" fill="#F5C491"/>
<path d="M13.7741 22.62C13.8168 22.6191 13.8594 22.6177 13.9021 22.6167V24.7875C13.8594 24.7889 13.8168 24.7898 13.7741 24.7912V22.62Z" fill="#F5C491"/>
<path d="M15.5849 22.4977C15.6276 22.493 15.6702 22.4873 15.7129 22.4822V24.653C15.6702 24.6581 15.6276 24.6633 15.5849 24.6684V22.4977Z" fill="#F5C491"/>
<path d="M18.7317 23.9986C18.6895 24.0136 18.6468 24.0277 18.6037 24.0417V21.8709C18.6468 21.8569 18.6895 21.8423 18.7317 21.8278V23.9986Z" fill="#F5C491"/>
<path d="M6.52975 21.3103C6.57194 21.3333 6.61366 21.3562 6.65771 21.3783V23.5491C6.61366 23.5266 6.57194 23.5036 6.52975 23.4811V21.3103Z" fill="#F5C491"/>
<path d="M5.4502 22.6523C5.40332 22.5956 5.36019 22.5389 5.32223 22.4817V20.3109C5.36019 20.3681 5.40332 20.4253 5.4502 20.4811V22.6523Z" fill="#F5C491"/>
<path d="M7.26099 23.8214C7.21833 23.8045 7.17426 23.7872 7.13301 23.7698V21.5991C7.17473 21.6169 7.21833 21.6337 7.26099 21.6511V23.8214Z" fill="#F5C491"/>
<path d="M18 22.0514C18.0431 22.0397 18.0853 22.0275 18.1279 22.0153V24.1861C18.0853 24.1978 18.0431 24.21 18 24.2222V22.0514Z" fill="#F5C491"/>
<path d="M5.92549 20.9273C5.96674 20.9583 6.0094 20.9897 6.05347 21.0201V23.1909C6.00893 23.16 5.96674 23.1286 5.92549 23.0977V20.9273Z" fill="#F5C491"/>
<path d="M8.9443 22.17C8.98695 22.1798 9.02914 22.1906 9.07227 22.2V24.3708C9.02914 24.3609 8.98695 24.3506 8.9443 24.3408V22.17Z" fill="#F5C491"/>
<path d="M20.543 23.0977C20.5012 23.1291 20.4595 23.1609 20.415 23.1919V21.0211C20.4595 20.9902 20.5017 20.9587 20.543 20.9273V23.0977Z" fill="#F5C491"/>
<path d="M8.34054 22.0163C8.38273 22.028 8.42585 22.0397 8.46851 22.0514V24.2222C8.42585 24.2105 8.38273 24.1992 8.34054 24.187V22.0163Z" fill="#F5C491"/>
<path d="M7.73678 21.8288C7.77896 21.8433 7.82256 21.8564 7.86475 21.8709V24.0417C7.82209 24.0277 7.7785 24.0141 7.73678 23.9995V21.8288Z" fill="#F5C491"/>
<path d="M19.8108 21.3787C19.8548 21.3562 19.8965 21.3337 19.9387 21.3108V23.4816C19.8965 23.5041 19.8548 23.5275 19.8108 23.5495V21.3787Z" fill="#F5C491"/>
<path d="M21.1462 22.4829C21.1083 22.54 21.0647 22.5968 21.0178 22.653V20.4822C21.0647 20.426 21.1083 20.3693 21.1462 20.3121V22.4829Z" fill="#F5C491"/>
<path d="M13.1699 24.7973V22.6266C13.1915 22.627 13.2126 22.6275 13.2341 22.6275C13.2557 22.6275 13.2768 22.627 13.2983 22.6266V24.7973C13.2768 24.7973 13.2557 24.7978 13.2341 24.7978C13.2126 24.7978 13.1915 24.7973 13.1699 24.7973Z" fill="#F5C491"/>
<path d="M19.2075 21.6516C19.2511 21.6337 19.2933 21.6159 19.3354 21.5986V23.7694C19.2933 23.7867 19.2511 23.805 19.2075 23.8223V21.6516Z" fill="#F5C491"/>
<path d="M11.9629 22.5895C12.0055 22.5919 12.0482 22.5951 12.0908 22.597V24.7678C12.0482 24.7655 12.0055 24.7631 11.9629 24.7603V22.5895Z" fill="#F5C491"/>
<path d="M12.5661 22.6162C12.6088 22.6176 12.6514 22.6186 12.6941 22.6195V24.7903C12.6514 24.7894 12.6088 24.788 12.5661 24.7866V22.6162Z" fill="#F5C491"/>
<path d="M9.54806 22.2975C9.59072 22.3055 9.63337 22.3139 9.67603 22.3214V24.4922C9.63337 24.4842 9.59072 24.4762 9.54806 24.4683V22.2975Z" fill="#F5C491"/>
<path d="M11.3591 22.5455C11.4013 22.5492 11.4444 22.5525 11.4871 22.5558V24.7266C11.4444 24.7233 11.4013 24.72 11.3591 24.7163V22.5455Z" fill="#F5C491"/>
<path d="M10.7556 22.4827C10.7982 22.4878 10.8409 22.4934 10.8835 22.4981V24.6689C10.8409 24.6642 10.7982 24.6586 10.7556 24.6534V22.4827Z" fill="#F5C491"/>
<path d="M10.1518 22.4016C10.194 22.4081 10.2371 22.4133 10.2798 22.4198V24.5906C10.2371 24.5845 10.194 24.5789 10.1518 24.5728V22.4016Z" fill="#F5C491"/>
<path d="M7.50144 17.617C9.0905 17.0287 11.1628 16.7348 13.2342 16.7348C15.3361 16.7348 17.4375 17.0372 19.0318 17.6414C22.1977 18.8409 22.1691 20.7745 18.9685 21.9609C17.3789 22.5497 15.3066 22.8436 13.2347 22.8436C11.1333 22.8436 9.0319 22.5408 7.43722 21.937C4.27081 20.7375 4.29941 18.8034 7.50144 17.617Z" fill="url(#paint6_linear_21_2288)"/>
<path opacity="0.3" d="M7.50147 17.617C7.98944 17.4366 8.52382 17.2838 9.08866 17.1581L20.9958 18.8541C21.8823 19.8905 21.2546 21.067 19.1208 21.9009L5.08788 19.9027C5.00632 19.0777 5.81163 18.2433 7.50147 17.617Z" fill="white"/>
<path opacity="0.6" d="M18.9679 22.118C17.3783 22.7067 15.306 23.0006 13.2341 23.0006C11.1327 23.0006 9.03132 22.6983 7.43663 22.0941C5.85413 21.4945 5.06944 20.7113 5.08116 19.9298V19.9289C5.08116 19.9083 5.08444 19.8872 5.08585 19.8666C5.13647 20.6166 5.91741 21.3609 7.43663 21.9366C9.03132 22.5403 11.1327 22.8431 13.2341 22.8431C15.306 22.8431 17.3783 22.5492 18.9679 21.9605C20.5274 21.383 21.3318 20.6273 21.3824 19.8656C21.4396 20.6798 20.6348 21.5002 18.9679 22.118Z" fill="white"/>
<path d="M8.97188 18.1748C10.1541 17.737 11.6944 17.5181 13.2347 17.5181C14.797 17.5181 16.3594 17.7431 17.5444 18.1927C19.898 19.0847 19.8773 20.5223 17.4961 21.4041C16.3144 21.8419 14.7745 22.0603 13.2342 22.0603C11.6719 22.0603 10.1095 21.8353 8.92453 21.3858C6.57 20.4942 6.59203 19.0566 8.97188 18.1748Z" fill="#F28500"/>
<path opacity="0.6" d="M17.5444 18.7388C16.3594 18.2897 14.797 18.0647 13.2347 18.0647C11.6944 18.0647 10.1541 18.2831 8.97188 18.7209C7.97485 19.0903 7.3936 19.5572 7.22532 20.0405C6.98719 19.3603 7.56985 18.6483 8.97188 18.1289C10.1541 17.6911 11.6944 17.4727 13.2347 17.4727C14.797 17.4727 16.3594 17.6977 17.5444 18.1472C18.9122 18.6652 19.4761 19.3678 19.2431 20.0391C19.0772 19.5642 18.5119 19.1053 17.5444 18.7388Z" fill="white"/>
<path d="M17.5444 18.7842C16.3594 18.3352 14.797 18.1102 13.2347 18.1102C11.6944 18.1102 10.1541 18.3286 8.97188 18.7664C7.97485 19.1358 7.3936 19.6027 7.22532 20.0859C6.98719 19.4058 7.56985 18.6937 8.97188 18.1744C10.1541 17.7366 11.6944 17.5177 13.2347 17.5177C14.797 17.5177 16.3594 17.7427 17.5444 18.1922C18.9122 18.7106 19.4761 19.4133 19.2431 20.0836C19.0772 19.6097 18.5119 19.1508 17.5444 18.7842Z" fill="#D96D00"/>
<path d="M10.3341 20.0841H10.3336V19.6786L12.6131 18.9839C12.6399 18.9741 12.6685 18.9694 12.6985 18.9694C12.7285 18.9694 12.7561 18.9745 12.7824 18.9844L16.5652 20.0072C16.5652 20.0625 16.5652 20.423 16.5652 20.4342C16.5652 20.4455 16.5511 20.4562 16.5263 20.4656L15.6328 20.7961C15.6061 20.8059 15.5785 20.8111 15.5485 20.8111C15.5185 20.8111 15.4899 20.8059 15.4646 20.7961L14.2069 20.3194C14.1975 20.3156 14.1882 20.3142 14.1788 20.3142C14.1694 20.3142 14.1596 20.3156 14.1507 20.3194L13.5511 20.5411C13.2755 20.6433 12.9816 20.7136 12.6661 20.752C12.4847 20.7741 12.3052 20.7853 12.1275 20.7853C11.9953 20.7853 11.8641 20.7792 11.7338 20.7675C11.4263 20.7384 11.1483 20.677 10.898 20.5823C10.6458 20.4862 10.4761 20.3803 10.3922 20.2655C10.3472 20.2055 10.3285 20.145 10.3341 20.0841ZM11.9766 20.1994C12.0872 20.2411 12.2133 20.2617 12.3558 20.2617C12.368 20.2617 12.3807 20.2617 12.3928 20.2612C12.5494 20.257 12.6985 20.2294 12.8377 20.1778L13.3125 20.002C13.3308 19.9955 13.3308 19.9884 13.3125 19.9814L12.5635 19.6978C12.5541 19.6941 12.5452 19.6922 12.5358 19.6922C12.5264 19.6922 12.5166 19.6936 12.5072 19.6978L12.0333 19.8736C11.8936 19.9252 11.8191 19.9805 11.8083 20.0405C11.798 20.1 11.8547 20.153 11.9766 20.1994Z" fill="#D96D00"/>
<path d="M10.4105 19.4892C10.5085 19.3739 10.6908 19.2661 10.958 19.1667L12.6132 18.5536C12.6399 18.5437 12.6685 18.5391 12.6985 18.5391C12.7285 18.5391 12.7561 18.5442 12.7824 18.5541L16.5272 19.9725C16.5525 19.9823 16.5652 19.9927 16.5652 20.0039C16.5652 20.0152 16.5511 20.0259 16.5263 20.0353L15.6328 20.3662C15.6061 20.3761 15.5785 20.3808 15.5485 20.3808C15.5185 20.3808 15.4899 20.3752 15.4646 20.3662L14.2069 19.8895C14.1975 19.8862 14.1882 19.8844 14.1788 19.8844C14.1694 19.8844 14.1596 19.8858 14.1507 19.8895L13.5511 20.1117C13.2755 20.2134 12.9816 20.2837 12.6661 20.3227C12.4847 20.3447 12.3052 20.3559 12.1275 20.3559C11.9953 20.3559 11.8641 20.3498 11.7338 20.3377C11.4263 20.3091 11.1483 20.2477 10.898 20.153C10.6458 20.0569 10.4761 19.9514 10.3922 19.8361C10.3064 19.7203 10.3135 19.605 10.4105 19.4892ZM11.9766 19.7691C12.0872 19.8108 12.2133 19.8314 12.3558 19.8314C12.368 19.8314 12.3807 19.8314 12.3928 19.8309C12.5494 19.8267 12.6985 19.7991 12.8377 19.7475L13.3125 19.5717C13.3308 19.5652 13.3308 19.5581 13.3125 19.5511L12.5635 19.2675C12.5541 19.2637 12.5452 19.2619 12.5358 19.2619C12.5264 19.2619 12.5166 19.2633 12.5072 19.2675L12.0333 19.4433C11.8936 19.4948 11.8191 19.5502 11.8083 19.6102C11.798 19.6692 11.8547 19.7227 11.9766 19.7691Z" fill="url(#paint7_linear_21_2288)"/>
<g opacity="0.6">
<path opacity="0.6" d="M12.0333 19.4072L12.5072 19.2314C12.517 19.2277 12.5264 19.2258 12.5357 19.2258C12.5451 19.2258 12.554 19.2281 12.5634 19.2314L13.3125 19.515C13.3307 19.522 13.3307 19.5291 13.3125 19.5356L13.2918 19.5431L12.5629 19.267C12.5536 19.2633 12.5447 19.2614 12.5353 19.2614C12.5259 19.2614 12.5161 19.2628 12.5067 19.267L12.0328 19.4428C11.8987 19.492 11.8261 19.5455 11.8111 19.6027C11.8092 19.5933 11.8059 19.5839 11.8078 19.5736C11.8186 19.5141 11.8936 19.4583 12.0333 19.4072Z" fill="white"/>
<path opacity="0.6" d="M10.3918 19.8C10.4761 19.9144 10.6453 20.0208 10.8975 20.1164C11.1478 20.2111 11.4253 20.272 11.7333 20.3016C11.8636 20.3133 11.9949 20.3198 12.1271 20.3198C12.3047 20.3198 12.4843 20.3086 12.6657 20.2866C12.9811 20.2481 13.275 20.1773 13.5507 20.0756L14.1502 19.8539C14.1596 19.8506 14.1689 19.8487 14.1783 19.8487C14.1877 19.8487 14.1971 19.8502 14.2064 19.8539L15.4641 20.3306C15.4894 20.3405 15.518 20.3456 15.548 20.3456C15.578 20.3456 15.6057 20.3409 15.6324 20.3306L16.5258 20.0002C16.5371 19.9959 16.5455 19.9913 16.5521 19.9866C16.56 19.9922 16.5652 19.9983 16.5652 20.0044C16.5652 20.0156 16.5511 20.0264 16.5263 20.0358L15.6328 20.3667C15.6061 20.3766 15.5785 20.3813 15.5485 20.3813C15.5185 20.3813 15.4899 20.3756 15.4646 20.3667L14.2069 19.89C14.1975 19.8867 14.1882 19.8848 14.1788 19.8848C14.1694 19.8848 14.1596 19.8862 14.1507 19.89L13.5511 20.1122C13.2755 20.2139 12.9816 20.2842 12.6661 20.3231C12.4847 20.3452 12.3052 20.3564 12.1275 20.3564C11.9953 20.3564 11.8641 20.3503 11.7338 20.3381C11.4263 20.3095 11.1483 20.2481 10.898 20.1534C10.6458 20.0573 10.4761 19.9519 10.3922 19.8366C10.3477 19.7766 10.3289 19.7161 10.3346 19.6556C10.3378 19.703 10.3561 19.7512 10.3918 19.8Z" fill="white"/>
</g>
<path d="M5.08128 17.4098V19.5806C5.08128 20.3564 5.8655 21.1327 7.43675 21.728C9.03143 22.3322 11.1328 22.6345 13.2342 22.6345C15.3061 22.6345 17.3785 22.3406 18.968 21.7514C20.58 21.1537 21.3872 20.3672 21.3872 19.5797V17.4089C21.3872 18.1964 20.58 18.983 18.968 19.5806C17.3785 20.1694 15.3061 20.4633 13.2342 20.4633C11.1328 20.4633 9.03143 20.1605 7.43675 19.5567C5.8655 18.9623 5.08128 18.1861 5.08128 17.4098Z" fill="#D96D00"/>
<path d="M5.08128 17.2819V19.4527C5.08128 20.2289 5.8655 21.0052 7.43675 21.6005C9.03143 22.2047 11.1328 22.507 13.2342 22.507C15.3061 22.507 17.3785 22.2131 18.968 21.6239C20.58 21.0267 21.3872 20.2397 21.3872 19.4527V17.2819C21.3872 18.0689 20.58 18.8559 18.968 19.4531C17.3785 20.0419 15.3061 20.3362 13.2342 20.3362C11.1328 20.3362 9.03143 20.0334 7.43675 19.4297C5.8655 18.8344 5.08128 18.0577 5.08128 17.2819Z" fill="url(#paint8_linear_21_2288)"/>
<path d="M16.1887 20.1281C16.2313 20.122 16.274 20.1159 16.3167 20.1094V22.2802C16.274 22.2867 16.2313 22.2924 16.1887 22.2989V20.1281Z" fill="#F5C491"/>
<path d="M16.7924 20.0302C16.8351 20.0222 16.8778 20.0147 16.9204 20.0067V22.1775C16.8782 22.1855 16.8351 22.1934 16.7924 22.2009V20.0302Z" fill="#F5C491"/>
<path d="M17.3957 19.9083C17.4388 19.8989 17.481 19.8886 17.5237 19.8788V22.0495C17.481 22.0594 17.4388 22.0697 17.3957 22.0791V19.9083Z" fill="#F5C491"/>
<path d="M14.3774 20.3058C14.4201 20.3034 14.4627 20.3006 14.5054 20.2983V22.4691C14.4627 22.4719 14.4201 22.4747 14.3774 22.477V20.3058Z" fill="#F5C491"/>
<path d="M14.9812 20.2645C15.0238 20.2613 15.067 20.258 15.1096 20.2542V22.425C15.067 22.4288 15.0243 22.4316 14.9812 22.4353V20.2645Z" fill="#F5C491"/>
<path d="M13.7741 20.3288C13.8168 20.3278 13.8594 20.3264 13.9021 20.3255V22.4963C13.8594 22.4972 13.8168 22.4986 13.7741 22.4995V20.3288Z" fill="#F5C491"/>
<path d="M15.5849 20.2064C15.6276 20.2017 15.6702 20.1961 15.7129 20.1909V22.3617C15.6702 22.3664 15.6276 22.3725 15.5849 22.3772V20.2064Z" fill="#F5C491"/>
<path d="M18.7317 21.7073C18.6895 21.7219 18.6468 21.7364 18.6037 21.7505V19.5797C18.6468 19.5656 18.6895 19.5511 18.7317 19.5366V21.7073Z" fill="#F5C491"/>
<path d="M6.52975 19.0191C6.57194 19.042 6.61366 19.0645 6.65771 19.087V21.2578C6.61366 21.2353 6.57194 21.2123 6.52975 21.1898V19.0191Z" fill="#F5C491"/>
<path d="M5.4502 20.3606C5.40332 20.3044 5.36019 20.2477 5.32223 20.1905V18.0197C5.36019 18.0769 5.40332 18.1336 5.4502 18.1903V20.3606Z" fill="#F5C491"/>
<path d="M7.26099 21.5302C7.21833 21.5128 7.17426 21.4959 7.13301 21.4786V19.3078C7.17473 19.3252 7.21833 19.3425 7.26099 19.3598V21.5302Z" fill="#F5C491"/>
<path d="M18 19.7602C18.0431 19.7484 18.0853 19.7363 18.1279 19.7241V21.8949C18.0853 21.9066 18.0431 21.9192 18 21.9309V19.7602Z" fill="#F5C491"/>
<path d="M5.92549 18.6356C5.96674 18.667 6.0094 18.698 6.05347 18.7289V20.8997C6.00893 20.8688 5.96674 20.8378 5.92549 20.8064V18.6356Z" fill="#F5C491"/>
<path d="M8.9443 19.8792C8.98695 19.8891 9.02914 19.8994 9.07227 19.9092V22.08C9.02914 22.0706 8.98695 22.0599 8.9443 22.05V19.8792Z" fill="#F5C491"/>
<path d="M20.543 20.8064C20.5012 20.8383 20.4595 20.8692 20.415 20.9002V18.7294C20.4595 18.698 20.5017 18.667 20.543 18.6356V20.8064Z" fill="#F5C491"/>
<path d="M8.34054 19.7245C8.38273 19.7367 8.42585 19.748 8.46851 19.7597V21.9305C8.42585 21.9188 8.38273 21.9075 8.34054 21.8958V19.7245Z" fill="#F5C491"/>
<path d="M7.73678 19.5375C7.77896 19.552 7.82256 19.5652 7.86475 19.5792V21.75C7.82209 21.7359 7.7785 21.7223 7.73678 21.7083V19.5375Z" fill="#F5C491"/>
<path d="M19.8108 19.0875C19.8548 19.065 19.8965 19.042 19.9387 19.0195V21.1903C19.8965 21.2133 19.8548 21.2363 19.8108 21.2583V19.0875Z" fill="#F5C491"/>
<path d="M21.1462 20.1909C21.1083 20.2481 21.0647 20.3044 21.0178 20.3606V18.1899C21.0647 18.1336 21.1083 18.0769 21.1462 18.0197V20.1909Z" fill="#F5C491"/>
<path d="M13.1699 22.5061V20.3353C13.1915 20.3358 13.2126 20.3363 13.2341 20.3363C13.2557 20.3363 13.2768 20.3358 13.2983 20.3353V22.5061C13.2768 22.5061 13.2557 22.5066 13.2341 22.5066C13.2126 22.5066 13.1915 22.5061 13.1699 22.5061Z" fill="#F5C491"/>
<path d="M19.2075 19.3599C19.2511 19.3425 19.2933 19.3247 19.3354 19.3069V21.4777C19.2933 21.4955 19.2511 21.5133 19.2075 21.5306V19.3599Z" fill="#F5C491"/>
<path d="M11.9629 20.2983C12.0055 20.3006 12.0482 20.3034 12.0908 20.3058V22.4766C12.0482 22.4742 12.0055 22.4719 11.9629 22.4695V20.2983Z" fill="#F5C491"/>
<path d="M12.5661 20.325C12.6088 20.3264 12.6514 20.3273 12.6941 20.3283V22.4991C12.6514 22.4981 12.6088 22.4967 12.5661 22.4958V20.325Z" fill="#F5C491"/>
<path d="M9.54806 20.0063C9.59072 20.0142 9.63337 20.0222 9.67603 20.0302V22.2009C9.63337 22.193 9.59072 22.185 9.54806 22.177V20.0063Z" fill="#F5C491"/>
<path d="M11.3591 20.2538C11.4013 20.2575 11.4444 20.2608 11.4871 20.2641V22.4348C11.4444 22.4316 11.4013 22.4278 11.3591 22.4245V20.2538Z" fill="#F5C491"/>
<path d="M10.7556 20.1909C10.7982 20.1961 10.8409 20.2017 10.8835 20.2064V22.3772C10.8409 22.372 10.7982 22.3664 10.7556 22.3613V20.1909Z" fill="#F5C491"/>
<path d="M10.1518 20.1098C10.194 20.1164 10.2371 20.122 10.2798 20.1281V22.2989C10.2371 22.2928 10.194 22.2872 10.1518 22.2806V20.1098Z" fill="#F5C491"/>
<path d="M7.50144 15.3263C9.0905 14.7375 11.1628 14.4436 13.2342 14.4436C15.3361 14.4436 17.4375 14.7464 19.0318 15.3502C22.1977 16.5497 22.1691 18.4833 18.9685 19.6692C17.3789 20.258 15.3066 20.5523 13.2347 20.5523C11.1333 20.5523 9.0319 20.2495 7.43722 19.6458C4.27081 18.4463 4.29941 16.5122 7.50144 15.3263Z" fill="url(#paint9_linear_21_2288)"/>
<path opacity="0.3" d="M7.50147 15.3263C7.98944 15.1453 8.52382 14.9925 9.08866 14.8673L20.9958 16.5633C21.8823 17.5992 21.2546 18.7763 19.1208 19.6102L5.08788 17.6114C5.00632 16.7864 5.81163 15.952 7.50147 15.3263Z" fill="white"/>
<path opacity="0.6" d="M18.9679 19.8267C17.3783 20.4159 15.306 20.7098 13.2341 20.7098C11.1327 20.7098 9.03132 20.4075 7.43663 19.8033C5.85413 19.2038 5.06944 18.4205 5.08116 17.6391V17.6381C5.08116 17.6175 5.08444 17.5964 5.08585 17.5758C5.13647 18.3258 5.91741 19.0706 7.43663 19.6458C9.03132 20.25 11.1327 20.5523 13.2341 20.5523C15.306 20.5523 17.3783 20.2584 18.9679 19.6692C20.5274 19.0917 21.3318 18.3356 21.3824 17.5744C21.4396 18.3886 20.6348 19.2089 18.9679 19.8267Z" fill="white"/>
<path d="M8.97188 15.8831C10.1541 15.4453 11.6944 15.2269 13.2347 15.2269C14.797 15.2269 16.3594 15.4519 17.5444 15.9009C19.898 16.793 19.8773 18.2306 17.4961 19.1123C16.3144 19.5502 14.7745 19.7681 13.2342 19.7681C11.6719 19.7681 10.1095 19.5436 8.92453 19.0941C6.57 18.203 6.59203 16.7648 8.97188 15.8831Z" fill="#F28500"/>
<path opacity="0.6" d="M17.5444 16.4475C16.3594 15.9984 14.797 15.7734 13.2347 15.7734C11.6944 15.7734 10.1541 15.9919 8.97188 16.4297C7.97485 16.7991 7.3936 17.2659 7.22532 17.7492C6.98719 17.0695 7.56985 16.357 8.97188 15.8377C10.1541 15.3998 11.6944 15.1814 13.2347 15.1814C14.797 15.1814 16.3594 15.4064 17.5444 15.8559C18.9122 16.3739 19.4761 17.077 19.2431 17.7473C19.0772 17.273 18.5119 16.8141 17.5444 16.4475Z" fill="white"/>
<path d="M17.5444 16.493C16.3594 16.0439 14.797 15.8184 13.2347 15.8184C11.6944 15.8184 10.1541 16.0369 8.97188 16.4747C7.97485 16.8441 7.3936 17.3109 7.22532 17.7942C6.98719 17.1141 7.56985 16.402 8.97188 15.8827C10.1541 15.4448 11.6944 15.2264 13.2347 15.2264C14.797 15.2264 16.3594 15.4514 17.5444 15.9005C18.9122 16.4189 19.4761 17.1216 19.2431 17.7923C19.0772 17.3184 18.5119 16.8595 17.5444 16.493Z" fill="#D96D00"/>
<path d="M10.3341 17.7923H10.3336V17.3869L12.6131 16.6927C12.6399 16.6828 12.6685 16.6781 12.6985 16.6781C12.7285 16.6781 12.7561 16.6833 12.7824 16.6931L16.5652 17.7159C16.5652 17.7712 16.5652 18.1317 16.5652 18.143C16.5652 18.1542 16.5511 18.165 16.5263 18.1748L15.6328 18.5053C15.6061 18.5152 15.5785 18.5198 15.5485 18.5198C15.5185 18.5198 15.4899 18.5147 15.4646 18.5053L14.2069 18.0286C14.1975 18.0248 14.1882 18.0234 14.1788 18.0234C14.1694 18.0234 14.1596 18.0248 14.1507 18.0286L13.5511 18.2503C13.2755 18.352 12.9816 18.4228 12.6661 18.4608C12.4847 18.4833 12.3052 18.4945 12.1275 18.4945C11.9953 18.4945 11.8641 18.4884 11.7338 18.4762C11.4263 18.4472 11.1483 18.3858 10.898 18.2916C10.6458 18.1955 10.4761 18.0895 10.3922 17.9747C10.3472 17.9137 10.3285 17.8533 10.3341 17.7923ZM11.9766 17.9081C12.0872 17.9498 12.2133 17.9705 12.3558 17.9705C12.368 17.9705 12.3807 17.9705 12.3928 17.97C12.5494 17.9658 12.6985 17.9377 12.8377 17.8866L13.3125 17.7108C13.3308 17.7042 13.3308 17.6972 13.3125 17.6902L12.5635 17.4066C12.5541 17.4028 12.5452 17.4009 12.5358 17.4009C12.5264 17.4009 12.5166 17.4028 12.5072 17.4066L12.0333 17.5823C11.8936 17.6339 11.8191 17.6892 11.8083 17.7492C11.798 17.8083 11.8547 17.8617 11.9766 17.9081Z" fill="#D96D00"/>
<path d="M10.4105 17.198C10.5085 17.0822 10.6908 16.9748 10.958 16.8755L12.6132 16.2623C12.6399 16.2525 12.6685 16.2478 12.6985 16.2478C12.7285 16.2478 12.7561 16.253 12.7824 16.2628L16.5272 17.6812C16.5525 17.6911 16.5652 17.7014 16.5652 17.7127C16.5652 17.7239 16.5511 17.7347 16.5263 17.7441L15.6328 18.075C15.6061 18.0848 15.5785 18.0895 15.5485 18.0895C15.5185 18.0895 15.4899 18.0844 15.4646 18.075L14.2069 17.5983C14.1975 17.5945 14.1882 17.5931 14.1788 17.5931C14.1694 17.5931 14.1596 17.5945 14.1507 17.5983L13.5511 17.82C13.2755 17.9217 12.9816 17.992 12.6661 18.0305C12.4847 18.053 12.3052 18.0637 12.1275 18.0637C11.9953 18.0637 11.8641 18.0577 11.7338 18.0455C11.4263 18.0164 11.1483 17.955 10.898 17.8608C10.6458 17.7647 10.4761 17.6587 10.3922 17.5439C10.3064 17.4291 10.3135 17.3133 10.4105 17.198ZM11.9766 17.4778C12.0872 17.5195 12.2133 17.5402 12.3558 17.5402C12.368 17.5402 12.3807 17.5402 12.3928 17.5397C12.5494 17.5355 12.6985 17.5073 12.8377 17.4563L13.3125 17.2805C13.3308 17.2739 13.3308 17.2669 13.3125 17.2594L12.5635 16.9758C12.5541 16.972 12.5452 16.9702 12.5358 16.9702C12.5264 16.9702 12.5166 16.972 12.5072 16.9758L12.0333 17.1516C11.8936 17.2031 11.8191 17.2584 11.8083 17.3184C11.798 17.378 11.8547 17.4314 11.9766 17.4778Z" fill="url(#paint10_linear_21_2288)"/>
<g opacity="0.6">
<path opacity="0.6" d="M12.0333 17.1159L12.5072 16.9406C12.517 16.9369 12.5264 16.935 12.5357 16.935C12.5451 16.935 12.554 16.9369 12.5634 16.9406L13.3125 17.2237C13.3307 17.2308 13.3307 17.2373 13.3125 17.2444L13.2918 17.2519L12.5629 16.9758C12.5536 16.972 12.5447 16.9702 12.5353 16.9702C12.5259 16.9702 12.5161 16.972 12.5067 16.9758L12.0328 17.1516C11.8987 17.2008 11.8261 17.2542 11.8111 17.3114C11.8092 17.3016 11.8059 17.2927 11.8078 17.2823C11.8186 17.2228 11.8936 17.167 12.0333 17.1159Z" fill="white"/>
<path opacity="0.6" d="M10.3918 17.5083C10.4761 17.6231 10.6453 17.7291 10.8975 17.8252C11.1478 17.9194 11.4253 17.9808 11.7333 18.0098C11.8636 18.022 11.9949 18.0276 12.1271 18.0276C12.3047 18.0276 12.4843 18.0169 12.6657 17.9944C12.9811 17.9559 13.275 17.8856 13.5507 17.7834L14.1502 17.5617C14.1596 17.558 14.1689 17.5566 14.1783 17.5566C14.1877 17.5566 14.1971 17.558 14.2064 17.5617L15.4641 18.0384C15.4894 18.0478 15.518 18.0534 15.548 18.0534C15.578 18.0534 15.6057 18.0487 15.6324 18.0384L16.5258 17.708C16.5371 17.7037 16.5455 17.6991 16.5521 17.6944C16.56 17.7005 16.5652 17.7061 16.5652 17.7127C16.5652 17.7239 16.5511 17.7347 16.5263 17.7441L15.6328 18.075C15.6061 18.0848 15.5785 18.0895 15.5485 18.0895C15.5185 18.0895 15.4899 18.0844 15.4646 18.075L14.2069 17.5983C14.1975 17.5945 14.1882 17.5931 14.1788 17.5931C14.1694 17.5931 14.1596 17.5945 14.1507 17.5983L13.5511 17.82C13.2755 17.9217 12.9816 17.992 12.6661 18.0305C12.4847 18.053 12.3052 18.0637 12.1275 18.0637C11.9953 18.0637 11.8641 18.0576 11.7338 18.0455C11.4263 18.0164 11.1483 17.955 10.898 17.8608C10.6458 17.7647 10.4761 17.6587 10.3922 17.5439C10.3477 17.4834 10.3289 17.423 10.3346 17.363C10.3378 17.4117 10.3561 17.46 10.3918 17.5083Z" fill="white"/>
</g>
<path d="M5.08128 15.1186V17.2894C5.08128 18.0652 5.8655 18.8419 7.43675 19.4372C9.03143 20.0409 11.1328 20.3437 13.2342 20.3437C15.3061 20.3437 17.3785 20.0498 18.968 19.4611C20.58 18.8634 21.3872 18.0769 21.3872 17.2894V15.1186C21.3872 15.9056 20.58 16.6931 18.968 17.2898C17.3785 17.8786 15.3061 18.1725 13.2342 18.1725C11.1328 18.1725 9.03143 17.8702 7.43675 17.2659C5.8655 16.6711 5.08128 15.8944 5.08128 15.1186Z" fill="#D96D00"/>
<path d="M5.08128 14.9906V17.1614C5.08128 17.9372 5.8655 18.7134 7.43675 19.3092C9.03143 19.9134 11.1328 20.2158 13.2342 20.2158C15.3061 20.2158 17.3785 19.9219 18.968 19.3331C20.58 18.7359 21.3872 17.9489 21.3872 17.1614V14.9906C21.3872 15.7781 20.58 16.5647 18.968 17.1623C17.3785 17.7506 15.3061 18.045 13.2342 18.045C11.1328 18.045 9.03143 17.7427 7.43675 17.1384C5.8655 16.5427 5.08128 15.7664 5.08128 14.9906Z" fill="url(#paint11_linear_21_2288)"/>
<path d="M16.1887 17.8373C16.2313 17.8313 16.274 17.8252 16.3167 17.8186V19.9894C16.274 19.9959 16.2313 20.0016 16.1887 20.0081V17.8373Z" fill="#F5C491"/>
<path d="M16.7924 17.7384C16.8351 17.7309 16.8778 17.723 16.9204 17.715V19.8858C16.8782 19.8937 16.8351 19.9012 16.7924 19.9092V17.7384Z" fill="#F5C491"/>
<path d="M17.3957 17.617C17.4388 17.6072 17.481 17.5973 17.5237 17.5875V19.7583C17.481 19.7681 17.4388 19.7784 17.3957 19.7883V17.617Z" fill="#F5C491"/>
<path d="M14.3774 18.0145C14.4201 18.0122 14.4627 18.0094 14.5054 18.0066V20.1774C14.4627 20.1802 14.4201 20.1825 14.3774 20.1848V18.0145Z" fill="#F5C491"/>
<path d="M14.9812 17.9733C15.0238 17.97 15.067 17.9667 15.1096 17.963V20.1337C15.067 20.1375 15.0243 20.1408 14.9812 20.1441V17.9733Z" fill="#F5C491"/>
<path d="M13.7741 18.037C13.8168 18.0361 13.8594 18.0352 13.9021 18.0337V20.2045C13.8594 20.2059 13.8168 20.2069 13.7741 20.2083V18.037Z" fill="#F5C491"/>
<path d="M15.5849 17.9152C15.6276 17.91 15.6702 17.9048 15.7129 17.8997V20.0705C15.6702 20.0756 15.6276 20.0808 15.5849 20.0859V17.9152Z" fill="#F5C491"/>
<path d="M18.7317 19.4161C18.6895 19.4306 18.6468 19.4452 18.6037 19.4592V17.2884C18.6468 17.2744 18.6895 17.2598 18.7317 17.2453V19.4161Z" fill="#F5C491"/>
<path d="M6.52975 16.7278C6.57194 16.7508 6.61366 16.7738 6.65771 16.7963V18.967C6.61366 18.9445 6.57194 18.9216 6.52975 18.8991V16.7278Z" fill="#F5C491"/>
<path d="M5.4502 18.0694C5.40332 18.0127 5.36019 17.9559 5.32223 17.8992V15.7284C5.36019 15.7856 5.40332 15.8423 5.4502 15.8986V18.0694Z" fill="#F5C491"/>
<path d="M7.26099 19.2389C7.21833 19.2216 7.17426 19.2047 7.13301 19.1869V17.0161C7.17473 17.0339 7.21833 17.0508 7.26099 17.0686V19.2389Z" fill="#F5C491"/>
<path d="M18 17.4689C18.0431 17.4577 18.0853 17.445 18.1279 17.4328V19.6036C18.0853 19.6153 18.0431 19.628 18 19.6397V17.4689Z" fill="#F5C491"/>
<path d="M5.92549 16.3444C5.96674 16.3753 6.0094 16.4067 6.05347 16.4372V18.608C6.00893 18.577 5.96674 18.5461 5.92549 18.5147V16.3444Z" fill="#F5C491"/>
<path d="M8.9443 17.5875C8.98695 17.5973 9.02914 17.6081 9.07227 17.6175V19.7883C9.02914 19.7784 8.98695 19.7681 8.9443 19.7583V17.5875Z" fill="#F5C491"/>
<path d="M20.543 18.5147C20.5012 18.5466 20.4595 18.578 20.415 18.6089V16.4381C20.4595 16.4072 20.5017 16.3753 20.543 16.3439V18.5147Z" fill="#F5C491"/>
<path d="M8.34054 17.4333C8.38273 17.4455 8.42585 17.4567 8.46851 17.4684V19.6392C8.42585 19.6275 8.38273 19.6163 8.34054 19.6041V17.4333Z" fill="#F5C491"/>
<path d="M7.73678 17.2463C7.77896 17.2603 7.82256 17.2739 7.86475 17.288V19.4588C7.82209 19.4447 7.7785 19.4316 7.73678 19.417V17.2463Z" fill="#F5C491"/>
<path d="M19.8108 16.7963C19.8548 16.7738 19.8965 16.7508 19.9387 16.7278V18.8986C19.8965 18.9216 19.8548 18.9445 19.8108 18.9666V16.7963Z" fill="#F5C491"/>
<path d="M21.1462 17.8998C21.1083 17.957 21.0647 18.0137 21.0178 18.0699V15.8991C21.0647 15.8424 21.1083 15.7862 21.1462 15.729V17.8998Z" fill="#F5C491"/>
<path d="M13.1699 20.2148V18.0441C13.1915 18.0441 13.2126 18.0445 13.2341 18.0445C13.2557 18.0445 13.2768 18.0441 13.2983 18.0441V20.2148C13.2768 20.2153 13.2557 20.2158 13.2341 20.2158C13.2126 20.2158 13.1915 20.2148 13.1699 20.2148Z" fill="#F5C491"/>
<path d="M19.2075 17.0686C19.2511 17.0513 19.2933 17.033 19.3354 17.0156V19.1864C19.2933 19.2042 19.2511 19.222 19.2075 19.2394V17.0686Z" fill="#F5C491"/>
<path d="M11.9629 18.0066C12.0055 18.0094 12.0482 18.0117 12.0908 18.0141V20.1848C12.0482 20.1825 12.0055 20.1802 11.9629 20.1774V18.0066Z" fill="#F5C491"/>
<path d="M12.5661 18.0333C12.6088 18.0347 12.6514 18.0361 12.6941 18.0366V20.2073C12.6514 20.2064 12.6088 20.205 12.5661 20.2036V18.0333Z" fill="#F5C491"/>
<path d="M9.54806 17.7145C9.59072 17.7225 9.63337 17.7309 9.67603 17.7384V19.9092C9.63337 19.9012 9.59072 19.8933 9.54806 19.8853V17.7145Z" fill="#F5C491"/>
<path d="M11.3591 17.9625C11.4013 17.9663 11.4444 17.9695 11.4871 17.9728V20.1436C11.4444 20.1403 11.4013 20.137 11.3591 20.1333V17.9625Z" fill="#F5C491"/>
<path d="M10.7556 17.8997C10.7982 17.9048 10.8409 17.91 10.8835 17.9152V20.0859C10.8409 20.0813 10.7982 20.0756 10.7556 20.0705V17.8997Z" fill="#F5C491"/>
<path d="M10.1518 17.8186C10.194 17.8252 10.2371 17.8303 10.2798 17.8369V20.0077C10.2371 20.0016 10.194 19.9959 10.1518 19.9894V17.8186Z" fill="#F5C491"/>
<path d="M7.50144 13.0345C9.0905 12.4458 11.1628 12.1523 13.2342 12.1523C15.3361 12.1523 17.4375 12.4552 19.0318 13.0589C22.1977 14.258 22.1691 16.192 18.9685 17.3784C17.3789 17.9672 15.3066 18.2611 13.2347 18.2611C11.1333 18.2611 9.0319 17.9588 7.43722 17.3545C4.27081 16.1545 4.29941 14.2209 7.50144 13.0345Z" fill="url(#paint12_linear_21_2288)"/>
<path opacity="0.3" d="M7.50147 13.0345C7.98944 12.8536 8.52382 12.7008 9.08866 12.5761L20.9958 14.272C21.8823 15.308 21.2546 16.485 19.1208 17.3189L5.08788 15.3202C5.00632 14.4952 5.81163 13.6608 7.50147 13.0345Z" fill="white"/>
<path opacity="0.6" d="M18.9679 17.535C17.3783 18.1237 15.306 18.4181 13.2341 18.4181C11.1327 18.4181 9.03132 18.1153 7.43663 17.5116C5.85413 16.912 5.06944 16.1292 5.08116 15.3473V15.3464C5.08116 15.3258 5.08444 15.3052 5.08585 15.2841C5.13647 16.0341 5.91741 16.7789 7.43663 17.3545C9.03132 17.9583 11.1327 18.2611 13.2341 18.2611C15.306 18.2611 17.3783 17.9672 18.9679 17.3784C20.5274 16.8005 21.3318 16.0448 21.3824 15.2836C21.4396 16.0973 20.6348 16.9177 18.9679 17.535Z" fill="white"/>
<path d="M8.97188 13.5919C10.1541 13.1541 11.6944 12.9356 13.2347 12.9356C14.797 12.9356 16.3594 13.1602 17.5444 13.6097C19.898 14.5017 19.8773 15.9394 17.4961 16.8206C16.3144 17.2584 14.7745 17.4769 13.2342 17.4769C11.6719 17.4769 10.1095 17.2519 8.92453 16.8028C6.57 15.9112 6.59203 14.4736 8.97188 13.5919Z" fill="#F28500"/>
<path opacity="0.6" d="M17.5444 14.1563C16.3594 13.7067 14.797 13.4817 13.2347 13.4817C11.6944 13.4817 10.1541 13.7002 8.97188 14.138C7.97485 14.5073 7.3936 14.9742 7.22532 15.4575C6.98719 14.7773 7.56985 14.0648 8.97188 13.5459C10.1541 13.1081 11.6944 12.8897 13.2347 12.8897C14.797 12.8897 16.3594 13.1147 17.5444 13.5637C18.9122 14.0822 19.4761 14.7848 19.2431 15.4556C19.0772 14.9817 18.5119 14.5228 17.5444 14.1563Z" fill="white"/>
<path d="M17.5444 14.2017C16.3594 13.7527 14.797 13.5277 13.2347 13.5277C11.6944 13.5277 10.1541 13.7461 8.97188 14.1839C7.97485 14.5533 7.3936 15.0202 7.22532 15.5034C6.98719 14.8237 7.56985 14.1112 8.97188 13.5919C10.1541 13.1541 11.6944 12.9356 13.2347 12.9356C14.797 12.9356 16.3594 13.1602 17.5444 13.6097C18.9122 14.1277 19.4761 14.8308 19.2431 15.5016C19.0772 15.0272 18.5119 14.5683 17.5444 14.2017Z" fill="#D96D00"/>
<path d="M10.3341 15.5011H10.3336V15.0956L12.6131 14.4014C12.6399 14.3916 12.6685 14.3869 12.6985 14.3869C12.7285 14.3869 12.7561 14.392 12.7824 14.4019L16.5652 15.4247C16.5652 15.48 16.5652 15.8405 16.5652 15.8517C16.5652 15.863 16.5511 15.8738 16.5263 15.8831L15.6328 16.2136C15.6061 16.2239 15.5785 16.2286 15.5485 16.2286C15.5185 16.2286 15.4899 16.2234 15.4646 16.2136L14.2069 15.7373C14.1975 15.7341 14.1882 15.7322 14.1788 15.7322C14.1694 15.7322 14.1596 15.7336 14.1507 15.7373L13.5511 15.9591C13.2755 16.0613 12.9816 16.1316 12.6661 16.17C12.4847 16.1925 12.3052 16.2033 12.1275 16.2033C11.9953 16.2033 11.8641 16.1972 11.7338 16.185C11.4263 16.1559 11.1483 16.0945 10.898 16.0003C10.6458 15.9042 10.4761 15.7983 10.3922 15.6834C10.3472 15.6225 10.3285 15.562 10.3341 15.5011ZM11.9766 15.6169C12.0872 15.6591 12.2133 15.6797 12.3558 15.6797C12.368 15.6797 12.3807 15.6792 12.3928 15.6792C12.5494 15.6755 12.6985 15.6473 12.8377 15.5958L13.3125 15.4195C13.3308 15.4125 13.3308 15.4055 13.3125 15.3989L12.5635 15.1153C12.5541 15.112 12.5452 15.1102 12.5358 15.1102C12.5264 15.1102 12.5166 15.112 12.5072 15.1153L12.0333 15.2911C11.8936 15.3427 11.8191 15.3984 11.8083 15.4584C11.798 15.517 11.8547 15.57 11.9766 15.6169Z" fill="#D96D00"/>
<path d="M10.4105 14.9067C10.5085 14.7909 10.6908 14.6836 10.958 14.5847L12.6132 13.9716C12.6399 13.9617 12.6685 13.957 12.6985 13.957C12.7285 13.957 12.7561 13.9622 12.7824 13.972L16.5272 15.3905C16.5525 15.4003 16.5652 15.4106 16.5652 15.4219C16.5652 15.4331 16.5511 15.4439 16.5263 15.4533L15.6328 15.7842C15.6061 15.7941 15.5785 15.7987 15.5485 15.7987C15.5185 15.7987 15.4899 15.7936 15.4646 15.7842L14.2069 15.3075C14.1975 15.3037 14.1882 15.3019 14.1788 15.3019C14.1694 15.3019 14.1596 15.3037 14.1507 15.3075L13.5511 15.5292C13.2755 15.6314 12.9816 15.7017 12.6661 15.7402C12.4847 15.7627 12.3052 15.7734 12.1275 15.7734C11.9953 15.7734 11.8641 15.7673 11.7338 15.7552C11.4263 15.7261 11.1483 15.6647 10.898 15.5705C10.6458 15.4744 10.4761 15.3684 10.3922 15.2536C10.3064 15.1378 10.3135 15.022 10.4105 14.9067ZM11.9766 15.1866C12.0872 15.2278 12.2133 15.2489 12.3558 15.2489C12.368 15.2489 12.3807 15.2489 12.3928 15.2484C12.5494 15.2447 12.6985 15.2166 12.8377 15.165L13.3125 14.9892C13.3308 14.9822 13.3308 14.9752 13.3125 14.9686L12.5635 14.685C12.5541 14.6812 12.5452 14.6794 12.5358 14.6794C12.5264 14.6794 12.5166 14.6812 12.5072 14.685L12.0333 14.8608C11.8936 14.9123 11.8191 14.9677 11.8083 15.0277C11.798 15.0867 11.8547 15.1397 11.9766 15.1866Z" fill="url(#paint13_linear_21_2288)"/>
<g opacity="0.6">
<path opacity="0.6" d="M12.0333 14.8247L12.5072 14.6489C12.517 14.6452 12.5264 14.6438 12.5357 14.6438C12.5451 14.6438 12.554 14.6456 12.5634 14.6489L13.3125 14.9325C13.3307 14.9391 13.3307 14.9461 13.3125 14.9531L13.2918 14.9606L12.5629 14.685C12.5536 14.6813 12.5447 14.6794 12.5353 14.6794C12.5259 14.6794 12.5161 14.6813 12.5067 14.685L12.0328 14.8608C11.8987 14.91 11.8261 14.9634 11.8111 15.0206C11.8092 15.0113 11.8059 15.0019 11.8078 14.992C11.8186 14.9316 11.8936 14.8758 12.0333 14.8247Z" fill="white"/>
<path opacity="0.6" d="M10.3918 15.217C10.4761 15.3319 10.6453 15.4378 10.8975 15.5339C11.1478 15.6286 11.4253 15.69 11.7333 15.7191C11.8636 15.7312 11.9949 15.7373 12.1271 15.7373C12.3047 15.7373 12.4843 15.7266 12.6657 15.7041C12.9811 15.6656 13.275 15.5948 13.5507 15.4931L14.1502 15.2709C14.1596 15.2672 14.1689 15.2662 14.1783 15.2662C14.1877 15.2662 14.1971 15.2677 14.2064 15.2709L15.4641 15.7477C15.4894 15.7575 15.518 15.7627 15.548 15.7627C15.578 15.7627 15.6057 15.758 15.6324 15.7477L16.5258 15.4172C16.5371 15.413 16.5455 15.4083 16.5521 15.4036C16.56 15.4092 16.5652 15.4153 16.5652 15.4214C16.5652 15.4327 16.5511 15.4434 16.5263 15.4528L15.6328 15.7837C15.6061 15.7936 15.5785 15.7983 15.5485 15.7983C15.5185 15.7983 15.4899 15.7931 15.4646 15.7837L14.2069 15.307C14.1975 15.3033 14.1882 15.3014 14.1788 15.3014C14.1694 15.3014 14.1596 15.3033 14.1507 15.307L13.5511 15.5287C13.2755 15.6309 12.9816 15.7012 12.6661 15.7397C12.4847 15.7622 12.3052 15.773 12.1275 15.773C11.9953 15.773 11.8641 15.7669 11.7338 15.7547C11.4263 15.7256 11.1483 15.6642 10.898 15.57C10.6458 15.4739 10.4761 15.368 10.3922 15.2531C10.3477 15.1927 10.3289 15.1327 10.3346 15.0717C10.3378 15.12 10.3561 15.1687 10.3918 15.217Z" fill="white"/>
</g>
<path d="M5.08128 12.8273V14.9981C5.08128 15.7739 5.8655 16.5502 7.43675 17.1459C9.03143 17.7502 11.1328 18.0525 13.2342 18.0525C15.3061 18.0525 17.3785 17.7586 18.968 17.1698C20.58 16.5727 21.3872 15.7856 21.3872 14.9986V12.8278C21.3872 13.6153 20.58 14.4023 18.968 14.9995C17.3785 15.5883 15.3061 15.8822 13.2342 15.8822C11.1328 15.8822 9.03143 15.5798 7.43675 14.9756C5.8655 14.3794 5.08128 13.6031 5.08128 12.8273Z" fill="#D96D00"/>
<path d="M5.08128 12.6994V14.8702C5.08128 15.6459 5.8655 16.4227 7.43675 17.018C9.03143 17.6222 11.1328 17.9245 13.2342 17.9245C15.3061 17.9245 17.3785 17.6306 18.968 17.0419C20.58 16.4442 21.3872 15.6577 21.3872 14.8702V12.6994C21.3872 13.4869 20.58 14.2734 18.968 14.8711C17.3785 15.4594 15.3061 15.7538 13.2342 15.7538C11.1328 15.7538 9.03143 15.4509 7.43675 14.8472C5.8655 14.2514 5.08128 13.4752 5.08128 12.6994Z" fill="url(#paint14_linear_21_2288)"/>
<path d="M16.1887 15.5461C16.2313 15.54 16.274 15.5339 16.3167 15.5273V17.6981C16.274 17.7047 16.2313 17.7108 16.1887 17.7169V15.5461Z" fill="#F5C491"/>
<path d="M16.7924 15.4472C16.8351 15.4392 16.8778 15.4317 16.9204 15.4238V17.5945C16.8782 17.6025 16.8351 17.61 16.7924 17.618V15.4472Z" fill="#F5C491"/>
<path d="M17.3957 15.3258C17.4388 15.3164 17.481 15.3061 17.5237 15.2963V17.467C17.481 17.4769 17.4388 17.4872 17.3957 17.497V15.3258Z" fill="#F5C491"/>
<path d="M14.3774 15.7233C14.4201 15.7209 14.4627 15.7177 14.5054 15.7153V17.8861C14.4627 17.8889 14.4201 17.8917 14.3774 17.8941V15.7233Z" fill="#F5C491"/>
<path d="M14.9812 15.682C15.0238 15.6783 15.067 15.6755 15.1096 15.6717V17.8425C15.067 17.8463 15.0243 17.8491 14.9812 17.8528V15.682Z" fill="#F5C491"/>
<path d="M13.7741 15.7458C13.8168 15.7448 13.8594 15.7434 13.9021 15.7425V17.9133C13.8594 17.9147 13.8168 17.9156 13.7741 17.9166V15.7458Z" fill="#F5C491"/>
<path d="M15.5849 15.6239C15.6276 15.6192 15.6702 15.6136 15.7129 15.6084V17.7792C15.6702 17.7844 15.6276 17.7895 15.5849 17.7947V15.6239Z" fill="#F5C491"/>
<path d="M18.7317 17.1249C18.6895 17.1394 18.6468 17.1539 18.6037 17.168V14.9972C18.6468 14.9836 18.6895 14.9691 18.7317 14.9541V17.1249Z" fill="#F5C491"/>
<path d="M6.52975 14.4366C6.57194 14.4595 6.61366 14.4825 6.65771 14.505V16.6758C6.61366 16.6533 6.57194 16.6303 6.52975 16.6074V14.4366Z" fill="#F5C491"/>
<path d="M5.4502 15.7781C5.40332 15.7214 5.36019 15.6647 5.32223 15.6075V13.4367C5.36019 13.4939 5.40332 13.5506 5.4502 13.6069V15.7781Z" fill="#F5C491"/>
<path d="M7.26099 16.9477C7.21833 16.9303 7.17426 16.9134 7.13301 16.8956V14.7248C7.17473 14.7422 7.21833 14.7595 7.26099 14.7769V16.9477Z" fill="#F5C491"/>
<path d="M18 15.1777C18.0431 15.1659 18.0853 15.1538 18.1279 15.1416V17.3123C18.0853 17.3241 18.0431 17.3363 18 17.3484V15.1777Z" fill="#F5C491"/>
<path d="M5.92549 14.0531C5.96674 14.0845 6.0094 14.1155 6.05347 14.1464V16.3172C6.00893 16.2863 5.96674 16.2553 5.92549 16.2244V14.0531Z" fill="#F5C491"/>
<path d="M8.9443 15.2963C8.98695 15.3061 9.02914 15.3164 9.07227 15.3263V17.497C9.02914 17.4877 8.98695 17.4769 8.9443 17.4675V15.2963Z" fill="#F5C491"/>
<path d="M20.543 16.2234C20.5012 16.2549 20.4595 16.2863 20.415 16.3172V14.1469C20.4595 14.1159 20.5017 14.0845 20.543 14.0531V16.2234Z" fill="#F5C491"/>
<path d="M8.34054 15.142C8.38273 15.1538 8.42585 15.1655 8.46851 15.1767V17.3475C8.42585 17.3358 8.38273 17.3241 8.34054 17.3128V15.142Z" fill="#F5C491"/>
<path d="M7.73678 14.955C7.77896 14.9695 7.82256 14.9827 7.86475 14.9967V17.1675C7.82209 17.1534 7.7785 17.1398 7.73678 17.1253V14.955Z" fill="#F5C491"/>
<path d="M19.8108 14.505C19.8548 14.4825 19.8965 14.4595 19.9387 14.4366V16.6073C19.8965 16.6298 19.8548 16.6528 19.8108 16.6753V14.505Z" fill="#F5C491"/>
<path d="M21.1462 15.6086C21.1083 15.6658 21.0647 15.7225 21.0178 15.7788V13.608C21.0647 13.5513 21.1083 13.4946 21.1462 13.4379V15.6086Z" fill="#F5C491"/>
<path d="M13.1699 17.9236V15.7528C13.1915 15.7528 13.2126 15.7533 13.2341 15.7533C13.2557 15.7533 13.2768 15.7528 13.2983 15.7528V17.9236C13.2768 17.9241 13.2557 17.9245 13.2341 17.9245C13.2126 17.9245 13.1915 17.9236 13.1699 17.9236Z" fill="#F5C491"/>
<path d="M19.2075 14.7773C19.2511 14.76 19.2933 14.7422 19.3354 14.7244V16.8952C19.2933 16.913 19.2511 16.9308 19.2075 16.9481V14.7773Z" fill="#F5C491"/>
<path d="M11.9629 15.7153C12.0055 15.7177 12.0482 15.7205 12.0908 15.7228V17.8936C12.0482 17.8913 12.0055 17.8884 11.9629 17.8861V15.7153Z" fill="#F5C491"/>
<path d="M12.5661 15.7425C12.6088 15.7439 12.6514 15.7448 12.6941 15.7458V17.9166C12.6514 17.9156 12.6088 17.9142 12.5661 17.9133V15.7425Z" fill="#F5C491"/>
<path d="M9.54806 15.4233C9.59072 15.4313 9.63337 15.4392 9.67603 15.4472V17.618C9.63337 17.61 9.59072 17.602 9.54806 17.5941V15.4233Z" fill="#F5C491"/>
<path d="M11.3591 15.6713C11.4013 15.675 11.4444 15.6783 11.4871 15.6816V17.8524C11.4444 17.8491 11.4013 17.8458 11.3591 17.8416V15.6713Z" fill="#F5C491"/>
<path d="M10.7556 15.6084C10.7982 15.6136 10.8409 15.6192 10.8835 15.6244V17.7952C10.8409 17.7905 10.7982 17.7848 10.7556 17.7797V15.6084Z" fill="#F5C491"/>
<path d="M10.1518 15.5273C10.194 15.5339 10.2371 15.5391 10.2798 15.5456V17.7164C10.2371 17.7103 10.194 17.7047 10.1518 17.6981V15.5273Z" fill="#F5C491"/>
<path d="M7.50144 10.7433C9.0905 10.1545 11.1628 9.86063 13.2342 9.86063C15.3361 9.86063 17.4375 10.1634 19.0318 10.7677C22.1977 11.9672 22.1691 13.9008 18.9685 15.0867C17.3789 15.6755 15.3066 15.9694 13.2347 15.9694C11.1333 15.9694 9.0319 15.6666 7.43722 15.0628C4.27081 13.8638 4.29941 11.9292 7.50144 10.7433Z" fill="url(#paint15_linear_21_2288)"/>
<path opacity="0.3" d="M7.50147 10.7433C7.98944 10.5623 8.52382 10.4095 9.08866 10.2844L20.9958 11.9803C21.8823 13.0163 21.2546 14.1933 19.1208 15.0272L5.08788 13.0284C5.00632 12.2039 5.81163 11.3695 7.50147 10.7433Z" fill="white"/>
<path opacity="0.6" d="M18.9679 15.2442C17.3783 15.833 15.306 16.1269 13.2341 16.1269C11.1327 16.1269 9.03132 15.8245 7.43663 15.2203C5.85413 14.6208 5.06944 13.8375 5.08116 13.0561V13.0552C5.08116 13.0345 5.08444 13.0134 5.08585 12.9928C5.13647 13.7428 5.91741 14.4877 7.43663 15.0633C9.03132 15.667 11.1327 15.9698 13.2341 15.9698C15.306 15.9698 17.3783 15.6759 18.9679 15.0872C20.5274 14.5092 21.3318 13.7536 21.3824 12.9923C21.4396 13.8061 20.6348 14.6264 18.9679 15.2442Z" fill="white"/>
<path d="M8.97188 11.3006C10.1541 10.8628 11.6944 10.6444 13.2347 10.6444C14.797 10.6444 16.3594 10.8694 17.5444 11.3189C19.898 12.2105 19.8773 13.6486 17.4961 14.5303C16.3144 14.9681 14.7745 15.1866 13.2342 15.1866C11.6719 15.1866 10.1095 14.9616 8.92453 14.512C6.57 13.62 6.59203 12.1823 8.97188 11.3006Z" fill="#F28500"/>
<path opacity="0.6" d="M17.5444 11.865C16.3594 11.4159 14.797 11.1909 13.2347 11.1909C11.6944 11.1909 10.1541 11.4094 8.97188 11.8477C7.97485 12.217 7.3936 12.6839 7.22532 13.1672C6.98719 12.487 7.56985 11.775 8.97188 11.2556C10.1541 10.8178 11.6944 10.5994 13.2347 10.5994C14.797 10.5994 16.3594 10.8239 17.5444 11.2734C18.9122 11.7919 19.4761 12.4945 19.2431 13.1648C19.0772 12.69 18.5119 12.2316 17.5444 11.865Z" fill="white"/>
<path d="M17.5444 11.9105C16.3594 11.4614 14.797 11.2364 13.2347 11.2364C11.6944 11.2364 10.1541 11.4548 8.97188 11.8927C7.97485 12.262 7.3936 12.7289 7.22532 13.2122C6.98719 12.532 7.56985 11.82 8.97188 11.3006C10.1541 10.8628 11.6944 10.6444 13.2347 10.6444C14.797 10.6444 16.3594 10.8694 17.5444 11.3189C18.9122 11.8369 19.4761 12.54 19.2431 13.2103C19.0772 12.7355 18.5119 12.2766 17.5444 11.9105Z" fill="#D96D00"/>
<path d="M10.3341 13.2098H10.3336V12.8044L12.6131 12.1097C12.6399 12.0998 12.6685 12.0952 12.6985 12.0952C12.7285 12.0952 12.7561 12.1003 12.7824 12.1102L16.5652 13.1334C16.5652 13.1888 16.5652 13.5492 16.5652 13.5605C16.5652 13.5717 16.5511 13.5825 16.5263 13.5919L15.6328 13.9223C15.6061 13.9322 15.5785 13.9373 15.5485 13.9373C15.5185 13.9373 15.4899 13.9322 15.4646 13.9223L14.2069 13.4456C14.1975 13.4419 14.1882 13.4405 14.1788 13.4405C14.1694 13.4405 14.1596 13.4419 14.1507 13.4456L13.5511 13.6673C13.2755 13.7695 12.9816 13.8398 12.6661 13.8783C12.4847 13.9008 12.3052 13.9116 12.1275 13.9116C11.9953 13.9116 11.8641 13.9055 11.7338 13.8933C11.4263 13.8642 11.1483 13.8028 10.898 13.7081C10.6458 13.612 10.4761 13.5061 10.3922 13.3913C10.3472 13.3313 10.3285 13.2708 10.3341 13.2098ZM11.9766 13.3256C12.0872 13.3673 12.2133 13.388 12.3558 13.388C12.368 13.388 12.3807 13.388 12.3928 13.3875C12.5494 13.3838 12.6985 13.3552 12.8377 13.3041L13.3125 13.1278C13.3308 13.1213 13.3308 13.1142 13.3125 13.1072L12.5635 12.8236C12.5541 12.8203 12.5452 12.818 12.5358 12.818C12.5264 12.818 12.5166 12.8203 12.5072 12.8236L12.0333 12.9994C11.8936 13.0509 11.8191 13.1067 11.8083 13.1663C11.798 13.2258 11.8547 13.2788 11.9766 13.3256Z" fill="#D96D00"/>
<path d="M10.4105 12.615C10.5085 12.4992 10.6908 12.3919 10.958 12.2925L12.6132 11.6794C12.6399 11.6695 12.6685 11.6648 12.6985 11.6648C12.7285 11.6648 12.7561 11.67 12.7824 11.6798L16.5272 13.0983C16.5525 13.1081 16.5652 13.1184 16.5652 13.1297C16.5652 13.1409 16.5511 13.1517 16.5263 13.1616L15.6328 13.492C15.6061 13.5023 15.5785 13.507 15.5485 13.507C15.5185 13.507 15.4899 13.5019 15.4646 13.492L14.2069 13.0153C14.1975 13.012 14.1882 13.0102 14.1788 13.0102C14.1694 13.0102 14.1596 13.0116 14.1507 13.0153L13.5511 13.237C13.2755 13.3392 12.9816 13.4095 12.6661 13.448C12.4847 13.47 12.3052 13.4813 12.1275 13.4813C11.9953 13.4813 11.8641 13.4752 11.7338 13.463C11.4263 13.4339 11.1483 13.3725 10.898 13.2778C10.6458 13.1817 10.4761 13.0758 10.3922 12.9609C10.3064 12.8466 10.3135 12.7303 10.4105 12.615ZM11.9766 12.8953C12.0872 12.937 12.2133 12.9577 12.3558 12.9577C12.368 12.9577 12.3807 12.9577 12.3928 12.9572C12.5494 12.9534 12.6985 12.9248 12.8377 12.8738L13.3125 12.6975C13.3308 12.6909 13.3308 12.6839 13.3125 12.6769L12.5635 12.3933C12.5541 12.3895 12.5452 12.3881 12.5358 12.3881C12.5264 12.3881 12.5166 12.39 12.5072 12.3933L12.0333 12.5691C11.8936 12.6202 11.8191 12.6764 11.8083 12.7359C11.798 12.7955 11.8547 12.8484 11.9766 12.8953Z" fill="url(#paint16_linear_21_2288)"/>
<g opacity="0.6">
<path opacity="0.6" d="M12.0333 12.533L12.5072 12.3572C12.517 12.3534 12.5264 12.3516 12.5357 12.3516C12.5451 12.3516 12.554 12.3534 12.5634 12.3572L13.3125 12.6408C13.3307 12.6478 13.3307 12.6548 13.3125 12.6614L13.2918 12.6689L12.5629 12.3928C12.5536 12.3891 12.5447 12.3877 12.5353 12.3877C12.5259 12.3877 12.5161 12.3895 12.5067 12.3928L12.0328 12.5686C11.8987 12.6178 11.8261 12.6712 11.8111 12.7284C11.8092 12.7191 11.8059 12.7097 11.8078 12.6994C11.8186 12.6398 11.8936 12.5845 12.0333 12.533Z" fill="white"/>
<path opacity="0.6" d="M10.3918 12.9253C10.4761 13.0402 10.6453 13.1461 10.8975 13.2422C11.1478 13.3369 11.4253 13.3983 11.7333 13.4269C11.8636 13.4391 11.9949 13.4452 12.1271 13.4452C12.3047 13.4452 12.4843 13.4339 12.6657 13.4114C12.9811 13.373 13.275 13.3027 13.5507 13.2009L14.1502 12.9788C14.1596 12.975 14.1689 12.9736 14.1783 12.9736C14.1877 12.9736 14.1971 12.975 14.2064 12.9788L15.4641 13.4555C15.4894 13.4648 15.518 13.4705 15.548 13.4705C15.578 13.4705 15.6057 13.4658 15.6324 13.4555L16.5258 13.125C16.5371 13.1208 16.5455 13.1161 16.5521 13.1114C16.56 13.1175 16.5652 13.1231 16.5652 13.1297C16.5652 13.1409 16.5511 13.1517 16.5263 13.1616L15.6328 13.492C15.6061 13.5023 15.5785 13.507 15.5485 13.507C15.5185 13.507 15.4899 13.5019 15.4646 13.492L14.2069 13.0153C14.1975 13.012 14.1882 13.0102 14.1788 13.0102C14.1694 13.0102 14.1596 13.0116 14.1507 13.0153L13.5511 13.237C13.2755 13.3392 12.9816 13.4095 12.6661 13.448C12.4847 13.47 12.3052 13.4812 12.1275 13.4812C11.9953 13.4812 11.8641 13.4752 11.7338 13.463C11.4263 13.4339 11.1483 13.3725 10.898 13.2778C10.6458 13.1817 10.4761 13.0758 10.3922 12.9609C10.3477 12.9005 10.3289 12.84 10.3346 12.7795C10.3378 12.8288 10.3561 12.8775 10.3918 12.9253Z" fill="white"/>
</g>
<path opacity="0.7" d="M20.1643 18.3544C20.109 14.6995 18.1927 11.7656 15.8837 11.8008C13.5765 11.8355 11.7493 14.8266 11.8046 18.4809C11.8599 22.1353 13.7766 25.0697 16.0848 25.0345C18.3938 25.0003 20.2201 22.0088 20.1643 18.3544Z" fill="url(#paint17_radial_21_2288)"/>
<path opacity="0.7" d="M19.3275 20.2397C16.9134 17.4947 13.5515 16.5061 11.8181 18.0314C10.0851 19.5553 10.6359 23.0166 13.0495 25.7611C15.4631 28.5052 18.8259 29.4942 20.5593 27.9694C22.2928 26.445 21.7415 22.9842 19.3275 20.2397Z" fill="url(#paint18_radial_21_2288)"/>
<path d="M24.9072 10.0884H22.8382C18.7197 10.0884 15.3813 14.0358 15.3813 18.9052C15.3813 23.775 18.7197 27.7223 22.8382 27.7223H24.9072C20.7888 27.7223 17.4508 23.775 17.4508 18.9052C17.4504 14.0358 20.7888 10.0884 24.9072 10.0884Z" fill="#D96D00"/>
<path d="M25.0037 10.0884H22.9346C18.8162 10.0884 15.4777 14.0358 15.4777 18.9052C15.4777 23.775 18.8162 27.7223 22.9346 27.7223H25.0037C20.8852 27.7223 17.5473 23.775 17.5473 18.9052C17.5468 14.0358 20.8852 10.0884 25.0037 10.0884Z" fill="url(#paint19_linear_21_2288)"/>
<path d="M17.6216 17.6691H15.5525C15.5581 17.6231 15.5628 17.5767 15.5689 17.5308H17.6384C17.6319 17.5763 17.6272 17.6231 17.6216 17.6691Z" fill="#F5C491"/>
<path d="M15.8299 16.2248H17.8994C17.8872 16.2708 17.875 16.3172 17.8633 16.3631H15.7938C15.8055 16.3172 15.8172 16.2708 15.8299 16.2248Z" fill="#F5C491"/>
<path d="M17.5469 18.9052C17.5469 18.9286 17.5483 18.9516 17.5483 18.9745H15.4788C15.4788 18.9516 15.4774 18.9286 15.4774 18.9052C15.4774 18.8822 15.4788 18.8592 15.4788 18.8358H17.5483C17.5483 18.8592 17.5469 18.8822 17.5469 18.9052Z" fill="#F5C491"/>
<path d="M15.9851 15.7102C16.0001 15.6638 16.0156 15.6173 16.0311 15.5719H18.1006C18.0846 15.6178 18.0696 15.6642 18.0542 15.7102H15.9851Z" fill="#F5C491"/>
<path d="M18.293 15.0577H16.224C16.2432 15.0108 16.2638 14.9653 16.284 14.9194H18.3535C18.3334 14.9653 18.3123 15.0108 18.293 15.0577Z" fill="#F5C491"/>
<path d="M15.496 18.3216C15.4983 18.2752 15.5016 18.2292 15.5049 18.1833H17.574C17.5707 18.2297 17.5674 18.2756 17.5651 18.3216H15.496Z" fill="#F5C491"/>
<path d="M18.5918 23.4061C18.6153 23.4525 18.6387 23.4984 18.6631 23.5444H16.594C16.5701 23.4984 16.5462 23.452 16.5228 23.4061H18.5918Z" fill="#F5C491"/>
<path d="M16.8859 24.0591H18.9554C18.9835 24.105 19.0107 24.1519 19.0398 24.1973H16.9707C16.9412 24.1519 16.914 24.105 16.8859 24.0591Z" fill="#F5C491"/>
<path d="M15.5525 20.1417H17.6215C17.6272 20.1881 17.6318 20.2345 17.6379 20.28H15.5684C15.5628 20.2345 15.5581 20.1877 15.5525 20.1417Z" fill="#F5C491"/>
<path d="M15.678 20.933C15.6686 20.887 15.6597 20.8411 15.6508 20.7947H17.7199C17.7283 20.8411 17.7377 20.887 17.7471 20.933H15.678Z" fill="#F5C491"/>
<path d="M20.0593 25.5033H17.9903C17.9467 25.4578 17.9036 25.4119 17.8609 25.365H19.9304C19.9731 25.4114 20.0162 25.4574 20.0593 25.5033Z" fill="#F5C491"/>
<path d="M15.9846 22.1002H18.0542C18.0696 22.1466 18.0846 22.193 18.1001 22.2384H16.031C16.0151 22.193 16.0001 22.1466 15.9846 22.1002Z" fill="#F5C491"/>
<path d="M17.8633 21.4477C17.875 21.4936 17.8868 21.54 17.8994 21.5859H15.8299C15.8172 21.54 15.8055 21.4936 15.7938 21.4477H17.8633Z" fill="#F5C491"/>
<path d="M17.574 19.6275H15.5049C15.5016 19.5816 15.4988 19.5352 15.496 19.4892H17.5651C17.5674 19.5352 17.5707 19.5816 17.574 19.6275Z" fill="#F5C491"/>
<path d="M17.9903 12.3075H20.0593C20.0157 12.353 19.9726 12.3994 19.93 12.4458H17.8604C17.9035 12.3994 17.9467 12.353 17.9903 12.3075Z" fill="#F5C491"/>
<path d="M19.4973 12.9605C19.4622 13.0055 19.4289 13.0528 19.3947 13.0988H17.3256C17.3598 13.0523 17.3931 13.0055 17.4283 12.9605H19.4973Z" fill="#F5C491"/>
<path d="M20.71 10.4878C20.8493 10.4367 20.9903 10.3913 21.1328 10.3495H23.2019C23.0594 10.3913 22.9183 10.4367 22.7791 10.4878H20.71Z" fill="#F5C491"/>
<path d="M16.2842 22.8919C16.2645 22.8455 16.2434 22.8 16.2242 22.7536H18.2933C18.3125 22.8 18.3336 22.8459 18.3533 22.8919H16.2842Z" fill="#F5C491"/>
<path d="M18.5284 11.7933C18.5828 11.7464 18.6376 11.7005 18.6929 11.655H20.7625C20.7071 11.7005 20.6518 11.7464 20.5975 11.7933H18.5284Z" fill="#F5C491"/>
<path d="M19.0393 13.6134C19.0102 13.6589 18.9831 13.7058 18.9549 13.7517H16.8854C16.9135 13.7053 16.9407 13.6589 16.9698 13.6134H19.0393Z" fill="#F5C491"/>
<path d="M19.4005 11.1403C19.4759 11.0925 19.5523 11.047 19.6292 11.002H21.6987C21.6219 11.047 21.5454 11.0925 21.47 11.1403H19.4005Z" fill="#F5C491"/>
<path d="M21.4695 26.6705C21.545 26.7188 21.6214 26.7638 21.6982 26.8088H19.6287C19.5518 26.7638 19.4754 26.7183 19.4 26.6705H21.4695Z" fill="#F5C491"/>
<path d="M22.7791 27.323C22.9183 27.3745 23.0594 27.4195 23.2019 27.4613H21.1328C20.9903 27.4195 20.8492 27.3741 20.71 27.323H22.7791Z" fill="#F5C491"/>
<path d="M20.5975 26.0175C20.6518 26.0644 20.7067 26.1103 20.7625 26.1558H18.6929C18.6376 26.1103 18.5828 26.0644 18.5284 26.0175H20.5975Z" fill="#F5C491"/>
<path d="M18.6631 14.2664C18.6392 14.3123 18.6153 14.3583 18.5918 14.4047H16.5228C16.5462 14.3583 16.5697 14.3119 16.594 14.2664H18.6631Z" fill="#F5C491"/>
<path d="M17.7476 16.8773C17.7382 16.9238 17.7293 16.9697 17.7204 17.0156H15.6513C15.6597 16.9692 15.6691 16.9233 15.6785 16.8773H17.7476Z" fill="#F5C491"/>
<path d="M19.3947 24.7116C19.4289 24.7575 19.4626 24.8048 19.4973 24.8503H17.4278C17.3926 24.8048 17.3594 24.758 17.3251 24.7116H19.3947Z" fill="#F5C491"/>
<path d="M24.796 27.7219C20.678 27.7219 17.3396 23.7745 17.3396 18.9052C17.3396 14.0358 20.678 10.0884 24.796 10.0884C28.9141 10.0884 32.2524 14.0358 32.2524 18.9052C32.2524 23.7745 28.9141 27.7219 24.796 27.7219Z" fill="url(#paint20_linear_21_2288)"/>
<g opacity="0.3">
<path opacity="0.3" d="M24.7959 10.0884C26.2738 10.0884 27.6501 10.5989 28.8088 11.4759L19.4338 25.0289C18.1382 23.4427 17.3395 21.2855 17.3395 18.9056C17.3395 18.8625 17.3418 18.8198 17.3423 18.7767L23.2129 10.2895C23.7229 10.1588 24.2521 10.0884 24.7959 10.0884Z" fill="white"/>
<path opacity="0.3" d="M31.0449 14.0967C31.7194 15.3202 32.1436 16.7527 32.2327 18.2953L25.7649 27.6455C25.4475 27.6942 25.1245 27.7219 24.7959 27.7219C23.8252 27.7219 22.8994 27.5006 22.0491 27.1013L31.0449 14.0967Z" fill="white"/>
</g>
<path opacity="0.6" d="M17.162 18.9052C17.162 14.0358 20.5005 10.0884 24.6184 10.0884C24.648 10.0884 24.6775 10.0908 24.707 10.0913C20.6298 10.148 17.3392 14.0714 17.3392 18.9056C17.3392 23.7403 20.6298 27.6638 24.707 27.72C24.6775 27.7205 24.648 27.7228 24.6184 27.7228C20.5 27.7223 17.162 23.775 17.162 18.9052Z" fill="white"/>
<path opacity="0.6" d="M24.9068 12.3506C27.9686 12.3506 30.4502 15.2845 30.4502 18.9052C30.4502 22.5248 27.9686 25.4602 24.9068 25.4602C21.8449 25.4602 19.3633 22.5248 19.3633 18.9052C19.3633 15.2845 21.8449 12.3506 24.9068 12.3506Z" fill="white"/>
<path d="M24.7959 12.3506C27.8583 12.3506 30.3394 15.2845 30.3394 18.9052C30.3394 22.5248 27.8583 25.4602 24.7959 25.4602C21.734 25.4602 19.2525 22.5248 19.2525 18.9052C19.2525 15.2845 21.7336 12.3506 24.7959 12.3506Z" fill="#F28500"/>
<path d="M22.1039 16.8389C22.2464 16.5375 22.4489 16.3055 22.71 16.1423C22.9725 15.9792 23.2749 15.8967 23.6184 15.8967H25.7489C25.7827 15.8967 25.8099 15.9089 25.8291 15.9314C25.8483 15.9539 25.8577 15.9863 25.8577 16.0261V21.7842C25.8577 21.8241 25.8483 21.8555 25.8291 21.8789C25.8103 21.9014 25.7827 21.9127 25.7489 21.9127H24.6C24.5663 21.9127 24.54 21.9014 24.5199 21.8789C24.5011 21.8555 24.4913 21.8241 24.4913 21.7842V19.8516C24.4913 19.823 24.4786 19.808 24.4542 19.808H23.6836C23.3306 19.808 23.0175 19.7283 22.7466 19.5675C22.4747 19.4067 22.2652 19.1798 22.1142 18.8883C21.9647 18.5967 21.8888 18.2588 21.8888 17.8753C21.8892 17.4844 21.9609 17.1394 22.1039 16.8389ZM23.4122 18.3506C23.5205 18.4627 23.6649 18.5189 23.8444 18.5189H24.4547C24.4791 18.5189 24.4917 18.5039 24.4917 18.4753V17.3236C24.4917 17.295 24.4791 17.2809 24.4547 17.2809H23.8444C23.6653 17.2809 23.5209 17.3381 23.4122 17.453C23.3034 17.5664 23.2486 17.7188 23.2486 17.9077C23.2491 18.0914 23.3039 18.24 23.4122 18.3506Z" fill="#D96D00"/>
<path d="M29.6006 18.9052C29.6006 15.4312 27.3159 12.5916 24.4265 12.3666C24.5489 12.3572 24.6717 12.3506 24.7959 12.3506C27.8583 12.3506 30.3394 15.2845 30.3394 18.9052C30.3394 22.5248 27.8583 25.4602 24.7959 25.4602C24.6717 25.4602 24.5489 25.4536 24.4265 25.4437C27.3159 25.2192 29.6006 22.3781 29.6006 18.9052Z" fill="#D96D00"/>
<path opacity="0.6" d="M22.6659 16.8389C22.8084 16.5375 23.0105 16.3055 23.272 16.1423C23.5345 15.9792 23.8369 15.8967 24.1805 15.8967H26.3109C26.3447 15.8967 26.3723 15.9089 26.3911 15.9314C26.4098 15.9539 26.4197 15.9863 26.4197 16.0261V21.7842C26.4197 21.8241 26.4103 21.8555 26.3911 21.8789C26.3719 21.9014 26.3447 21.9127 26.3109 21.9127H25.162C25.1283 21.9127 25.102 21.9014 25.0819 21.8789C25.0626 21.8555 25.0533 21.8241 25.0533 21.7842V19.8516C25.0533 19.823 25.0406 19.808 25.0162 19.808H24.2456C23.8926 19.808 23.5795 19.7283 23.3086 19.5675C23.0367 19.4067 22.8267 19.1798 22.6762 18.8883C22.5267 18.5967 22.4503 18.2588 22.4503 17.8753C22.4508 17.4844 22.5225 17.1394 22.6659 16.8389ZM23.9742 18.3506C24.083 18.4627 24.2269 18.5189 24.4064 18.5189H25.0167C25.0411 18.5189 25.0537 18.5039 25.0537 18.4753V17.3236C25.0537 17.295 25.0411 17.2809 25.0167 17.2809H24.4064C24.2269 17.2809 24.083 17.3381 23.9742 17.453C23.8655 17.5664 23.8106 17.7188 23.8106 17.9077C23.8106 18.0914 23.8655 18.24 23.9742 18.3506Z" fill="white"/>
<path d="M22.7668 16.8389C22.9093 16.5375 23.1113 16.3055 23.3729 16.1423C23.6354 15.9792 23.9377 15.8967 24.2813 15.8967H26.4118C26.4455 15.8967 26.4732 15.9089 26.4919 15.9314C26.5111 15.9539 26.5205 15.9863 26.5205 16.0261V21.7842C26.5205 21.8241 26.5111 21.8555 26.4919 21.8789C26.4732 21.9014 26.4455 21.9127 26.4118 21.9127H25.2629C25.2291 21.9127 25.2029 21.9014 25.1827 21.8789C25.1639 21.8555 25.1541 21.8241 25.1541 21.7842V19.8516C25.1541 19.823 25.1414 19.808 25.1171 19.808H24.3464C23.9935 19.808 23.6804 19.7283 23.4094 19.5675C23.1375 19.4067 22.928 19.1798 22.7771 18.8883C22.6275 18.5967 22.5516 18.2588 22.5516 17.8753C22.5521 17.4844 22.6233 17.1394 22.7668 16.8389ZM24.075 18.3506C24.1833 18.4627 24.3277 18.5189 24.5072 18.5189H25.1175C25.1419 18.5189 25.1546 18.5039 25.1546 18.4753V17.3236C25.1546 17.295 25.1419 17.2809 25.1175 17.2809H24.5072C24.3282 17.2809 24.1838 17.3381 24.075 17.453C23.9663 17.5664 23.9114 17.7188 23.9114 17.9077C23.9114 18.0914 23.9663 18.24 24.075 18.3506Z" fill="url(#paint21_linear_21_2288)"/>
<defs>
<radialGradient id="paint0_radial_21_2288" cx="0" cy="0" r="1" gradientUnits="userSpaceOnUse" gradientTransform="translate(12.5665 24.9076) rotate(180) scale(9.84655 3.46542)">
<stop stop-color="#23354A"/>
<stop offset="0.1826" stop-color="#2A415C" stop-opacity="0.8174"/>
<stop offset="0.5486" stop-color="#3D618B" stop-opacity="0.4514"/>
<stop offset="1" stop-color="#588DCC" stop-opacity="0"/>
</radialGradient>
<radialGradient id="paint1_radial_21_2288" cx="0" cy="0" r="1" gradientUnits="userSpaceOnUse" gradientTransform="translate(21.6979 25.2265) rotate(180) scale(9.84655 3.46542)">
<stop stop-color="#23354A"/>
<stop offset="0.1826" stop-color="#2A415C" stop-opacity="0.8174"/>
<stop offset="0.5486" stop-color="#3D618B" stop-opacity="0.4514"/>
<stop offset="1" stop-color="#588DCC" stop-opacity="0"/>
</radialGradient>
<linearGradient id="paint2_linear_21_2288" x1="21.3874" y1="24.4771" x2="5.08109" y2="24.4771" gradientUnits="userSpaceOnUse">
<stop stop-color="#F28500"/>
<stop offset="1" stop-color="#FBA905"/>
</linearGradient>
<linearGradient id="paint3_linear_21_2288" x1="10.0706" y1="20.7006" x2="20.2355" y2="25.1347" gradientUnits="userSpaceOnUse">
<stop stop-color="#FBCF0A"/>
<stop offset="1" stop-color="#FBA505"/>
</linearGradient>
<linearGradient id="paint4_linear_21_2288" x1="10.0463" y1="20.7561" x2="20.2112" y2="25.1902" gradientUnits="userSpaceOnUse">
<stop stop-color="#FBCF0A"/>
<stop offset="1" stop-color="#FBA505"/>
</linearGradient>
<linearGradient id="paint5_linear_21_2288" x1="21.3874" y1="22.1856" x2="5.08109" y2="22.1856" gradientUnits="userSpaceOnUse">
<stop stop-color="#F28500"/>
<stop offset="1" stop-color="#FBA905"/>
</linearGradient>
<linearGradient id="paint6_linear_21_2288" x1="10.0705" y1="18.4092" x2="20.2355" y2="22.8433" gradientUnits="userSpaceOnUse">
<stop stop-color="#FBCF0A"/>
<stop offset="1" stop-color="#FBA505"/>
</linearGradient>
<linearGradient id="paint7_linear_21_2288" x1="10.0463" y1="18.4648" x2="20.2111" y2="22.8989" gradientUnits="userSpaceOnUse">
<stop stop-color="#FBCF0A"/>
<stop offset="1" stop-color="#FBA505"/>
</linearGradient>
<linearGradient id="paint8_linear_21_2288" x1="21.3874" y1="19.8943" x2="5.08109" y2="19.8943" gradientUnits="userSpaceOnUse">
<stop stop-color="#F28500"/>
<stop offset="1" stop-color="#FBA905"/>
</linearGradient>
<linearGradient id="paint9_linear_21_2288" x1="10.0706" y1="16.1178" x2="20.2355" y2="20.5519" gradientUnits="userSpaceOnUse">
<stop stop-color="#FBCF0A"/>
<stop offset="1" stop-color="#FBA505"/>
</linearGradient>
<linearGradient id="paint10_linear_21_2288" x1="10.0462" y1="16.1735" x2="20.2111" y2="20.6077" gradientUnits="userSpaceOnUse">
<stop stop-color="#FBCF0A"/>
<stop offset="1" stop-color="#FBA505"/>
</linearGradient>
<linearGradient id="paint11_linear_21_2288" x1="21.3874" y1="17.6029" x2="5.08109" y2="17.6029" gradientUnits="userSpaceOnUse">
<stop stop-color="#F28500"/>
<stop offset="1" stop-color="#FBA905"/>
</linearGradient>
<linearGradient id="paint12_linear_21_2288" x1="10.0705" y1="13.8265" x2="20.2355" y2="18.2607" gradientUnits="userSpaceOnUse">
<stop stop-color="#FBCF0A"/>
<stop offset="1" stop-color="#FBA505"/>
</linearGradient>
<linearGradient id="paint13_linear_21_2288" x1="10.0463" y1="13.8822" x2="20.2111" y2="18.3163" gradientUnits="userSpaceOnUse">
<stop stop-color="#FBCF0A"/>
<stop offset="1" stop-color="#FBA505"/>
</linearGradient>
<linearGradient id="paint14_linear_21_2288" x1="21.3874" y1="15.3116" x2="5.08109" y2="15.3116" gradientUnits="userSpaceOnUse">
<stop stop-color="#F28500"/>
<stop offset="1" stop-color="#FBA905"/>
</linearGradient>
<linearGradient id="paint15_linear_21_2288" x1="10.0705" y1="11.5351" x2="20.2355" y2="15.9693" gradientUnits="userSpaceOnUse">
<stop stop-color="#FBCF0A"/>
<stop offset="1" stop-color="#FBA505"/>
</linearGradient>
<linearGradient id="paint16_linear_21_2288" x1="10.0463" y1="11.5907" x2="20.211" y2="16.0248" gradientUnits="userSpaceOnUse">
<stop stop-color="#FBCF0A"/>
<stop offset="1" stop-color="#FBA505"/>
</linearGradient>
<radialGradient id="paint17_radial_21_2288" cx="0" cy="0" r="1" gradientUnits="userSpaceOnUse" gradientTransform="translate(15.9846 18.418) rotate(-0.870938) scale(4.17969 6.61867)">
<stop stop-color="#660418"/>
<stop offset="0.1826" stop-color="#78031B" stop-opacity="0.8174"/>
<stop offset="0.5486" stop-color="#A70223" stop-opacity="0.4514"/>
<stop offset="1" stop-color="#E8002E" stop-opacity="0"/>
</radialGradient>
<radialGradient id="paint18_radial_21_2288" cx="0" cy="0" r="1" gradientUnits="userSpaceOnUse" gradientTransform="translate(16.1886 23.0007) rotate(-41.3344) scale(4.17971 6.61869)">
<stop stop-color="#660418"/>
<stop offset="0.1395" stop-color="#711629" stop-opacity="0.8605"/>
<stop offset="0.4194" stop-color="#8F4554" stop-opacity="0.5806"/>
<stop offset="0.81" stop-color="#BE8F99" stop-opacity="0.19"/>
<stop offset="1" stop-color="#D6B6BD" stop-opacity="0"/>
</radialGradient>
<linearGradient id="paint19_linear_21_2288" x1="19.5036" y1="25.1595" x2="23.4274" y2="11.4493" gradientUnits="userSpaceOnUse">
<stop stop-color="#F28500"/>
<stop offset="1" stop-color="#FBA905"/>
</linearGradient>
<linearGradient id="paint20_linear_21_2288" x1="27.7187" y1="10.9502" x2="22.41" y2="25.3991" gradientUnits="userSpaceOnUse">
<stop stop-color="#FBCF0A"/>
<stop offset="1" stop-color="#FBA505"/>
</linearGradient>
<linearGradient id="paint21_linear_21_2288" x1="27.7056" y1="10.9827" x2="22.3971" y2="25.4312" gradientUnits="userSpaceOnUse">
<stop stop-color="#FBCF0A"/>
<stop offset="1" stop-color="#FBA505"/>
</linearGradient>
</defs>
</svg>
