<svg width="29" height="30" viewBox="0 0 29 30" fill="none" xmlns="http://www.w3.org/2000/svg">
<path d="M26.0305 17.123L28.6333 18.6108C28.9305 18.7807 29.0685 19.1321 28.9667 19.4567C28.2906 21.6124 27.1362 23.56 25.6265 25.1776C25.5135 25.2987 25.3623 25.3782 25.1977 25.403C25.0331 25.4277 24.8648 25.3963 24.7206 25.3139L22.1197 23.8263C21.0254 24.7548 19.7674 25.4752 18.4088 25.9511V28.9258C18.4088 29.0908 18.3521 29.2509 18.248 29.3797C18.1439 29.5085 17.9987 29.5984 17.8361 29.6346C15.7011 30.1094 13.4081 30.1339 11.1654 29.635C10.8301 29.5604 10.5911 29.2663 10.5911 28.926V25.9511C9.23256 25.4752 7.97447 24.7549 6.88019 23.8263L4.27932 25.3139C4.1351 25.3963 3.96687 25.4277 3.80225 25.403C3.63764 25.3782 3.48642 25.2987 3.37344 25.1776C1.86375 23.56 0.709352 21.6124 0.0332377 19.4567C-0.0685764 19.1321 0.0693948 18.7808 0.366653 18.6108L2.96954 17.123C2.7081 15.7195 2.7081 14.2805 2.96954 12.8771L0.366714 11.3892C0.069456 11.2193 -0.0685153 10.868 0.0332988 10.5434C0.709413 8.38762 1.86375 6.44004 3.3735 4.82247C3.48648 4.70134 3.6377 4.62187 3.80231 4.5971C3.96693 4.57232 4.13516 4.60372 4.27938 4.68613L6.88025 6.17373C7.97455 5.24521 9.23263 4.52486 10.5912 4.04894V1.07417C10.5912 0.909184 10.6479 0.749113 10.752 0.620296C10.8561 0.491479 11.0013 0.40159 11.1639 0.36542C13.2989 -0.109378 15.5919 -0.133934 17.8346 0.364996C18.1699 0.439573 18.4089 0.733705 18.4089 1.07405V4.04888C19.7674 4.52477 21.0255 5.24513 22.1198 6.17367L24.7207 4.68607C24.8649 4.60366 25.0331 4.57226 25.1977 4.59704C25.3624 4.62181 25.5136 4.70128 25.6266 4.8224C27.1362 6.43998 28.2906 8.38756 28.9668 10.5433C29.0686 10.8679 28.9306 11.2192 28.6333 11.3892L26.0305 12.877C26.2919 14.2805 26.2919 15.7195 26.0305 17.123ZM19.3861 15C19.3861 12.3319 17.1942 10.1613 14.5 10.1613C11.8058 10.1613 9.6139 12.3319 9.6139 15C9.6139 17.6681 11.8058 19.8387 14.5 19.8387C17.1942 19.8387 19.3861 17.6681 19.3861 15Z" fill="#808082"/>
</svg>
