<svg width="67" height="67" viewBox="0 0 67 67" fill="none" xmlns="http://www.w3.org/2000/svg">
<path opacity="0.7" d="M33.6894 21.9442C36.3667 21.9722 38.0322 23.2389 38.0322 41.1474C38.0322 59.7094 37.4372 54.0519 32.3014 54.7577C29.6519 55.1215 28.5588 48.705 28.6591 39.1662C28.7603 29.6266 31.012 21.9163 33.6894 21.9442Z" fill="url(#paint0_radial_24_4140)"/>
<path d="M20.1574 30.6359C21.5236 32.0021 23.7386 32.0021 25.1039 30.6359L27.7159 28.024C28.1163 27.6235 28.8003 27.9071 28.8003 28.4733V48.9021C28.8003 50.8345 30.3662 52.4005 32.2977 52.4005C34.2301 52.4005 35.796 50.8345 35.796 48.9021V28.4741C35.796 27.9079 36.48 27.6253 36.8804 28.0248L39.4923 30.6368C40.8585 32.003 43.0735 32.003 44.4388 30.6368C45.805 29.2706 45.805 27.0556 44.4388 25.6894L34.3225 15.574C33.205 14.4556 31.3913 14.4556 30.2737 15.574L20.1574 25.6894C18.7913 27.0556 18.7913 29.2698 20.1574 30.6359Z" fill="#F28500"/>
<path d="M20.6696 31.148C22.0358 32.5142 24.2508 32.5142 25.6161 31.148L28.2281 28.5361C28.6285 28.1356 29.3125 28.4192 29.3125 28.9854V49.4143C29.3125 51.3466 30.8784 52.9126 32.8099 52.9126C34.7423 52.9126 36.3082 51.3466 36.3082 49.4143V28.9854C36.3082 28.4192 36.9922 28.1365 37.3926 28.5361L40.0046 31.148C41.3707 32.5142 43.5857 32.5142 44.951 31.148C46.3172 29.7819 46.3172 27.5668 44.951 26.2007L34.8347 16.0852C33.7172 14.9668 31.9035 14.9668 30.786 16.0852L20.6696 26.2007C19.3035 27.5668 19.3035 29.7819 20.6696 31.148Z" fill="url(#paint1_linear_24_4140)"/>
<defs>
<radialGradient id="paint0_radial_24_4140" cx="0" cy="0" r="1" gradientUnits="userSpaceOnUse" gradientTransform="translate(33.3816 38.4804) rotate(-89.3966) scale(16.6586 4.67574)">
<stop stop-color="#23354A"/>
<stop offset="0.1826" stop-color="#2A415C" stop-opacity="0.8174"/>
<stop offset="0.5486" stop-color="#3D618B" stop-opacity="0.4514"/>
<stop offset="1" stop-color="#588DCC" stop-opacity="0"/>
</radialGradient>
<linearGradient id="paint1_linear_24_4140" x1="19.6446" y1="34.0798" x2="45.9752" y2="34.0798" gradientUnits="userSpaceOnUse">
<stop stop-color="#FBCF0A"/>
<stop offset="1" stop-color="#FBA505"/>
</linearGradient>
</defs>
</svg>
